<svg class="main-svg" xmlns="http://www.w3.org/2000/svg" xmlns:xlink="http://www.w3.org/1999/xlink" width="700" height="500" style="" viewBox="0 0 700 500"><rect x="0" y="0" width="700" height="500" style="fill: rgb(255, 255, 255); fill-opacity: 1;"/><defs id="defs-1978ee"><g class="clips"><clipPath id="clip1978eexyplot" class="plotclip"><rect width="458.41426071741046" height="342.836832895888"/></clipPath><clipPath class="axesclip" id="clip1978eex"><rect x="204.84033245844273" y="0" width="458.41426071741046" height="500"/></clipPath><clipPath class="axesclip" id="clip1978eey"><rect x="0" y="56.22047244094487" width="700" height="342.836832895888"/></clipPath><clipPath class="axesclip" id="clip1978eexy"><rect x="204.84033245844273" y="56.22047244094487" width="458.41426071741046" height="342.836832895888"/></clipPath></g><g class="gradients"/></defs><g class="bglayer"/><g class="layer-below"><g class="imagelayer"/><g class="shapelayer"/></g><g class="cartesianlayer"><g class="subplot xy"><g class="layer-subplot"><g class="shapelayer"/><g class="imagelayer"/></g><g class="gridlayer"><g class="x"><path class="xgrid crisp" transform="translate(308.8603324584427,0)" d="M0,56.22047244094487v342.836832895888" style="stroke: rgb(0, 0, 0); stroke-opacity: 0.1; stroke-width: 0.5px;"/><path class="xgrid crisp" transform="translate(422.6703324584428,0)" d="M0,56.22047244094487v342.836832895888" style="stroke: rgb(0, 0, 0); stroke-opacity: 0.1; stroke-width: 0.5px;"/><path class="xgrid crisp" transform="translate(536.4703324584427,0)" d="M0,56.22047244094487v342.836832895888" style="stroke: rgb(0, 0, 0); stroke-opacity: 0.1; stroke-width: 0.5px;"/><path class="xgrid crisp" transform="translate(650.2803324584427,0)" d="M0,56.22047244094487v342.836832895888" style="stroke: rgb(0, 0, 0); stroke-opacity: 0.1; stroke-width: 0.5px;"/></g><g class="y"><path class="ygrid crisp" transform="translate(0,347.7904724409449)" d="M204.84033245844273,0h458.41426071741046" style="stroke: rgb(0, 0, 0); stroke-opacity: 0.1; stroke-width: 0.5px;"/><path class="ygrid crisp" transform="translate(0,278.5304724409449)" d="M204.84033245844273,0h458.41426071741046" style="stroke: rgb(0, 0, 0); stroke-opacity: 0.1; stroke-width: 0.5px;"/><path class="ygrid crisp" transform="translate(0,209.27047244094487)" d="M204.84033245844273,0h458.41426071741046" style="stroke: rgb(0, 0, 0); stroke-opacity: 0.1; stroke-width: 0.5px;"/><path class="ygrid crisp" transform="translate(0,140.02047244094487)" d="M204.84033245844273,0h458.41426071741046" style="stroke: rgb(0, 0, 0); stroke-opacity: 0.1; stroke-width: 0.5px;"/><path class="ygrid crisp" transform="translate(0,70.76047244094487)" d="M204.84033245844273,0h458.41426071741046" style="stroke: rgb(0, 0, 0); stroke-opacity: 0.1; stroke-width: 0.5px;"/></g></g><g class="zerolinelayer"/><path class="xlines-below"/><path class="ylines-below"/><g class="overlines-below"/><g class="xaxislayer-below"/><g class="yaxislayer-below"/><g class="overaxes-below"/><g class="plot" transform="translate(204.84033245844273,56.22047244094487)" clip-path="url('#clip1978eexyplot')"><g class="scatterlayer mlayer"><g class="trace scatter traceb8d6b4" style="stroke-miterlimit: 2; opacity: 1;"><g class="fills"/><g class="errorbars"/><g class="lines"><path class="js-line" d="M12.97,29.55L35.74,54.03L58.5,60L81.26,39.63L104.02,17.8L126.78,15.51L149.54,25.6L172.3,48.04L195.07,16.23L217.83,43.23L240.59,27.59L263.35,46.36L286.11,34.33L308.87,39.44L331.63,27.48L354.39,31.57L377.16,22.32L399.92,9.7L422.68,33.47L445.44,41.77" style="vector-effect: non-scaling-stroke; fill: none; stroke: rgb(0, 154, 250); stroke-opacity: 1; stroke-width: 3px; opacity: 1; stroke-dasharray: 3px, 3px;"/></g><g class="points"/><g class="text"/></g><g class="trace scatter tracedbe8d6" style="stroke-miterlimit: 2; opacity: 1;"><g class="fills"/><g class="errorbars"/><g class="lines"><path class="js-line" d="M12.97,29.55L35.74,134.25L58.5,193.66L81.26,212.13L104.02,222.62L172.3,308.23L195.07,288.33L217.83,308.03L240.59,304.58L263.35,323.33L286.11,323.47L308.87,318.15L331.63,304.76L354.39,306.59L377.16,315.88L399.92,302.86L422.68,311.19L445.44,313.71" style="vector-effect: non-scaling-stroke; fill: none; stroke: rgb(0, 0, 0); stroke-opacity: 1; stroke-width: 3px; opacity: 1;"/></g><g class="points"/><g class="text"/></g><g class="trace scatter tracee986f8" style="stroke-miterlimit: 2; opacity: 1;"><g class="fills"/><g class="errorbars"/><g class="lines"><path class="js-line" d="M12.97,29.55L35.74,213.46L58.5,284.97L81.26,296.61L104.02,296.06L126.78,316.64L149.54,322.7L172.3,322.7L195.07,315.94L217.83,317.04L240.59,322.89L263.35,329.11L286.11,332.83L308.87,325.41L331.63,313.67L354.39,317.27L377.16,327.72L399.92,315.84L422.68,317.97L445.44,319.91" style="vector-effect: non-scaling-stroke; fill: none; stroke: rgb(62, 164, 78); stroke-opacity: 1; stroke-width: 3px; opacity: 1; stroke-dasharray: 9px, 3px, 3px, 3px;"/></g><g class="points"/><g class="text"/></g><g class="trace scatter trace431f3d" style="stroke-miterlimit: 2; opacity: 1;"><g class="fills"/><g class="errorbars"/><g class="lines"><path class="js-line" d="M12.97,29.55L35.74,288.06L58.5,327.49L81.26,323L104.02,313.53L126.78,329.71L149.54,326.82L172.3,323.33L195.07,316.82L217.83,317.71L240.59,327.46L263.35,328.95L286.11,332.8L308.87,326.91L331.63,316.87L354.39,322.28L377.16,331.34L399.92,321.1L422.68,318.49L445.44,322.87" style="vector-effect: non-scaling-stroke; fill: none; stroke: rgb(195, 113, 210); stroke-opacity: 1; stroke-width: 3px; opacity: 1; stroke-dasharray: 9px, 9px;"/></g><g class="points"/><g class="text"/></g><g class="trace scatter trace5e6004" style="stroke-miterlimit: 2; opacity: 1;"><g class="fills"/><g class="errorbars"/><g class="lines"><path class="js-line" d="M12.97,29.55L35.74,315.33L58.5,331.65L104.02,318.6L126.78,333.13L149.54,328.55L172.3,325.35L195.07,314.35L217.83,314.85L240.59,327.94L263.35,327.32L286.11,331.56L308.87,327.3L331.63,318.98L354.39,324.98L377.16,331.98L399.92,323.61L422.68,317.38L445.44,324.92" style="vector-effect: non-scaling-stroke; fill: none; stroke: rgb(172, 142, 24); stroke-opacity: 1; stroke-width: 3px; opacity: 1;"/></g><g class="points"/><g class="text"/></g></g></g><g class="overplot"/><path class="xlines-above crisp" d="M203.84033245844273,399.5573053368329H663.2545931758532" style="fill: none; stroke-width: 1px; stroke: rgb(0, 0, 0); stroke-opacity: 1;"/><path class="ylines-above crisp" d="M204.34033245844273,56.22047244094487V399.0573053368329" style="fill: none; stroke-width: 1px; stroke: rgb(0, 0, 0); stroke-opacity: 1;"/><g class="overlines-above"/><g class="xaxislayer-above"><path class="xtick ticks crisp" d="M0,399.0573053368329v-5" transform="translate(308.8603324584427,0)" style="stroke: rgb(0, 0, 0); stroke-opacity: 1; stroke-width: 1px;"/><path class="xtick ticks crisp" d="M0,399.0573053368329v-5" transform="translate(422.6703324584428,0)" style="stroke: rgb(0, 0, 0); stroke-opacity: 1; stroke-width: 1px;"/><path class="xtick ticks crisp" d="M0,399.0573053368329v-5" transform="translate(536.4703324584427,0)" style="stroke: rgb(0, 0, 0); stroke-opacity: 1; stroke-width: 1px;"/><path class="xtick ticks crisp" d="M0,399.0573053368329v-5" transform="translate(650.2803324584427,0)" style="stroke: rgb(0, 0, 0); stroke-opacity: 1; stroke-width: 1px;"/><g class="xtick"><text text-anchor="middle" x="0" y="424.0573053368329" transform="translate(308.8603324584427,0)" style="font-family: sans-serif; font-size: 20px; fill: rgb(0, 0, 0); fill-opacity: 1; white-space: pre;">5</text></g><g class="xtick"><text text-anchor="middle" x="0" y="424.0573053368329" transform="translate(422.6703324584428,0)" style="font-family: sans-serif; font-size: 20px; fill: rgb(0, 0, 0); fill-opacity: 1; white-space: pre;">10</text></g><g class="xtick"><text text-anchor="middle" x="0" y="424.0573053368329" transform="translate(536.4703324584427,0)" style="font-family: sans-serif; font-size: 20px; fill: rgb(0, 0, 0); fill-opacity: 1; white-space: pre;">15</text></g><g class="xtick"><text text-anchor="middle" x="0" y="424.0573053368329" transform="translate(650.2803324584427,0)" style="font-family: sans-serif; font-size: 20px; fill: rgb(0, 0, 0); fill-opacity: 1; white-space: pre;">20</text></g></g><g class="yaxislayer-above"><path class="ytick ticks crisp" d="M204.84033245844273,0h5" transform="translate(0,347.7904724409449)" style="stroke: rgb(0, 0, 0); stroke-opacity: 1; stroke-width: 1px;"/><path class="ytick ticks crisp" d="M204.84033245844273,0h5" transform="translate(0,278.5304724409449)" style="stroke: rgb(0, 0, 0); stroke-opacity: 1; stroke-width: 1px;"/><path class="ytick ticks crisp" d="M204.84033245844273,0h5" transform="translate(0,209.27047244094487)" style="stroke: rgb(0, 0, 0); stroke-opacity: 1; stroke-width: 1px;"/><path class="ytick ticks crisp" d="M204.84033245844273,0h5" transform="translate(0,140.02047244094487)" style="stroke: rgb(0, 0, 0); stroke-opacity: 1; stroke-width: 1px;"/><path class="ytick ticks crisp" d="M204.84033245844273,0h5" transform="translate(0,70.76047244094487)" style="stroke: rgb(0, 0, 0); stroke-opacity: 1; stroke-width: 1px;"/><g class="ytick"><text text-anchor="end" x="199.84033245844273" y="7" transform="translate(0,347.7904724409449)" style="font-family: sans-serif; font-size: 20px; fill: rgb(0, 0, 0); fill-opacity: 1; white-space: pre;">5.0×10³</text></g><g class="ytick"><text text-anchor="end" x="199.84033245844273" y="7" transform="translate(0,278.5304724409449)" style="font-family: sans-serif; font-size: 20px; fill: rgb(0, 0, 0); fill-opacity: 1; white-space: pre;">1.0×10⁴</text></g><g class="ytick"><text text-anchor="end" x="199.84033245844273" y="7" transform="translate(0,209.27047244094487)" style="font-family: sans-serif; font-size: 20px; fill: rgb(0, 0, 0); fill-opacity: 1; white-space: pre;">1.5×10⁴</text></g><g class="ytick"><text text-anchor="end" x="199.84033245844273" y="7" transform="translate(0,140.02047244094487)" style="font-family: sans-serif; font-size: 20px; fill: rgb(0, 0, 0); fill-opacity: 1; white-space: pre;">2.0×10⁴</text></g><g class="ytick"><text text-anchor="end" x="199.84033245844273" y="7" transform="translate(0,70.76047244094487)" style="font-family: sans-serif; font-size: 20px; fill: rgb(0, 0, 0); fill-opacity: 1; white-space: pre;">2.5×10⁴</text></g></g><g class="overaxes-above"/></g></g><g class="polarlayer"/><g class="ternarylayer"/><g class="geolayer"/><g class="funnelarealayer"/><g class="pielayer"/><g class="treemaplayer"/><g class="sunburstlayer"/><g class="glimages"/><defs id="topdefs-1978ee"><g class="clips"/><clipPath id="legend1978ee"><rect width="258" height="155" x="1" y="1"/></clipPath></defs><g class="layer-above"><g class="imagelayer"/><g class="shapelayer"/></g><g class="infolayer"><g class="legend" pointer-events="all" transform="translate(440,162.29999999999998)"><rect class="bg" shape-rendering="crispEdges" width="259" height="156" x="0.5" y="0.5" style="stroke: rgb(0, 0, 0); stroke-opacity: 1; fill: rgb(255, 255, 255); fill-opacity: 1; stroke-width: 1px;"/><g class="scrollbox" transform="" clip-path="url('#legend1978ee')"><g class="groups"><g class="traces" transform="translate(1,20.5)" style="opacity: 1;"><text class="legendtext" text-anchor="start" x="40" y="7.8" style="font-family: sans-serif; font-size: 20px; fill: rgb(0, 0, 0); fill-opacity: 1; white-space: pre;">$\kappa = 0.00\, h^{-1}$</text><g class="layers" style="opacity: 1;"><g class="legendfill"/><g class="legendlines"><path class="js-line" d="M5,0h30" style="fill: none; stroke: rgb(0, 154, 250); stroke-opacity: 1; stroke-dasharray: 3px, 3px; stroke-width: 3px;"/></g><g class="legendsymbols"><g class="legendpoints"/></g></g><rect class="legendtoggle" x="0" y="-14.5" width="252.34375" height="29" style="fill: rgb(0, 0, 0); fill-opacity: 0;"/></g><g class="traces" transform="translate(1,49.5)" style="opacity: 1;"><text class="legendtext" text-anchor="start" x="40" y="7.8" style="font-family: sans-serif; font-size: 20px; fill: rgb(0, 0, 0); fill-opacity: 1; white-space: pre;">$\kappa = 0.25\, h^{-1}$</text><g class="layers" style="opacity: 1;"><g class="legendfill"/><g class="legendlines"><path class="js-line" d="M5,0h30" style="fill: none; stroke: rgb(0, 0, 0); stroke-opacity: 1; stroke-width: 3px;"/></g><g class="legendsymbols"><g class="legendpoints"/></g></g><rect class="legendtoggle" x="0" y="-14.5" width="252.34375" height="29" style="fill: rgb(0, 0, 0); fill-opacity: 0;"/></g><g class="traces" transform="translate(1,78.5)" style="opacity: 1;"><text class="legendtext" text-anchor="start" x="40" y="7.8" style="font-family: sans-serif; font-size: 20px; fill: rgb(0, 0, 0); fill-opacity: 1; white-space: pre;">$\kappa = 0.50\, h^{-1}$</text><g class="layers" style="opacity: 1;"><g class="legendfill"/><g class="legendlines"><path class="js-line" d="M5,0h30" style="fill: none; stroke: rgb(62, 164, 78); stroke-opacity: 1; stroke-dasharray: 9px, 3px, 3px, 3px; stroke-width: 3px;"/></g><g class="legendsymbols"><g class="legendpoints"/></g></g><rect class="legendtoggle" x="0" y="-14.5" width="252.34375" height="29" style="fill: rgb(0, 0, 0); fill-opacity: 0;"/></g><g class="traces" transform="translate(1,107.5)" style="opacity: 1;"><text class="legendtext" text-anchor="start" x="40" y="7.8" style="font-family: sans-serif; font-size: 20px; fill: rgb(0, 0, 0); fill-opacity: 1; white-space: pre;">$\kappa = 0.75\, h^{-1}$</text><g class="layers" style="opacity: 1;"><g class="legendfill"/><g class="legendlines"><path class="js-line" d="M5,0h30" style="fill: none; stroke: rgb(195, 113, 210); stroke-opacity: 1; stroke-dasharray: 9px, 9px; stroke-width: 3px;"/></g><g class="legendsymbols"><g class="legendpoints"/></g></g><rect class="legendtoggle" x="0" y="-14.5" width="252.34375" height="29" style="fill: rgb(0, 0, 0); fill-opacity: 0;"/></g><g class="traces" transform="translate(1,136.5)" style="opacity: 1;"><text class="legendtext" text-anchor="start" x="40" y="7.8" style="font-family: sans-serif; font-size: 20px; fill: rgb(0, 0, 0); fill-opacity: 1; white-space: pre;">$\kappa = 1.00\, h^{-1}$</text><g class="layers" style="opacity: 1;"><g class="legendfill"/><g class="legendlines"><path class="js-line" d="M5,0h30" style="fill: none; stroke: rgb(172, 142, 24); stroke-opacity: 1; stroke-width: 3px;"/></g><g class="legendsymbols"><g class="legendpoints"/></g></g><rect class="legendtoggle" x="0" y="-14.5" width="252.34375" height="29" style="fill: rgb(0, 0, 0); fill-opacity: 0;"/></g></g></g><rect class="scrollbar" rx="20" ry="3" width="0" height="0" x="0" y="0" style="fill: rgb(128, 139, 164); fill-opacity: 1;"/></g><g class="g-gtitle"/><g class="g-xtitle"><text class="xtitle" x="434.04746281714796" y="469.0573053368329" text-anchor="middle" style="font-family: sans-serif; font-size: 20px; fill: rgb(0, 0, 0); opacity: 1; font-weight: normal; white-space: pre;">days [c]</text></g><g class="g-ytitle" transform="translate(-30.732421875,0)"><text class="ytitle" transform="rotate(-90,154.84033245844273,227.63888888888886)" x="154.84033245844273" y="227.63888888888886" text-anchor="middle" style="font-family: sans-serif; font-size: 20px; fill: rgb(0, 0, 0); opacity: 1; font-weight: normal; white-space: pre;">2-norm of the error [s]</text></g></g></svg>