<svg class="main-svg" xmlns="http://www.w3.org/2000/svg" xmlns:xlink="http://www.w3.org/1999/xlink" width="700" height="500" style="" viewBox="0 0 700 500"><rect x="0" y="0" width="700" height="500" style="fill: rgb(255, 255, 255); fill-opacity: 1;"/><defs id="defs-7ffa28"><g class="clips"><clipPath id="clip7ffa28xyplot" class="plotclip"><rect width="595.0867599883348" height="370.0021872265967"/></clipPath><clipPath class="axesclip" id="clip7ffa28x"><rect x="81.94736074657334" y="0" width="595.0867599883348" height="500"/></clipPath><clipPath class="axesclip" id="clip7ffa28y"><rect x="0" y="42.63779527559056" width="700" height="370.0021872265967"/></clipPath><clipPath class="axesclip" id="clip7ffa28xy"><rect x="81.94736074657334" y="42.63779527559056" width="595.0867599883348" height="370.0021872265967"/></clipPath></g><g class="gradients"/></defs><g class="bglayer"/><g class="layer-below"><g class="imagelayer"/><g class="shapelayer"/></g><g class="cartesianlayer"><g class="subplot xy"><g class="layer-subplot"><g class="shapelayer"/><g class="imagelayer"/></g><g class="gridlayer"><g class="x"><path class="xgrid crisp" transform="translate(98.78736074657334,0)" d="M0,42.63779527559056v370.0021872265967" style="stroke: rgb(0, 0, 0); stroke-opacity: 0.1; stroke-width: 0.5px;"/><path class="xgrid crisp" transform="translate(154.92736074657336,0)" d="M0,42.63779527559056v370.0021872265967" style="stroke: rgb(0, 0, 0); stroke-opacity: 0.1; stroke-width: 0.5px;"/><path class="xgrid crisp" transform="translate(211.06736074657334,0)" d="M0,42.63779527559056v370.0021872265967" style="stroke: rgb(0, 0, 0); stroke-opacity: 0.1; stroke-width: 0.5px;"/><path class="xgrid crisp" transform="translate(267.20736074657333,0)" d="M0,42.63779527559056v370.0021872265967" style="stroke: rgb(0, 0, 0); stroke-opacity: 0.1; stroke-width: 0.5px;"/><path class="xgrid crisp" transform="translate(323.3473607465734,0)" d="M0,42.63779527559056v370.0021872265967" style="stroke: rgb(0, 0, 0); stroke-opacity: 0.1; stroke-width: 0.5px;"/><path class="xgrid crisp" transform="translate(379.48736074657336,0)" d="M0,42.63779527559056v370.0021872265967" style="stroke: rgb(0, 0, 0); stroke-opacity: 0.1; stroke-width: 0.5px;"/><path class="xgrid crisp" transform="translate(435.62736074657334,0)" d="M0,42.63779527559056v370.0021872265967" style="stroke: rgb(0, 0, 0); stroke-opacity: 0.1; stroke-width: 0.5px;"/><path class="xgrid crisp" transform="translate(491.76736074657333,0)" d="M0,42.63779527559056v370.0021872265967" style="stroke: rgb(0, 0, 0); stroke-opacity: 0.1; stroke-width: 0.5px;"/><path class="xgrid crisp" transform="translate(547.9073607465733,0)" d="M0,42.63779527559056v370.0021872265967" style="stroke: rgb(0, 0, 0); stroke-opacity: 0.1; stroke-width: 0.5px;"/><path class="xgrid crisp" transform="translate(604.0473607465733,0)" d="M0,42.63779527559056v370.0021872265967" style="stroke: rgb(0, 0, 0); stroke-opacity: 0.1; stroke-width: 0.5px;"/><path class="xgrid crisp" transform="translate(660.1873607465734,0)" d="M0,42.63779527559056v370.0021872265967" style="stroke: rgb(0, 0, 0); stroke-opacity: 0.1; stroke-width: 0.5px;"/></g><g class="y"><path class="ygrid crisp" transform="translate(0,389.1377952755906)" d="M81.94736074657334,0h595.0867599883348" style="stroke: rgb(0, 0, 0); stroke-opacity: 0.1; stroke-width: 0.5px;"/><path class="ygrid crisp" transform="translate(0,302.89779527559057)" d="M81.94736074657334,0h595.0867599883348" style="stroke: rgb(0, 0, 0); stroke-opacity: 0.1; stroke-width: 0.5px;"/><path class="ygrid crisp" transform="translate(0,216.64779527559057)" d="M81.94736074657334,0h595.0867599883348" style="stroke: rgb(0, 0, 0); stroke-opacity: 0.1; stroke-width: 0.5px;"/><path class="ygrid crisp" transform="translate(0,130.40779527559056)" d="M81.94736074657334,0h595.0867599883348" style="stroke: rgb(0, 0, 0); stroke-opacity: 0.1; stroke-width: 0.5px;"/><path class="ygrid crisp" transform="translate(0,44.167795275590564)" d="M81.94736074657334,0h595.0867599883348" style="stroke: rgb(0, 0, 0); stroke-opacity: 0.1; stroke-width: 0.5px;"/></g></g><g class="zerolinelayer"/><path class="xlines-below"/><path class="ylines-below"/><g class="overlines-below"/><g class="xaxislayer-below"/><g class="yaxislayer-below"/><g class="overaxes-below"/><g class="plot" transform="translate(81.94736074657334,42.63779527559056)" clip-path="url('#clip7ffa28xyplot')"><g class="scatterlayer mlayer"><g class="trace scatter trace0877e7" style="stroke-miterlimit: 2; opacity: 1;"><g class="fills"/><g class="errorbars"/><g class="lines"><path class="js-line" d="M16.84,282.21L17.19,265.7L17.19,265.66L17.43,254.57L17.75,260.98L17.75,260.99L18.01,265.97L18.17,257.11L18.17,257.07L18.6,233.05L18.92,259.96L18.93,260.01L19.68,281.46L19.68,281.46L19.69,281.46L19.78,283.06L19.78,283.13L20.35,350.29L20.53,313.91L20.54,313.78L20.94,234.47L21.29,247.43L21.3,247.45L21.52,255.5L22.05,212.96L22.06,212.9L22.81,204.39L22.81,204.39L22.82,204.39L23.27,203.44L23.3,205.04L23.3,205.08L24.05,239.91L24.06,239.91L24.44,242.86L24.69,238.22L24.7,238.21L25.03,231.96L25.45,249.29L25.46,249.32L26.2,273.29L26.21,272.97L26.22,272.96L26.97,238.85L26.98,238.77L27.37,192.36L27.73,210.87L27.74,210.9L27.95,221.88L28.49,192.79L28.5,192.76L28.54,190.45L29.12,231.76L29.25,221.54L29.26,221.49L29.71,186.46L30.01,192.49L30.02,192.5L30.77,227.84L30.78,227.88L30.88,234.21L31.53,173.45L31.54,173.41L32.05,140.75L32.29,169.46L32.3,169.54L33.05,215.84L33.06,215.85L33.22,218.69L33.8,80.39L33.81,82.5L33.82,82.61L34.57,177.81L34.58,177.84L34.97,191.95L35.33,158.12L35.34,158.06L35.56,137.61L36.09,146.65L36.1,146.67L36.14,147.42L36.85,130.88L36.86,130.86L37.31,114.19L37.61,132.23L37.62,132.27L37.89,148.86L38.37,125.82L38.38,125.79L39.06,100.76L39.13,104.9L39.14,104.94L39.89,145.53L39.9,145.55L40.23,159.69L40.65,77.01L40.66,76.89L40.82,44.9L41.41,92.23L41.42,92.36L41.99,207.95L42.17,203L42.18,202.98L42.93,127.87L42.94,127.76L43.69,31.37L43.7,31.3L43.74,26.3L44.45,89.64L44.46,89.73L44.91,157.55L45.21,108.15L45.22,108.04L45.5,62.02L45.97,83.06L45.98,83.09L46.67,132.28L46.73,130.09L46.74,130.07L47.49,107.92L47.5,107.91L48.25,79.34L48.26,79.31L49.01,62.31L49.01,63.66L49.02,63.76L49.59,149.75L49.77,131.65L49.78,131.58L50.18,92.27L50.53,103.22L50.54,103.24L51.29,136.73L51.3,136.76L51.93,182.11L52.05,163.32L52.06,163.22L52.51,94.11L52.81,149.54L52.82,149.66L53.1,202.14L53.57,125.16L53.58,125.06L53.68,107.51L54.27,137.34L54.33,136.73L54.34,136.72L54.85,131.97L54.95,138.8L54.95,138.85L55.22,157.21L55.22,157.25L55.44,172.48L55.97,119.33L55.98,119.26L56.61,78.44L56.73,92.75L56.74,92.82L57.49,169.86L57.5,169.92L57.78,193.7L58.25,189.11L58.26,189.1L58.66,172.39L58.66,172.36L58.95,157.47L59.16,166.51L59.17,166.53L59.53,181.75L59.92,171.68L59.93,171.66L60.68,163.94L60.69,163.94L60.86,177.72L60.86,177.78L61.29,215.17L61.61,209.36L61.62,209.35L61.87,204.79L62.37,274.6L62.38,274.69L62.46,285.85L63.13,245.8L63.14,245.78L63.63,227.17L63.89,251.84L63.9,251.9L64.21,280.75L64.64,250.87L64.65,250.83L64.8,240.47L65.4,244.81L65.41,244.89L65.96,315.09L66.16,311.91L66.17,311.9L66.6,294.27L66.6,294.13L67.13,173.49L67.35,211.94L67.36,212.05L67.72,275.48L68.11,233.23L68.12,233.16L68.3,212.99L68.87,355.95L68.88,356.11L68.89,359.53L69.47,226.3L69.63,235.65L69.64,235.69L70.39,279.69L70.4,279.73L70.64,294.05L71.15,241.98L71.16,241.91L71.23,234.48L71.81,266.61L71.91,261.21L71.92,261.17L72.67,232.64L72.68,232.63L72.98,229.39L73.1,237.4L73.11,237.44L73.57,267.6L73.86,253.76L73.87,253.73L74.62,198.67L74.63,198.61L74.74,188.79L75.38,283.07L75.39,283.1L75.91,305.32L76.14,276.97L76.15,276.89L76.49,235.7L76.9,247.72L76.91,247.73L77.66,270.91L77.66,270.87L77.67,270.86L78.36,251.16L78.36,251.09L78.83,197.61L79.11,217.24L79.12,217.28L79.87,257.57L79.88,257.59L80,262.92L80.58,225.09L80.63,228.24L80.64,228.28L81.17,261.83L81.39,250.35L81.4,250.32L82.15,203.84L82.16,203.79L82.34,190.83L82.91,190.91L82.92,190.91L83.51,210L83.74,202.2L83.74,202.18L84.44,178.98L84.44,178.95L84.68,171.41L85.12,176.33L85.12,176.34L85.26,177.98L85.59,172.25L85.6,172.24L85.85,167.87L86.35,211.62L86.36,211.67L86.43,218.35L87.11,168.61L87.12,168.57L87.6,133.8L87.87,209.37L87.88,209.55L88.19,296.13L88.63,209.96L88.64,209.83L88.77,183.58L89.36,231.09L89.39,225.37L89.4,225.27L89.94,143.85L90.15,150.93L90.16,150.95L90.53,163.31L90.91,159.76L90.92,159.75L91.2,145.42L91.2,145.33L91.31,130.75L91.31,130.66L91.7,78.95L92.06,89.46L92.07,89.47L92.28,95.63L92.82,71.91L92.83,71.88L92.87,70.13L93.45,113.88L93.58,105.64L93.59,105.6L94.03,78.12L94.34,134.39L94.35,134.51L94.62,184.35L95.1,182.77L95.11,182.77L95.22,179.53L95.22,179.44L95.34,162.11L95.34,162.01L95.79,94.47L96.09,110.48L96.1,110.52L96.37,125.2L96.85,120.13L96.86,120.12L96.96,119.06L97.33,124.23L97.33,124.23L97.34,124.24L97.64,139.8L97.64,139.89L98.13,205.17L98.39,177.84L98.4,177.77L99.15,84.54L99.16,84.45L99.3,64.82L99.91,85.5L99.92,85.52L100.67,131.58L100.68,131.67L101.05,183.31L101.43,128.98L101.44,128.88L101.64,100.2L102.19,116.99L102.2,117.01L102.81,155.94L102.95,145.24L102.96,145.19L103.39,113.79L103.71,115.31L103.72,115.32L103.98,116.62L104.03,113.12L104.03,113.08L104.3,96.76L104.3,96.72L104.56,81.01L104.76,89.81L104.76,89.84L105.51,129.59L105.52,129.63L106.27,145.08L106.28,145.08L106.32,145.27L106.41,141.96L106.41,141.94L106.93,121.61L106.93,121.53L107.49,54.47L107.68,80.43L107.69,80.51L108.07,130.64L108.44,120.12L108.45,120.11L108.65,114.28L109.2,201.79L109.21,201.89L109.24,207.38L109.96,165.9L109.97,165.82L110.41,114.61L110.72,137.82L110.73,137.87L111.48,185.33L111.49,185.37L111.58,190.66L112.24,171.18L112.25,171.15L112.75,145.55L113,164.44L113.01,164.49L113.33,188.73L113.76,131.95L113.77,131.86L113.92,111.77L114.5,222.63L114.52,220.87L114.53,220.82L115.09,176.12L115.28,183.91L115.29,183.94L115.67,199.27L116.04,179.01L116.05,178.98L116.26,167.45L116.8,205.42L116.81,205.46L116.84,207.98L117.56,202.44L117.57,202.42L118.01,190.61L118.32,204.81L118.33,204.83L118.6,217.08L119.08,150.36L119.09,150.27L119.18,137.21L119.84,202.08L119.85,202.12L120.6,243.09L120.61,243.12L121.36,292.83L121.37,292.88L121.52,304.82L122.12,277.69L122.13,277.6L122.69,197.24L122.88,204.21L122.89,204.24L123.64,280.98L123.65,281.09L123.86,317.53L124.4,285L124.41,284.97L125.03,255.16L125.16,263.88L125.17,263.92L125.61,292.62L125.92,277.28L125.93,277.25L126.68,225.81L126.69,225.76L126.78,218.09L127.44,259.05L127.45,259.1L127.95,301.44L128.2,298.49L128.21,298.48L128.91,277.72L128.91,277.69L129.12,268.32L129.45,275.38L129.46,275.39L129.71,280.67L130.21,266.69L130.22,266.67L130.88,250.55L130.97,260.96L130.98,261.03L131.46,312.9L131.73,272.27L131.74,272.18L132.49,212.41L132.5,212.39L132.63,208.31L133.25,226.27L133.26,226.28L134.01,261.79L134.02,261.87L134.39,308.35L134.77,273.09L134.78,273.03L135.53,217L135.54,216.95L135.56,215.58L136.29,247.24L136.3,247.31L136.72,298.62L137.05,277.96L137.06,277.92L137.81,223.91L137.82,223.86L138.48,207.88L138.57,218.34L138.58,218.41L139.06,271.86L139.33,242.5L139.34,242.42L139.65,208.29L140.09,228.88L140.1,228.91L140.82,243.27L140.85,241.02L140.86,240.98L141.61,186.51L141.62,186.45L141.99,149.96L142.37,196.86L142.38,196.94L142.57,220.89L143.13,199.51L143.14,199.49L143.74,185.95L143.89,190.96L143.9,190.98L144.33,205.24L144.65,180.21L144.66,180.16L144.91,160.55L145.41,176.5L145.42,176.52L145.5,179.1L146.17,152.15L146.18,152.14L146.93,129.99L146.94,129.96L147.69,105.11L147.7,105.09L148.42,73.93L148.45,81.44L148.46,81.59L149.01,204.07L149.21,184.14L149.22,184.08L149.97,131.71L149.98,131.68L150.18,123.01L150.73,170.05L150.74,170.11L150.76,172.19L151.49,128.94L151.5,128.91L151.93,107.25L152.25,130L152.26,130.04L152.51,148.26L153.01,131.6L153.02,131.58L153.68,82.42L153.77,94.22L153.78,94.3L154.53,161.81L154.54,161.82L154.85,165.98L154.97,157.26L154.98,157.22L155.44,123.94L155.73,150.63L155.74,150.69L156.02,176.7L156.49,125.24L156.5,125.17L157.19,54.71L157.25,61.83L157.26,61.9L157.78,122.28L158.01,99.27L158.02,99.2L158.36,65.63L158.77,88.44L158.78,88.48L158.95,98.01L159.53,82.91L159.53,83.05L159.54,83.08L160.29,118.85L160.3,118.86L161.05,144.31L161.06,144.34L161.81,160.92L161.82,160.92L161.87,161.6L162,152.44L162,152.4L162.27,134.02L162.27,133.98L163.02,113.84L163.03,113.83L163.04,113.63L163.22,122.2L163.22,122.23L163.63,142.17L163.97,130.51L163.98,130.49L164.21,122.68L164.73,138.34L164.74,138.36L165.38,153.09L165.49,152.56L165.5,152.56L166.33,144.86L166.33,144.85L166.55,141.53L166.63,151.47L166.63,151.54L167.13,212.58L167.38,192.23L167.39,192.18L167.72,165.05L168.14,213.62L168.15,213.7L168.3,231.81L168.9,161.92L168.91,161.91L169.47,153.81L169.6,162.68L169.6,162.72L169.87,181.09L169.87,181.14L170.62,217.63L170.63,217.66L170.64,218.39L171.38,179.22L171.39,179.18L171.81,156.47L172.14,186.53L172.15,186.59L172.9,240L172.91,240.04L172.98,244.66L173.57,140.95L173.66,144.9L173.67,144.93L174.42,181.1L174.43,181.14L175.18,213.73L175.19,213.75L175.32,217.92L175.91,192.13L175.94,194.74L175.95,194.78L176.7,270.1L176.71,270.21L177.08,336.44L177.46,260.05L177.47,259.92L178.22,192.85L178.23,192.82L178.25,191.78L178.98,204.66L178.99,204.68L179.74,225.12L179.75,225.13L180.17,241.92L180.17,241.97L180.58,275.26L180.92,258.27L180.93,258.24L181.17,246.02L181.68,301.44L181.69,301.51L181.75,308.9L182.44,281.65L182.45,281.61L183.2,240.86L183.21,240.83L183.51,230.49L183.96,245.05L183.97,245.07L184.09,249.12L184.68,241.63L184.72,243.76L184.73,243.79L185.26,268.14L185.48,262.15L185.49,262.14L185.85,252.23L186.24,255.19L186.25,255.19L187.02,259.32L187.06,255.67L187.06,255.62L187.6,210.14L187.81,238.66L187.82,238.75L188.19,288.54L188.57,256.81L188.58,256.76L189.33,232.45L189.34,232.44L189.36,232.13L189.44,242.06L189.44,242.14L189.62,262.58L189.62,262.65L189.94,299.22L190.37,266.33L190.38,266.28L191.11,195.11L191.13,198.75L191.14,198.85L191.89,287.58L191.9,287.59L192.28,295.27L192.65,234.2L192.66,234.1L192.87,199.81L193.41,271.95L193.42,272.03L193.45,276.54L194.17,197.59L194.18,197.54L194.62,164.41L194.93,185.59L194.94,185.63L195.69,265.57L195.7,265.65L195.79,277.45L196.37,179.56L196.45,186.03L196.46,186.09L197.21,230.32L197.22,230.33L197.54,235.19L197.66,225.89L197.67,225.84L198.42,168.54L198.43,168.5L198.71,147.49L199.18,193.74L199.19,193.81L199.3,204.83L199.88,178.8L199.94,181.97L199.95,182L200.47,208.88L200.7,187.67L200.71,187.61L201.46,110.34L201.47,110.27L201.64,91.06L202.22,182L202.22,181.86L202.23,181.82L202.98,147.75L202.99,147.74L203.74,133.81L203.75,133.8L203.98,128.97L204.5,163.39L204.51,163.43L204.56,167.08L205.26,111.84L205.27,111.83L205.73,101.88L206.02,129.98L206.03,130.04L206.78,175.72L206.79,175.75L206.9,180.14L207.54,146.87L207.55,146.85L208.3,101.98L208.31,101.89L208.65,53.57L209.06,91.04L209.07,91.1L209.24,107.06L209.82,76.16L209.82,76.28L209.83,76.4L210.41,185.91L210.58,157.04L210.59,156.93L210.99,89.78L211.34,110.73L211.35,110.77L211.58,124.76L212.1,81.89L212.11,81.83L212.75,46.43L212.86,67.7L212.87,67.82L213.33,153.5L213.62,128.1L213.63,128.05L214.38,88.72L214.39,88.7L214.5,85.24L215.14,107.66L215.15,107.69L215.67,129.37L215.9,118.82L215.91,118.79L216.26,102.94L216.66,124.47L216.67,124.5L216.84,133.89L217.42,74.79L217.43,74.73L218.18,122.83L218.19,122.87L218.6,145.13L218.94,127.92L218.95,127.89L219.18,116.28L219.7,140.59L219.71,140.62L219.77,143.44L220.35,95.04L220.46,97.33L220.47,97.34L221.22,130.19L221.23,130.24L221.52,154.14L221.98,144.47L221.99,144.46L222.1,141.99L222.69,146.73L222.74,146.61L222.75,146.61L223.27,145.48L223.31,147.18L223.31,147.21L224.06,181.6L224.07,181.61L224.44,189.33L224.82,164.29L224.83,164.25L225.03,150.89L225.58,192.28L225.59,192.33L225.61,194.46L226.34,182.19L226.35,182.14L226.78,149.3L227.1,175.35L227.11,175.4L227.37,196.67L227.86,164.93L227.87,164.89L227.95,159.28L228.54,170.92L228.62,165.58L228.63,165.54L229.12,135.06L229.38,175.49L229.39,175.59L230.14,243.78L230.15,243.8L230.88,254.09L230.9,253.52L230.91,253.5L231.66,221.03L231.67,220.97L232.05,181.75L232.42,192.83L232.43,192.85L232.63,198.85L233.18,190.63L233.19,190.62L233.22,190.16L233.28,200.36L233.28,200.47L233.8,289.79L234.03,257.47L234.04,257.38L234.39,208.91L234.79,236.26L234.8,236.3L235.55,260.98L235.56,260.99L236.14,305.39L236.31,286.81L236.32,286.74L236.72,243.12L237.07,275.45L237.08,275.51L237.31,297.05L237.83,269.02L237.84,268.99L238.48,226.98L238.59,229.66L238.6,229.68L239.35,253.52L239.36,253.55L240.11,281.72L240.12,281.74L240.23,285.52L240.87,277.35L240.88,277.29L241.63,229.43L241.64,229.43L241.99,229.27L242.04,230.06L242.04,230.07L242.57,237.52L242.88,231.4L242.88,231.39L243.16,225.89L243.31,234.78L243.31,234.82L243.74,261.06L244.06,241.27L244.07,241.23L244.82,199.6L244.83,199.57L244.91,195.12L245.5,271.65L245.58,267.02L245.59,266.99L246.34,224.96L246.35,224.92L246.67,205.65L247.1,240.18L247.11,240.23L247.84,259.73L247.86,258.88L247.87,258.86L248.62,233.21L248.63,233.18L249.01,216.34L249.38,225.93L249.39,225.95L249.59,231.1L250.14,205.03L250.15,205L250.76,186.43L250.9,197.23L250.91,197.28L251.34,229.98L251.66,219.51L251.67,219.48L251.93,210.84L252.42,249.75L252.43,249.8L252.51,256.8L253.18,252.27L253.19,252.28L253.68,261.15L253.94,251.99L253.95,251.96L254.7,199.96L254.71,199.9L254.85,186.1L255.46,207.24L255.47,207.28L256.02,240.25L256.21,239.96L256.22,239.96L256.96,237.39L256.96,237.39L256.96,237.38L257.29,231.95L257.29,231.92L258.04,199.7L258.05,199.67L258.36,185.95L258.8,210.74L258.81,210.78L258.95,218.72L259.56,138.01L259.57,137.99L260.12,119.12L260.32,134L260.33,134.05L261.08,161.95L261.08,161.95L261.09,161.96L261.31,164.85L261.31,164.92L261.87,225.35L262.06,208.03L262.07,207.97L262.82,143.34L262.83,143.29L263.58,124.54L263.58,124.54L263.59,124.54L263.65,127.84L263.65,127.93L264.21,203.2L264.4,174.55L264.41,174.46L264.79,117.03L265.16,141.31L265.17,141.35L265.92,166.87L265.93,166.89L266.55,175.83L266.68,170.19L266.69,170.16L267.44,146.94L267.45,146.93L268.62,124.24L268.62,124.21L268.89,110.96L269.07,120.08L269.07,120.11L269.82,168.19L269.83,168.24L270.58,218.32L270.59,218.36L270.64,221.87L271.34,192.62L271.34,192.62L271.35,192.62L271.83,189.53L271.83,189.47L272.02,171.65L272.02,171.59L272.2,154.84L272.2,154.77L272.4,136.32L272.95,170.5L272.96,170.54L273.56,172.48L273.71,167.22L273.72,167.19L274.47,132.16L274.48,132.12L275.23,107.6L275.24,107.59L275.32,106.1L275.91,207.63L275.99,205.77L276,205.76L276.49,195.38L276.75,228.35L276.76,228.43L277.08,268.51L277.51,175.56L277.52,175.43L277.66,144.78L278.25,206.86L278.27,205.31L278.28,205.28L278.83,175.93L279.03,177.23L279.04,177.23L279.41,179.67L279.5,175.06L279.5,175.02L280,148.04L280.25,161.79L280.26,161.82L281.01,210.8L281.02,210.85L281.77,230.22L281.77,230.22L281.78,230.22L282.34,231.46L282.36,229.71L282.36,229.65L282.92,175.29L283.11,204.91L283.12,205.01L283.51,265.96L283.87,243.09L283.88,243.05L284.63,229.27L284.63,229.27L284.64,229.27L284.71,225.37L284.71,225.28L285.26,147.86L285.46,169.21L285.47,169.28L286.22,209.89L286.22,209.89L286.23,209.89L286.44,210.85L286.44,210.93L287.02,284.33L287.19,271.89L287.2,271.84L287.95,201.08L287.96,201L288.19,173.33L288.71,248.25L288.72,248.34L289.36,283.61L289.47,279.74L289.48,279.72L290.23,246.58L290.24,246.54L290.53,228.83L290.99,269.84L291,269.9L291.11,279.94L291.75,236.18L291.75,236.18L291.76,236.17L292.28,231.84L292.37,238.27L292.37,238.32L293.12,297.4L293.13,297.46L293.45,324.24L293.88,273.2L293.89,273.12L294.03,255.55L294.64,267.59L294.65,267.62L295.2,291.33L295.4,288.32L295.41,288.31L297.35,257.99L297.35,257.96L297.54,249.46L298.1,277.42L298.11,277.45L298.13,278.58L298.86,211.21L298.87,211.2L299.3,206.27L299.37,214.88L299.37,214.95L299.88,274.14L300.12,257.8L300.13,257.76L300.47,234.66L300.88,259.13L300.89,259.17L301.05,268.94L301.64,267.64L301.65,267.65L302.22,281.11L302.4,251.63L302.41,251.53L302.81,186.99L303.16,218.7L303.17,218.75L303.39,238.75L303.92,230.05L303.93,230.04L304.68,211.28L304.69,211.27L305.44,190.35L305.45,190.32L305.73,177.97L306.2,263.23L306.21,263.35L306.32,283.07L306.96,246.45L306.97,246.41L307.48,217.82L307.72,220.05L307.73,220.05L308.18,236.11L308.18,236.18L308.65,291.38L308.93,247.03L308.94,246.93L309.24,198.76L309.69,240.2L309.7,240.26L309.82,251.96L310.41,194.46L310.45,202.62L310.46,202.74L310.99,297.98L311.21,262.14L311.22,262.04L311.58,203.12L311.97,230.88L311.98,230.92L312.16,244.07L312.73,190.69L312.74,190.63L312.75,189.41L313.33,248.22L313.49,232.79L313.5,232.73L314.25,160.79L314.26,160.73L314.5,137.54L315.01,191.09L315.02,191.16L315.09,198.71L315.67,178.13L315.77,179.7L315.78,179.71L316.26,187.1L316.47,179.1L316.47,179.08L317.22,131.31L317.23,131.26L317.43,113.79L317.98,214.38L317.99,214.5L318.01,219.18L318.74,187.47L318.75,187.42L319.18,152.21L319.5,169.05L319.51,169.09L319.77,182.69L320.26,151.2L320.27,151.16L320.94,138.81L321.02,154.86L321.03,154.98L321.52,243.59L321.78,190.53L321.79,190.4L322.54,110.61L322.55,110.58L322.69,105.46L323.27,143.43L323.3,141.72L323.31,141.69L323.86,110.81L324.06,134.32L324.07,134.4L324.82,178.69L324.83,178.69L325.03,179.17L325.2,177.68L325.2,177.68L325.2,177.67L326.54,162.94L326.54,162.92L326.79,157.1L327.39,159.16L327.4,159.18L328.15,188.44L328.16,188.5L328.54,225.09L328.91,187.92L328.92,187.86L329.12,167.55L329.67,169.4L329.68,169.4L329.78,173.98L329.78,174.02L330.29,206.44L330.53,196.18L330.54,196.15L330.88,181.8L331.29,192.49L331.3,192.51L332.05,200.93L332.05,199.97L332.06,199.89L332.63,134.16L332.81,159.18L332.82,159.27L333.22,213.78L333.57,181.9L333.58,181.84L333.8,161.82L334.33,183.33L334.34,183.36L334.39,185.38L334.97,164.07L335.09,167.08L335.1,167.09L335.85,185.45L335.86,185.46L336.61,208.13L336.62,208.15L337.37,218.2L337.38,218.26L337.89,270.44L338.13,244.4L338.14,244.33L338.48,207.1L338.89,208.49L338.9,208.49L339.06,209.06L339.11,206.39L339.11,206.35L339.65,173.24L339.86,183.51L339.87,183.54L340.23,201L340.62,182.4L340.63,182.37L340.82,173.19L341.38,244.2L341.39,244.29L341.4,246.48L342.14,239.4L342.14,239.4L342.15,239.39L342.57,235.53L342.65,243.13L342.65,243.19L343.16,294.46L343.4,276.58L343.41,276.54L344.16,239.37L344.17,239.35L344.91,199.26L344.92,200.21L344.93,200.26L345.5,241.85L345.68,235.01L345.69,234.98L346.08,220.57L346.44,237.7L346.45,237.73L347.2,250.09L347.2,250.09L347.21,250.09L347.84,251.97L347.88,249.72L347.88,249.69L348.42,222.63L348.63,246.82L348.64,246.9L349.01,288.56L349.39,265.43L349.4,265.39L350.15,240.36L350.16,240.34L350.76,178.51L350.91,192.54L350.92,192.6L351.67,240.16L351.68,240.18L352.43,273.96L352.44,274L352.51,278.18L353.1,195.26L353.19,213.34L353.2,213.46L353.68,305.89L353.95,289.62L353.96,289.58L354.71,265.19L354.72,265.18L354.85,263.45L355,272.1L355.01,272.14L355.44,296.8L355.76,274.74L355.77,274.7L356.52,212.67L356.53,212.61L356.61,205.26L357.28,239.63L357.29,239.66L358.04,266.74L358.05,266.75L358.36,275.16L358.8,259.71L358.81,259.69L358.95,254.73L359.56,272.1L359.57,272.12L360.12,288.75L360.32,256.64L360.33,256.54L360.7,198.66L361.08,225.5L361.09,225.55L361.84,242.43L361.84,242.43L361.85,242.43L362.12,236.95L362.12,236.94L363.04,226.6L363.25,228.63L363.26,228.64L363.63,232.12L364.09,229.96L364.1,229.95L364.28,225.29L364.28,225.25L364.79,194.94L365.03,214.15L365.04,214.2L365.79,280.32L365.8,280.38L365.96,296.07L366.55,235.71L366.56,235.69L367.13,217.49L367.31,224.61L367.32,224.64L368.07,250.46L368.08,250.47L368.3,256.83L368.83,169.98L368.84,169.87L368.89,161.15L369.59,201.16L369.6,201.17L370.06,209.72L370.35,200.56L370.36,200.54L370.64,191.69L371.11,191.78L371.12,191.78L371.24,193.09L371.24,193.15L371.81,244.16L371.99,211.83L372,211.72L372.4,140.66L372.75,198.47L372.76,198.57L372.98,235.27L373.51,226.74L373.52,226.73L374.05,207.52L374.05,207.49L374.23,191.68L374.23,191.58L374.74,115.94L374.98,149.52L374.99,149.61L375.32,195.08L375.74,178.01L375.75,177.99L375.91,171.54L376.5,175L376.51,175.01L377.08,184.35L377.21,175.17L377.21,175.13L377.66,143.73L377.96,157.3L377.97,157.33L378.25,169.82L378.72,150.91L378.73,150.89L379.41,134.05L379.48,139.19L379.49,139.24L380,176.96L380.24,173.29L380.25,173.28L380.58,168.24L381,220.56L381.01,220.64L381.75,241.74L381.76,240.63L381.77,240.56L382.34,182.65L382.52,195.98L382.53,196.03L382.92,224.66L383.28,216.89L383.29,216.87L384.04,148.83L384.05,148.76L384.09,143.17L384.8,177.38L384.81,177.4L385.56,210.74L385.57,210.78L385.85,228.3L386.32,195.87L386.33,195.83L387.02,130.72L387.08,138.38L387.09,138.45L387.84,213.74L387.85,213.78L388.19,237.22L388.6,226.06L388.61,226.04L389.36,172.39L389.36,172.39L389.37,172.39L389.94,171.65L389.95,172.8L389.95,172.87L390.53,236.37L390.7,226.01L390.71,225.98L391.11,202.52L391.46,223.24L391.47,223.27L391.7,236.75L392.22,222.26L392.23,222.24L392.86,132.32L392.98,143.35L392.99,143.41L393.74,222.55L393.75,222.63L394.03,258.18L394.5,213.05L394.51,212.99L394.62,202.08L395.2,216.54L395.26,212.73L395.27,212.69L395.79,179.66L396.02,189.34L396.03,189.37L396.78,209.62L396.79,209.63L397.75,229.3L397.75,229.35L398,246.37L398,246.42L398.13,255.24L398.75,214.2L398.76,214.16L399.3,184.28L399.51,197.41L399.52,197.44L399.88,219.62L400.27,207.88L400.28,207.87L400.47,202.12L401.03,216.87L401.04,216.89L401.79,265.01L401.8,265.11L402.22,327.85L402.55,255.29L402.56,255.15L402.81,200.53L403.31,226.95L403.32,226.98L403.39,230.93L403.98,222.47L404.07,230.06L404.08,230.11L404.83,283.29L404.84,283.32L405.15,301.26L405.59,255.6L405.6,255.54L406.35,232.08L406.36,232.06L406.9,211.94L407.11,231.66L407.12,231.72L407.87,303.82L407.88,303.88L408.07,322.86L408.63,240.87L408.64,240.78L409.24,235.41L409.39,240.04L409.4,240.06L410.15,253.72L410.15,253.72L410.16,253.72L410.42,256.72L410.42,256.83L410.99,354.95L411.17,328.13L411.18,328.03L411.93,244.16L411.94,244.11L412.16,228.59L412.69,253.64L412.7,253.67L413.45,257.24L413.46,257.25L414.21,290.47L414.22,290.52L414.5,314.03L414.97,228.61L414.98,228.49L415.67,201.05L415.73,206.59L415.74,206.64L416.26,252.28L416.49,235.04L416.5,234.99L417.25,174.91L417.26,174.86L417.43,160.39L418.01,252.87L418.02,252.9L418.6,282.73L418.77,257.16L418.78,257.07L419.18,198.99L419.53,235.18L419.54,235.25L419.77,258.72L420.29,192.25L420.3,192.17L420.35,185.32L420.93,213.16L421.05,207.38L421.06,207.35L421.52,184.84L421.81,203.02L421.82,203.06L422.1,220.86L422.57,200.06L422.58,200.03L423.33,188.54L423.34,188.49L423.86,150.89L424.09,161.73L424.1,161.76L424.85,206.48L424.86,206.53L425.03,218.66L425.61,149.81L425.61,149.91L425.62,149.96L426.2,195.56L426.37,194.23L426.38,194.22L426.82,185.26L426.82,185.16L427.37,97.83L427.57,106.25L427.58,106.28L428.33,139.6L428.34,139.63L429.09,150.47L429.09,150.47L429.1,150.47L429.57,146.69L429.57,146.68L429.71,145.57L429.81,150.4L429.82,150.43L430.29,171.82L430.57,145.52L430.58,145.46L431.33,116.41L431.34,116.41L431.7,113.7L431.7,113.69L432.05,110.18L432.32,115.57L432.33,115.59L432.63,121.57L433.08,72.6L433.09,72.53L433.22,58.46L433.8,114.91L433.84,114.86L433.85,114.86L434.4,113.17L434.4,113.11L434.97,63.96L435.15,70.44L435.16,70.47L435.91,108.03L435.92,108.07L436.14,122.72L436.67,42.3L436.68,42.2L436.72,34.79L437.43,122.13L437.44,122.14L437.89,130.51L438.19,114.89L438.2,114.86L438.95,92.69L438.96,92.68L439.71,44.16L439.72,44.12L440.23,10.47L440.47,56.74L440.48,56.87L441.23,126.73L441.24,126.74L441.4,128.48L441.6,120.93L441.6,120.91L442.04,103.06L442.04,103.02L442.57,67.43L442.79,86.86L442.8,86.91L443.16,118.66L443.55,114.92L443.56,114.92L444.33,93.33L444.51,101.71L444.52,101.74L444.91,119.51L445.27,95.68L445.28,95.64L445.5,81.19L446.03,201.37L446.04,201.51L446.08,211.83L446.67,115.89L446.79,116.92L446.8,116.92L447.4,134.11L447.4,134.17L447.84,174.54L448.15,166.91L448.16,166.9L448.42,160.6L448.91,199.83L448.92,199.88L449.01,207L449.59,170.36L449.67,174.05L449.68,174.08L450.17,195.99L450.43,172.87L450.44,172.81L450.76,143.99L451.19,147.39L451.2,147.4L451.46,161.51L451.46,161.58L451.93,212.95L452.21,206.23L452.22,206.21L452.97,176.67L452.98,176.64L453.1,170.6L453.73,197.15L453.74,197.16L454.27,205.21L454.35,195.26L454.35,195.18L454.85,135.16L455.1,165.56L455.11,165.64L455.44,205.82L455.86,195.83L455.87,195.82L456.02,192.12L456.61,241.16L456.62,240.87L456.63,240.86L457.19,231.69L457.39,239.93L457.39,239.96L457.78,256.16L458.14,216.76L458.15,216.69L458.36,193.47L458.9,217.81L458.91,217.84L459.53,297.15L459.66,280.31L459.67,280.23L460.12,223.11L460.42,249.78L460.43,249.83L460.7,273.56L461.18,259.41L461.19,259.39L461.29,256.42L461.94,283.22L461.95,283.28L462.7,331.5L462.71,331.51L463.04,336.35L463.12,326.51L463.12,326.44L463.24,312.55L463.24,312.47L463.99,227.93L464,227.86L464.21,204.79L464.75,304.38L464.76,304.5L464.79,311.61L465.51,260.45L465.52,260.42L465.96,239.23L466.27,250.68L466.28,250.7L467.03,265.79L467.03,265.79L467.04,265.8L467.13,266.79L467.38,259.79L467.39,259.78L468.14,239.24L468.15,239.23L468.3,235.06L468.9,262.92L468.9,262.92L468.91,262.93L469.47,264.33L469.53,262.43L469.53,262.41L470.28,239.8L470.29,239.78L471.04,218.16L471.05,218.14L471.23,211.27L471.8,220.15L471.81,220.16L472.4,234.16L472.56,227.95L472.57,227.93L472.98,212.4L473.32,245.28L473.33,245.34L473.57,268.39L474.08,200.89L474.09,200.81L474.15,192.15L474.74,262.99L474.84,252.53L474.85,252.46L475.6,203.37L475.61,203.36L475.91,199.99L476.03,208.27L476.03,208.31L476.49,240.41L476.78,218.69L476.79,218.64L477.08,197.22L477.54,222.66L477.55,222.69L477.66,228.92L478.3,199.23L478.31,199.21L478.83,184.22L479.06,185.18L479.07,185.19L479.47,190.67L479.47,190.72L480,228.61L480.22,203.21L480.23,203.13L480.58,162.73L480.98,175.83L480.99,175.85L481.74,239.87L481.75,239.93L481.75,240.78L482.34,145.51L482.5,157.9L482.51,157.94L482.92,189.08L483.26,151L483.27,150.93L483.51,123.94L484.02,206.48L484.03,206.58L484.09,217.39L484.78,129.96L484.79,129.91L485.26,91.02L485.54,94.58L485.55,94.59L486.67,115.67L486.67,115.71L487.02,137.07L487.42,67.94L487.43,67.83L487.6,38.03L488.18,159.65L488.19,159.79L488.19,160.06L488.94,113.17L488.95,113.1L489.36,72.29L489.7,77.18L489.71,77.19L491.11,108.45L491.35,101.36L491.35,101.34L491.7,91.45L492.05,97.29L492.06,97.3L492.28,101.02L492.81,58.57L492.82,58.52L493.45,26.46L493.57,34.85L493.58,34.9L494.33,86.73L494.34,86.77L494.62,106.71L495.09,71.91L495.1,71.86L495.2,63.95L495.79,135.65L495.85,132.32L495.86,132.29L496.61,88.11L496.62,88.06L496.96,62.09L497.37,82.31L497.38,82.34L497.54,90.53L498.13,79.24L498.13,79.99L498.14,80.06L498.71,141.4L498.89,131.96L498.9,131.93L499.65,84.71L499.66,84.66L499.88,67.93L500.41,147.61L500.42,147.71L500.47,155.51L501.05,76.75L501.17,78.63L501.18,78.64L501.64,85.81L502.07,81.16L502.08,81.16L502.22,79.64L502.34,88.46L502.34,88.51L502.61,107.89L502.61,107.94L502.84,126.57L502.84,126.66L503.39,201.53L503.59,173.63L503.6,173.54L504.35,113.5L504.36,113.48L504.56,109.25L505.11,136.28L505.12,136.31L505.87,178.42L505.88,178.44L506.63,222.99L506.64,223.04L506.9,244.09L507.39,138.86L507.4,138.72L507.48,119.81L508.15,187.15L508.16,187.18L508.65,209.18L508.91,178.17L508.92,178.09L509.24,139.57L509.67,167.24L509.68,167.28L509.82,176.67L510.41,148.85L510.43,149.62L510.44,149.64L511.19,187.08L511.2,187.14L511.95,231.31L511.96,231.32L512.75,244.11L512.92,235.49L512.92,235.46L513.33,213.99L513.67,263.26L513.68,263.36L513.92,298.09L514.43,236.01L514.44,235.93L515.19,225.56L515.2,225.54L515.95,193.21L515.96,193.17L516.26,174.07L516.71,239.49L516.72,239.58L517.43,264.93L517.47,257.95L517.48,257.86L518.01,181.09L518.23,213.63L518.24,213.73L518.99,270.9L519,270.91L519.18,273.07L519.32,264.51L519.32,264.47L519.77,236.79L520.07,244.4L520.08,244.42L520.35,251.1L520.83,243.68L520.84,243.67L520.93,242.12L521.03,251.86L521.03,251.92L521.52,301.97L521.78,262.19L521.79,262.09L522.1,214.12L522.54,239.76L522.55,239.8L523.27,265.32L523.3,263.16L523.31,263.11L523.86,223.78L524.06,243.56L524.07,243.63L524.44,279.83L524.82,250.9L524.83,250.85L525.58,229.59L525.59,229.59L525.61,229.29L525.97,235.1L525.97,235.11L526.78,243.87L526.86,237.51L526.86,237.45L527.37,192.59L527.61,194.15L527.62,194.16L528.56,206.36L528.56,206.46L529.12,290.67L529.31,267.05L529.32,266.97L529.71,219.03L530.07,262.33L530.08,262.41L530.29,287.84L530.83,246.67L530.84,246.62L531.46,167.37L531.59,170.73L531.6,170.75L532.05,182L532.35,169.07L532.36,169.04L532.63,157.46L533.11,200.49L533.12,200.55L533.22,209.43L533.8,193.01L533.87,194.61L533.88,194.62L534.39,205.54L534.63,192.48L534.64,192.44L534.97,174.9L535.39,215.46L535.4,215.52L535.55,230.71L536.14,105.25L536.15,106.49L536.16,106.54L536.91,164.92L536.92,164.96L537.31,188.51L537.67,148.26L537.68,148.19L537.89,124.17L538.43,136.28L538.44,136.29L539.06,149.72L539.19,148.86L539.2,148.85L539.65,145.94L539.79,150.05L539.79,150.07L540.54,173.88L540.55,173.9L540.82,183.13L541.3,152.18L541.31,152.14L541.99,59.54L542.06,70.54L542.07,70.64L542.57,142.85L542.82,129.38L542.83,129.34L543.58,111.31L543.58,111.31L543.59,111.31L543.76,110.21L543.76,110.16L544.33,71.21L544.51,100.15L544.52,100.25L544.91,161.43L545.27,122.12L545.28,122.05L545.5,98.2L546.03,123.86L546.04,123.89L546.08,126.07L546.67,113.45L546.79,115.2L546.8,115.21L547.25,121.55L547.38,112.8L547.39,112.76L548.14,62.28L548.15,62.24L548.42,43.49L548.9,67.39L548.91,67.42L549.66,80.64L549.67,80.71L550.17,130.16L550.42,112.07L550.43,112.02L550.76,87.98L551.18,122.7L551.19,122.76L551.93,152.37L551.94,149.69L551.95,149.58L552.7,48.5L552.71,48.49L553.1,41.22L553.46,95.62L553.47,95.72L553.68,128.09L554.22,116.07L554.23,116.05L554.85,101.97L554.98,107.84L554.99,107.87L555.44,128.14L555.74,113.17L555.75,113.13L556.5,86.36L556.51,86.34L556.61,83.55L557.19,137.11L557.26,135.31L557.27,135.29L558.02,120L558.03,120L558.65,100.79L558.65,100.76L558.95,85.12L559.15,94.33L559.16,94.36L559.91,148.91L559.92,148.98L560.12,168.81L560.67,112.37L560.68,112.3L560.7,109.75L561.29,200.21L561.43,177.94L561.44,177.84L561.87,112.74L562.19,146.05L562.2,146.12L562.46,172.84L562.95,126.9L562.96,126.84L563.04,119.08L563.71,132.33L563.72,132.37L564.47,178.03L564.48,178.07L564.79,195.52L565.23,163.89L565.24,163.84L565.96,102.47L565.99,110.91L566,111.08L566.55,263.87L566.75,243.58L566.76,243.52L567.51,168.07L567.52,168.01L567.72,147.61L568.27,221.98L568.28,222.06L569.03,233.47L569.04,233.51L569.47,257.43L569.79,235.9L569.8,235.86L570.55,204.51L570.56,204.49L570.64,202.06L571.23,232.74L571.31,231.67L571.32,231.67L572.4,220.44L572.43,226.01L572.44,226.11L572.98,306.76L573.19,296.52L573.2,296.48L573.95,262.97L573.96,262.94L574.15,255.04L574.71,340.94L574.72,341.04L574.74,344.2L575.32,279.24L575.47,284.02L575.48,284.04L575.91,297.25L576.23,272.68L576.24,272.63L576.49,253.55L576.99,262.49L577,262.5L577.08,263.89L577.66,248.3L577.75,250.76L577.76,250.78L578.24,263.31" style="vector-effect: non-scaling-stroke; fill: none; stroke: rgb(0, 154, 250); stroke-opacity: 0.6; stroke-width: 3px; opacity: 1; stroke-dasharray: 3px, 3px;"/></g><g class="points"/><g class="text"/></g><g class="trace scatter trace8306e9" style="stroke-miterlimit: 2; opacity: 1;"><g class="fills"/><g class="errorbars"/><g class="lines"><path class="js-line" d="M16.84,260.26L19.18,258.82L21.52,283.65L23.86,216L26.2,246.62L33.22,188.43L35.56,155.38L37.9,135.09L40.23,127.78L42.57,129.72L44.91,90.04L47.25,104.4L49.59,91.27L51.93,126.87L54.27,140.86L56.61,131.7L58.95,161.05L61.29,174.67L63.63,240.3L65.97,258.53L68.3,254.71L70.64,274.89L72.98,249.6L75.32,237.93L77.66,274.2L80,257.21L82.34,263.79L84.68,235.09L87.02,243.72L89.36,282.57L91.7,252.83L94.04,205.56L96.37,272.45L98.71,290.56L101.05,255.85L103.39,284.7L105.73,259.06L108.07,257.26L110.41,284.8L115.09,260.63L117.43,258.44L119.77,231.63L122.11,284.47L124.44,265.49L126.78,268.34L131.46,272.78L133.8,247.74L136.14,277.11L138.48,286.65L140.82,288.31L143.16,269.8L145.5,272.72L147.84,242.41L152.52,267.72L154.85,268.72L157.19,271.71L159.53,229.42L161.87,266.69L164.21,258.14L166.55,260.17L168.89,291.51L171.23,269.51L173.57,259.75L175.91,234.74L178.25,275.5L180.59,235.79L182.92,281.35L185.26,243.45L187.6,259.19L189.94,262.59L192.28,274.24L194.62,256.44L196.96,256.91L199.3,257.96L201.64,253.14L203.98,244.51L206.32,246.06L208.66,268.72L210.99,245.07L213.33,231.53L215.67,247.19L218.01,241.28L220.35,250.4L222.69,240.87L225.03,260.23L227.37,257.31L229.71,233.59L232.05,287.29L234.39,254.63L236.73,283.95L239.06,271.91L241.4,274.28L243.74,237.77L246.08,245.68L248.42,259.37L250.76,249.31L253.1,278.26L257.78,317.53L260.12,282.08L262.46,294.95L264.8,284.45L267.13,303.03L269.47,285.14L271.81,342.01L274.15,308.12L276.49,285.89L278.83,322.55L281.17,280.95L283.51,306.2L285.85,277.96L288.19,280.53L290.53,282.81L292.87,267.81L295.2,289.86L297.54,278.48L299.88,243.47L302.22,281.05L304.56,249.98L306.9,254.55L309.24,277.01L311.58,283.25L313.92,278.04L316.26,246.81L318.6,255.68L320.94,255.24L323.27,253.08L325.61,257.72L327.95,264.13L330.29,282.35L332.63,275.01L334.97,255.33L337.31,258.72L339.65,273.07L341.99,246.89L344.33,281.86L346.67,240.75L349.01,253.47L351.35,231.23L353.68,241.7L356.02,291.79L358.36,257.13L360.7,283.64L363.04,258.15L365.38,257.57L367.72,292.44L370.06,267.19L372.4,270.07L374.74,279.25L377.08,262.61L379.42,249.57L381.75,289.06L384.09,295.64L386.43,276.96L391.11,269.13L393.45,257.4L395.79,266.17L398.13,253.46L400.47,244.92L402.81,272.39L405.15,262.24L407.49,256.92L412.16,290.35L414.5,267.36L416.84,242.34L419.18,244.15L421.52,240.1L423.86,231.57L426.2,227.5L428.54,203.48L430.88,216.88L433.22,181.97L435.56,167.51L437.89,172.7L440.23,152.03L442.57,170.47L444.91,172.18L447.25,195.11L449.59,229.18L451.93,220.76L454.27,237.06L456.61,224.16L463.63,312.7L465.96,265.66L468.3,254.63L470.64,258.84L472.98,241.15L475.32,266.77L477.66,264.12L480,268.92L482.34,281.5L484.68,276.36L487.02,234.18L489.36,251.93L491.7,248.83L494.03,228.14L496.37,261.51L498.71,246.24L501.05,256.21L503.39,235.44L505.73,248.43L508.07,274.14L510.41,241.74L512.75,254.59L515.09,274.14L517.43,236.55L519.77,245.49L522.11,251.38L524.44,245.77L526.78,255.77L529.12,238.3L531.46,280.08L533.8,231.85L536.14,256.94L538.48,233.72L540.82,263.31L543.16,253.78L545.5,260.52L547.84,274.91L550.18,243.35L552.51,286.85L554.85,254.79L557.19,260.97L559.53,249.54L561.87,266.06L564.21,236.87L566.55,243.38L568.89,263.97L571.23,267.89L573.57,279.58L575.91,308.37" style="vector-effect: non-scaling-stroke; fill: none; stroke: rgb(227, 111, 71); stroke-opacity: 1; stroke-width: 3px; opacity: 1; stroke-dasharray: 9px, 9px;"/></g><g class="points"/><g class="text"/></g><g class="trace scatter tracef36285" style="stroke-miterlimit: 2; opacity: 1;"><g class="fills"/><g class="errorbars"/><g class="lines"><path class="js-line" d="M16.84,260.26L70.64,260.26L72.98,262.07L75.32,259.09L77.66,253.42L80,244.69L82.34,232.94L87.02,200.97L89.36,181.9L96.37,128.52L98.71,116.32L101.05,108.56L103.39,106.12L105.73,109.44L108.07,118.29L112.75,149.67L115.09,170.65L122.11,235.17L124.44,249.75L126.78,259.15L129.12,255.8L131.46,251.45L133.8,244.83L138.48,222.39L140.82,207.05L150.18,141.39L152.52,130.44L154.85,123.21L157.19,119.49L159.53,119.48L161.87,123.58L164.21,131.96L166.55,144.15L171.23,176.2L173.57,194.37L180.59,244.02L182.92,254.12L185.26,260.85L187.6,257.46L189.94,251.88L192.28,243.67L196.96,217.17L199.3,199.24L206.32,145.86L208.66,133.67L210.99,125.37L213.33,121.21L215.67,121.7L218.01,127.15L220.35,137.08L222.69,150.29L236.73,237.92L239.06,248.34L241.4,257.55L243.74,254.1L246.08,248.27L248.42,239.17L253.1,210.64L255.44,192.63L262.46,139.08L264.8,125.5L267.13,115.56L269.47,110.19L271.81,110.08L274.15,115.29L276.49,125.3L278.83,139.25L285.85,193.71L288.19,212.31L292.87,242.6L295.2,252.5L297.54,252.62L299.88,247.42L306.9,229.31L309.24,221.98L313.92,201.78L316.26,189.29L320.94,167.46L323.27,161.32L325.61,159.26L327.95,160.89L330.29,165.58L332.63,172.96L337.31,194.36L339.65,207.09L346.67,243.89L349.01,252.92L351.35,259.19L353.68,255.5L358.36,246.26L360.7,240.33L365.38,225.32L367.72,215.22L377.08,170.4L379.42,165.55L381.75,164.8L384.09,167.71L388.77,180.69L391.11,189.29L402.81,234.96L405.15,241.42L407.49,247.05L409.82,258.27L412.16,256.26L414.5,252.77L419.18,240.52L421.52,232.21L430.88,193.7L433.22,187.22L435.56,183.97L437.89,183.83L440.23,185.81L442.57,188.92L447.25,197.4L449.59,202.96L454.27,216.93L456.61,225.05L463.63,247.92L465.96,265.72L468.3,261.27L470.64,252.96L475.32,226.36L477.66,209.55L489.36,116.62L491.7,104.21L494.03,97.34L496.37,96.88L498.71,102.99L501.05,114.98L505.73,150.58L508.07,170.86L517.43,246.1L519.77,257.61L522.11,259.44L524.44,254.56L529.12,237.5L531.46,225.39L536.14,193.19L538.48,173.12L545.5,111.79L547.84,98.24L550.18,90.89L552.51,90.19L554.85,95.81L557.19,106.97L561.87,141.82L564.21,162.54L571.23,219.47L573.57,233.41L575.91,244.33" style="vector-effect: non-scaling-stroke; fill: none; stroke: rgb(0, 0, 0); stroke-opacity: 1; stroke-width: 3px; opacity: 1;"/></g><g class="points"/><g class="text"/></g></g></g><g class="overplot"/><path class="xlines-above crisp" d="M80.94736074657334,413.13998250218725H677.0341207349081" style="fill: none; stroke-width: 1px; stroke: rgb(0, 0, 0); stroke-opacity: 1;"/><path class="ylines-above crisp" d="M81.44736074657334,42.63779527559056V412.63998250218725" style="fill: none; stroke-width: 1px; stroke: rgb(0, 0, 0); stroke-opacity: 1;"/><g class="overlines-above"/><g class="xaxislayer-above"><path class="xtick ticks crisp" d="M0,412.63998250218725v-5" transform="translate(98.78736074657334,0)" style="stroke: rgb(0, 0, 0); stroke-opacity: 1; stroke-width: 1px;"/><path class="xtick ticks crisp" d="M0,412.63998250218725v-5" transform="translate(154.92736074657336,0)" style="stroke: rgb(0, 0, 0); stroke-opacity: 1; stroke-width: 1px;"/><path class="xtick ticks crisp" d="M0,412.63998250218725v-5" transform="translate(211.06736074657334,0)" style="stroke: rgb(0, 0, 0); stroke-opacity: 1; stroke-width: 1px;"/><path class="xtick ticks crisp" d="M0,412.63998250218725v-5" transform="translate(267.20736074657333,0)" style="stroke: rgb(0, 0, 0); stroke-opacity: 1; stroke-width: 1px;"/><path class="xtick ticks crisp" d="M0,412.63998250218725v-5" transform="translate(323.3473607465734,0)" style="stroke: rgb(0, 0, 0); stroke-opacity: 1; stroke-width: 1px;"/><path class="xtick ticks crisp" d="M0,412.63998250218725v-5" transform="translate(379.48736074657336,0)" style="stroke: rgb(0, 0, 0); stroke-opacity: 1; stroke-width: 1px;"/><path class="xtick ticks crisp" d="M0,412.63998250218725v-5" transform="translate(435.62736074657334,0)" style="stroke: rgb(0, 0, 0); stroke-opacity: 1; stroke-width: 1px;"/><path class="xtick ticks crisp" d="M0,412.63998250218725v-5" transform="translate(491.76736074657333,0)" style="stroke: rgb(0, 0, 0); stroke-opacity: 1; stroke-width: 1px;"/><path class="xtick ticks crisp" d="M0,412.63998250218725v-5" transform="translate(547.9073607465733,0)" style="stroke: rgb(0, 0, 0); stroke-opacity: 1; stroke-width: 1px;"/><path class="xtick ticks crisp" d="M0,412.63998250218725v-5" transform="translate(604.0473607465733,0)" style="stroke: rgb(0, 0, 0); stroke-opacity: 1; stroke-width: 1px;"/><path class="xtick ticks crisp" d="M0,412.63998250218725v-5" transform="translate(660.1873607465734,0)" style="stroke: rgb(0, 0, 0); stroke-opacity: 1; stroke-width: 1px;"/><g class="xtick"><text text-anchor="middle" x="0" y="437.63998250218725" transform="translate(98.78736074657334,0)" style="font-family: sans-serif; font-size: 20px; fill: rgb(0, 0, 0); fill-opacity: 1; white-space: pre;">0</text></g><g class="xtick"><text text-anchor="middle" x="0" y="437.63998250218725" transform="translate(154.92736074657336,0)" style="font-family: sans-serif; font-size: 20px; fill: rgb(0, 0, 0); fill-opacity: 1; white-space: pre;">1</text></g><g class="xtick"><text text-anchor="middle" x="0" y="437.63998250218725" transform="translate(211.06736074657334,0)" style="font-family: sans-serif; font-size: 20px; fill: rgb(0, 0, 0); fill-opacity: 1; white-space: pre;">2</text></g><g class="xtick"><text text-anchor="middle" x="0" y="437.63998250218725" transform="translate(267.20736074657333,0)" style="font-family: sans-serif; font-size: 20px; fill: rgb(0, 0, 0); fill-opacity: 1; white-space: pre;">3</text></g><g class="xtick"><text text-anchor="middle" x="0" y="437.63998250218725" transform="translate(323.3473607465734,0)" style="font-family: sans-serif; font-size: 20px; fill: rgb(0, 0, 0); fill-opacity: 1; white-space: pre;">4</text></g><g class="xtick"><text text-anchor="middle" x="0" y="437.63998250218725" transform="translate(379.48736074657336,0)" style="font-family: sans-serif; font-size: 20px; fill: rgb(0, 0, 0); fill-opacity: 1; white-space: pre;">5</text></g><g class="xtick"><text text-anchor="middle" x="0" y="437.63998250218725" transform="translate(435.62736074657334,0)" style="font-family: sans-serif; font-size: 20px; fill: rgb(0, 0, 0); fill-opacity: 1; white-space: pre;">6</text></g><g class="xtick"><text text-anchor="middle" x="0" y="437.63998250218725" transform="translate(491.76736074657333,0)" style="font-family: sans-serif; font-size: 20px; fill: rgb(0, 0, 0); fill-opacity: 1; white-space: pre;">7</text></g><g class="xtick"><text text-anchor="middle" x="0" y="437.63998250218725" transform="translate(547.9073607465733,0)" style="font-family: sans-serif; font-size: 20px; fill: rgb(0, 0, 0); fill-opacity: 1; white-space: pre;">8</text></g><g class="xtick"><text text-anchor="middle" x="0" y="437.63998250218725" transform="translate(604.0473607465733,0)" style="font-family: sans-serif; font-size: 20px; fill: rgb(0, 0, 0); fill-opacity: 1; white-space: pre;">9</text></g><g class="xtick"><text text-anchor="middle" x="0" y="437.63998250218725" transform="translate(660.1873607465734,0)" style="font-family: sans-serif; font-size: 20px; fill: rgb(0, 0, 0); fill-opacity: 1; white-space: pre;">10</text></g></g><g class="yaxislayer-above"><path class="ytick ticks crisp" d="M81.94736074657334,0h5" transform="translate(0,389.1377952755906)" style="stroke: rgb(0, 0, 0); stroke-opacity: 1; stroke-width: 1px;"/><path class="ytick ticks crisp" d="M81.94736074657334,0h5" transform="translate(0,302.89779527559057)" style="stroke: rgb(0, 0, 0); stroke-opacity: 1; stroke-width: 1px;"/><path class="ytick ticks crisp" d="M81.94736074657334,0h5" transform="translate(0,216.64779527559057)" style="stroke: rgb(0, 0, 0); stroke-opacity: 1; stroke-width: 1px;"/><path class="ytick ticks crisp" d="M81.94736074657334,0h5" transform="translate(0,130.40779527559056)" style="stroke: rgb(0, 0, 0); stroke-opacity: 1; stroke-width: 1px;"/><path class="ytick ticks crisp" d="M81.94736074657334,0h5" transform="translate(0,44.167795275590564)" style="stroke: rgb(0, 0, 0); stroke-opacity: 1; stroke-width: 1px;"/><g class="ytick"><text text-anchor="end" x="76.94736074657334" y="7" transform="translate(0,389.1377952755906)" style="font-family: sans-serif; font-size: 20px; fill: rgb(0, 0, 0); fill-opacity: 1; white-space: pre;">-1</text></g><g class="ytick"><text text-anchor="end" x="76.94736074657334" y="7" transform="translate(0,302.89779527559057)" style="font-family: sans-serif; font-size: 20px; fill: rgb(0, 0, 0); fill-opacity: 1; white-space: pre;">0</text></g><g class="ytick"><text text-anchor="end" x="76.94736074657334" y="7" transform="translate(0,216.64779527559057)" style="font-family: sans-serif; font-size: 20px; fill: rgb(0, 0, 0); fill-opacity: 1; white-space: pre;">1</text></g><g class="ytick"><text text-anchor="end" x="76.94736074657334" y="7" transform="translate(0,130.40779527559056)" style="font-family: sans-serif; font-size: 20px; fill: rgb(0, 0, 0); fill-opacity: 1; white-space: pre;">2</text></g><g class="ytick"><text text-anchor="end" x="76.94736074657334" y="7" transform="translate(0,44.167795275590564)" style="font-family: sans-serif; font-size: 20px; fill: rgb(0, 0, 0); fill-opacity: 1; white-space: pre;">3</text></g></g><g class="overaxes-above"/></g></g><g class="polarlayer"/><g class="ternarylayer"/><g class="geolayer"/><g class="funnelarealayer"/><g class="pielayer"/><g class="treemaplayer"/><g class="sunburstlayer"/><g class="glimages"/><defs id="topdefs-7ffa28"><g class="clips"/></defs><g class="layer-above"><g class="imagelayer"/><g class="shapelayer"/></g><g class="infolayer"><g class="g-gtitle"/><g class="g-xtitle"><text class="xtitle" x="379.49074074074076" y="482.63998250218725" text-anchor="middle" style="font-family: sans-serif; font-size: 20px; fill: rgb(0, 0, 0); opacity: 1; font-weight: normal; white-space: pre;">days [c]</text></g><g class="g-ytitle"><text class="ytitle" transform="rotate(-90,31.947360746573338,227.6388888888889)" x="31.947360746573338" y="227.6388888888889" text-anchor="middle" style="font-family: sans-serif; font-size: 20px; fill: rgb(0, 0, 0); opacity: 1; font-weight: normal; white-space: pre;">normed power</text></g></g></svg>