<svg class="main-svg" xmlns="http://www.w3.org/2000/svg" xmlns:xlink="http://www.w3.org/1999/xlink" width="700" height="500" style="" viewBox="0 0 700 500"><rect x="0" y="0" width="700" height="500" style="fill: rgb(255, 255, 255); fill-opacity: 1;"/><defs id="defs-a504cb"><g class="clips"><clipPath id="clipa504cbxyplot" class="plotclip"><rect width="613.2349081364829" height="370.0021872265967"/></clipPath><clipPath class="axesclip" id="clipa504cbx"><rect x="63.79921259842519" y="0" width="613.2349081364829" height="500"/></clipPath><clipPath class="axesclip" id="clipa504cby"><rect x="0" y="42.63779527559056" width="700" height="370.0021872265967"/></clipPath><clipPath class="axesclip" id="clipa504cbxy"><rect x="63.79921259842519" y="42.63779527559056" width="613.2349081364829" height="370.0021872265967"/></clipPath></g><g class="gradients"/></defs><g class="bglayer"/><g class="layer-below"><g class="imagelayer"/><g class="shapelayer"/></g><g class="cartesianlayer"><g class="subplot xy"><g class="layer-subplot"><g class="shapelayer"/><g class="imagelayer"/></g><g class="gridlayer"><g class="x"><path class="xgrid crisp" transform="translate(81.1592125984252,0)" d="M0,42.63779527559056v370.0021872265967" style="stroke: rgb(0, 0, 0); stroke-opacity: 0.1; stroke-width: 0.5px;"/><path class="xgrid crisp" transform="translate(163.79921259842519,0)" d="M0,42.63779527559056v370.0021872265967" style="stroke: rgb(0, 0, 0); stroke-opacity: 0.1; stroke-width: 0.5px;"/><path class="xgrid crisp" transform="translate(246.4492125984252,0)" d="M0,42.63779527559056v370.0021872265967" style="stroke: rgb(0, 0, 0); stroke-opacity: 0.1; stroke-width: 0.5px;"/><path class="xgrid crisp" transform="translate(329.0892125984252,0)" d="M0,42.63779527559056v370.0021872265967" style="stroke: rgb(0, 0, 0); stroke-opacity: 0.1; stroke-width: 0.5px;"/><path class="xgrid crisp" transform="translate(411.7392125984252,0)" d="M0,42.63779527559056v370.0021872265967" style="stroke: rgb(0, 0, 0); stroke-opacity: 0.1; stroke-width: 0.5px;"/><path class="xgrid crisp" transform="translate(494.38921259842516,0)" d="M0,42.63779527559056v370.0021872265967" style="stroke: rgb(0, 0, 0); stroke-opacity: 0.1; stroke-width: 0.5px;"/><path class="xgrid crisp" transform="translate(577.0292125984253,0)" d="M0,42.63779527559056v370.0021872265967" style="stroke: rgb(0, 0, 0); stroke-opacity: 0.1; stroke-width: 0.5px;"/><path class="xgrid crisp" transform="translate(659.6792125984252,0)" d="M0,42.63779527559056v370.0021872265967" style="stroke: rgb(0, 0, 0); stroke-opacity: 0.1; stroke-width: 0.5px;"/></g><g class="y"><path class="ygrid crisp" transform="translate(0,398.09779527559056)" d="M63.79921259842519,0h613.2349081364829" style="stroke: rgb(0, 0, 0); stroke-opacity: 0.1; stroke-width: 0.5px;"/><path class="ygrid crisp" transform="translate(0,331.22779527559055)" d="M63.79921259842519,0h613.2349081364829" style="stroke: rgb(0, 0, 0); stroke-opacity: 0.1; stroke-width: 0.5px;"/><path class="ygrid crisp" transform="translate(0,264.35779527559055)" d="M63.79921259842519,0h613.2349081364829" style="stroke: rgb(0, 0, 0); stroke-opacity: 0.1; stroke-width: 0.5px;"/><path class="ygrid crisp" transform="translate(0,197.47779527559055)" d="M63.79921259842519,0h613.2349081364829" style="stroke: rgb(0, 0, 0); stroke-opacity: 0.1; stroke-width: 0.5px;"/><path class="ygrid crisp" transform="translate(0,130.60779527559055)" d="M63.79921259842519,0h613.2349081364829" style="stroke: rgb(0, 0, 0); stroke-opacity: 0.1; stroke-width: 0.5px;"/><path class="ygrid crisp" transform="translate(0,63.737795275590564)" d="M63.79921259842519,0h613.2349081364829" style="stroke: rgb(0, 0, 0); stroke-opacity: 0.1; stroke-width: 0.5px;"/></g></g><g class="zerolinelayer"/><path class="xlines-below"/><path class="ylines-below"/><g class="overlines-below"/><g class="xaxislayer-below"/><g class="yaxislayer-below"/><g class="overaxes-below"/><g class="plot" transform="translate(63.79921259842519,42.63779527559056)" clip-path="url('#clipa504cbxyplot')"><g class="scatterlayer mlayer"><g class="trace scatter trace748a2c" style="stroke-miterlimit: 2; opacity: 1;"><g class="fills"/><g class="errorbars"/><g class="lines"><path class="js-line" d="M17.36,340.78L17.53,327.83L17.59,348.44L18.11,340.02L18.12,340L18.62,351.12L18.85,332.66L18.87,337.32L18.88,337.49L18.96,352.77L19.54,330.31L19.63,342.17L19.64,341.99L19.82,351.54L20,327.91L20.39,333.84L20.4,333.79L20.63,329.23L20.67,340.97L20.67,341.27L21.03,350.9L21.26,319.35L21.42,337.11L21.43,337.05L21.49,332.33L21.83,353.65L22.18,351.33L22.19,351.39L22.23,354.1L22.52,319.01L22.94,337.29L22.95,337.4L23.04,320.17L23.1,357.85L23.7,342.9L23.71,342.8L24.01,329.86L24.36,350.86L24.46,347.53L24.47,347.61L24.47,348.21L24.64,330.48L25.22,337.22L25.23,337.15L25.33,349.94L25.51,329.28L25.98,336.26L25.99,336.31L26.31,328.69L26.42,356.78L26.74,338.71L26.75,338.84L26.83,351.82L27.4,325.28L27.5,343.14L27.51,343.3L27.63,330.16L27.86,354.34L28.26,340.35L28.27,340.47L28.72,321.75L28.95,349.31L29.02,333.65L29.03,333.58L29.06,330.84L29.12,346.36L29.78,338.77L29.79,338.64L30.1,332.35L30.33,356.82L30.54,344.35L30.55,344.41L30.9,354.19L30.96,327.03L31.3,338.75L31.31,338.66L31.59,353.25L32.05,328.3L32.05,330.73L32.06,331.14L32.22,356.28L32.79,329.86L32.81,330.21L32.82,330.22L33.08,346.27L33.23,336.34L33.23,336.22L33.31,342.17L33.77,315.39L33.98,337.69L33.99,337.83L34.06,348.82L34.74,325.07L34.75,324.8L35.03,347.28L35.5,332.15L35.51,332.25L35.78,354.33L35.84,321.36L36.26,336.04L36.27,335.9L36.3,331.37L36.87,341.83L37.02,334.8L37.03,334.68L37.1,345.13L37.5,330.9L37.78,337.58L37.79,337.54L38.25,325.03L38.42,344.86L38.54,337.42L38.55,337.36L38.76,340.58L38.94,329.32L39.3,336.36L39.31,336.33L39.8,328.09L40.03,341.27L40.06,328.49L40.07,328.17L40.08,322.1L40.82,342.5L40.83,342.69L40.83,343.42L41.52,284.92L41.58,290.49L41.59,290.62L41.75,309.83L42.32,242.95L42.34,244.6L42.35,244.66L42.44,231.57L42.49,252.85L43.1,249.24L43.11,249.35L43.18,255.03L43.75,185.28L43.86,194.87L43.87,194.8L43.93,195.52L44.45,129.49L44.62,141.96L44.63,141.95L44.79,135.9L44.83,141.16L44.83,141.28L44.85,143.08L45.58,87.89L45.59,87.68L45.76,110.25L45.99,58.7L46.34,75.76L46.35,75.42L47.03,36.03L47.1,47.74L47.11,47.61L47.26,60.73L47.72,27.33L47.86,36.04L47.87,35.89L48.18,42.35L48.62,27.26L48.63,27.24L48.86,39.14L48.98,18.06L49.38,32.73L49.39,32.85L49.44,39.39L49.55,18.76L50.14,24.43L50.15,24.66L50.24,43.14L50.36,21.57L50.9,25.53L50.91,25.47L51.45,18.9L51.62,41.81L51.66,40.47L51.67,40.44L51.91,21.57L52.14,48.33L52.42,36.87L52.43,36.72L52.65,43.47L52.94,25.08L53.18,37.64L53.19,37.32L53.57,45.44L53.74,22.15L53.94,28.11L53.95,28.3L54.49,40.15L54.66,22.93L54.7,38.91L54.71,39.27L55.01,23.73L55.18,47.96L55.46,40.57L55.47,40.57L55.55,36.55L55.55,36.43L55.69,31.16L55.73,47.37L55.73,47.83L55.75,58.94L56.15,29.57L56.48,37.49L56.49,37.62L56.56,50.61L56.61,30.51L57.24,40.23L57.25,40.24L57.4,53.61L57.4,53.73L57.47,28.4L57.99,64.95L58.15,53.4L58.16,53.43L58.33,33.96L58.74,67.86L58.91,61.48L58.92,61.45L59.02,54.85L59.67,77.69L59.68,77.73L60.34,52.33L60.43,85.61L60.44,85.72L60.69,76.75L61.15,93.51L61.19,93.39L61.2,93.39L61.26,82.13L61.26,98.92L61.78,117.21L61.89,97.59L62.01,105.85L62.02,105.97L62.12,96.19L62.52,130.83L62.77,126.64L62.78,126.48L62.87,119.07L63.21,156.4L63.53,145.28L63.54,145.16L63.84,134.07L64.25,162.79L64.28,158.07L64.29,157.95L64.59,138.42L64.71,171.09L65.04,157.02L65.05,157.16L65.45,177.76L65.8,147.42L65.8,148.98L65.81,149.15L66.08,173.64L66.54,137.75L66.56,144.9L66.57,145.2L66.6,155.62L67.29,131.75L67.32,133.02L67.33,133.06L67.57,123.78L67.8,150.85L68.08,133.93L68.09,133.96L68.15,135.85L68.55,116.17L68.84,126.61L68.85,126.7L69.18,134.73L69.53,113.09L69.6,129.68L69.61,129.61L69.7,118.84L70.33,141.59L70.36,136.39L70.37,136.24L70.85,141.52L70.96,114.97L71.12,126L71.13,126.16L71.65,143.19L71.88,140.62L71.89,140.64L72.4,134.53L72.63,164.13L72.64,159.38L72.65,159.15L72.97,136.75L73.31,175.53L73.4,162.99L73.41,162.99L73.53,170.85L73.53,170.87L73.66,161.76L73.72,172.75L73.76,163.28L73.76,163.08L73.77,160.66L74.23,194.55L74.51,179.4L74.52,179.4L74.58,166.24L75.27,209.96L75.27,207.27L75.28,206.97L75.5,191.78L75.9,219.16L76.03,217.52L76.04,217.57L76.41,209.54L76.79,245.17L76.8,245.35L77.22,251.72L77.45,232.34L77.55,238.77L77.56,238.58L77.56,237.4L78.25,270.5L78.31,255.01L78.32,254.73L78.36,240.57L78.59,287.9L79.07,269.49L79.08,269.34L79.11,263.81L79.74,287.33L79.83,283.69L79.84,283.89L80.09,279.72L80.26,293.46L80.59,282.57L80.6,282.46L80.6,281.58L81.35,306.42L81.35,306L81.36,305.93L81.64,290.86L81.92,317.48L82.11,299.47L82.12,299.24L82.15,290.26L82.78,318.77L82.87,314.22L82.88,314.46L82.9,320.25L82.96,294.28L83.63,308.47L83.64,308.35L83.99,322.7L84.05,299.13L84.39,309.18L84.4,309.2L84.5,317.9L84.51,322.98L84.62,335.79L84.85,311.58L85.26,318.21L85.27,318.22L85.37,315.28L85.37,319.04L85.88,337.75L86.12,317.01L86.13,316.95L86.17,314.05L86.28,332.6L86.88,326.83L86.89,326.93L87.37,322.06L87.49,341.2L87.64,333.55L87.65,333.58L88.24,344.61L88.4,324.67L88.41,324.51L88.58,341.48L88.81,308.62L89.16,329.1L89.17,329.17L89.5,344.85L89.61,322.17L89.92,328.69L89.93,328.88L90.13,325.63L90.59,344.06L90.68,334.02L90.69,333.97L90.88,325.28L90.93,343.96L91.44,331.15L91.45,331.21L91.74,346.4L91.85,328.72L92.2,338.38L92.21,338.27L92.43,348.06L92.54,323.21L92.96,334.67L92.97,334.73L93.46,325.38L93.69,345.93L93.72,340.68L93.73,340.53L94.03,347.42L94.32,322.29L94.48,334.25L94.49,334.16L94.55,341.83L94.84,309.3L95.24,324.44L95.25,324.48L95.35,350.77L95.75,320.6L96,335.84L96.01,335.88L96.16,340.74L96.56,323.26L96.76,334.68L96.77,334.55L96.96,354.64L97.07,322.77L97.52,337.42L97.53,337.17L97.59,355.32L98.11,326.25L98.28,327.71L98.29,327.9L98.68,317.28L98.85,353.96L99.04,337.21L99.05,337.2L99.14,335.62L99.24,345.23L99.24,345.4L99.49,321.9L99.6,355.32L99.99,336.07L100,335.95L100.4,346.89L100.46,324.38L100.75,331.34L100.76,331.24L100.81,326.38L101.03,348.4L101.51,339.66L101.52,339.45L101.67,348.27L102.13,329.94L102.27,332.96L102.28,332.78L102.36,351.55L102.7,326.37L103.03,339.82L103.04,339.79L103.22,328.43L103.68,349.23L103.79,345.59L103.8,345.51L103.96,329.13L104.25,350.02L104.55,342.89L104.56,343L104.94,329.97L105.28,355.95L105.31,341.44L105.32,341.02L105.74,349.64L106.07,329.07L106.08,328.86L106.09,326.61L106.26,357.83L106.83,349.09L106.84,348.76L107.29,348.79L107.46,328.36L107.59,331.58L107.6,331.65L107.81,324.99L108.27,349.41L108.35,344.27L108.36,344.48L108.38,349.99L108.73,323.51L109.11,334.77L109.12,334.69L109.3,346.76L109.36,331.19L109.87,333.99L109.88,334.15L110.22,347.42L110.33,322.42L110.63,337.5L110.64,337.64L110.96,327.93L111.37,346.41L111.39,342.15L111.4,342.01L111.54,330.34L111.94,344.04L112.15,337.74L112.16,337.78L112.69,323.89L112.86,353.66L112.91,335.46L112.92,335.62L113.26,351.32L113.55,327.49L113.67,333.63L113.68,333.6L113.83,330.03L114.43,347.24L114.44,347.26L114.47,347.77L114.87,329.74L115.19,340.17L115.2,340.11L115.27,354.66L115.9,332.27L115.95,338.31L115.96,338.41L116.13,326.8L116.36,353.35L116.71,335.35L116.72,335.53L116.93,327.4L117.16,348.71L117.47,340.3L117.48,340.41L117.68,324.52L118.02,346.22L118.23,340.5L118.24,340.69L118.25,344.05L118.88,327.07L118.99,328.82L119,328.59L119.4,345.06L119.75,327.21L119.76,327L119.8,316.02L119.97,347.72L120.51,342.43L120.52,342.34L120.95,316.28L121.27,334.93L121.28,335.1L121.58,349.32L121.98,321.67L122.03,331.62L122.04,331.81L122.16,343.45L122.27,326.65L122.79,332.39L122.8,332.54L123.07,345.51L123.36,323.85L123.55,329.39L123.56,329.41L123.88,334.04L124.16,278.2L124.31,290.23L124.32,290.35L124.85,312.99L125.07,242.11L125.08,242.03L125.48,251.05L125.83,190.13L125.84,189.93L126.17,203.68L126.29,176.76L126.59,197.32L126.6,197.27L126.75,122.86L127.35,133.38L127.36,133.34L127.55,141.88L128.01,79.76L128.1,94.23L128.11,94.35L128.41,110.31L128.81,65.01L128.86,67.44L128.87,67.49L128.99,75.58L129.56,39.93L129.62,41.78L129.63,41.91L130.02,56.5L130.31,27.46L130.38,28.73L130.39,28.39L130.42,16.2L130.88,44.25L131.14,36.35L131.15,36.23L131.51,19.28L131.68,42.16L131.9,34.15L131.91,34.23L132.14,18.02L132.43,36.22L132.66,26.53L132.67,26.57L133.12,42.08L133.29,20.66L133.42,29.15L133.43,28.92L133.46,20.26L133.69,40.38L134.18,40.23L134.19,40.31L134.38,24.7L134.84,42.9L134.94,36.34L134.95,36.41L135.01,25.75L135.53,43.2L135.7,36.67L135.71,36.42L136.27,21.8L136.45,38.7L136.46,32.86L136.47,32.55L136.5,20.27L137.08,45.85L137.22,28.57L137.23,28.47L137.42,42.39L137.65,25.49L137.98,34.73L137.99,34.89L138.28,21.69L138.4,57.42L138.74,47.51L138.75,47.5L138.81,41.61L138.82,41.24L139.26,45.59L139.55,24.22L139.57,33.18L139.58,33.48L139.89,25.33L140.18,53.41L140.33,37.78L140.34,37.47L140.35,33.21L140.69,57.47L141.09,51.82L141.1,51.85L141.15,49.16L141.55,78.28L141.85,65.2L141.86,64.84L141.9,48.29L142.53,78.79L142.61,71.94L142.62,71.98L142.82,62.59L143.1,97.27L143.37,85.08L143.38,84.9L143.51,75.88L144.08,113.46L144.13,110.54L144.14,110.49L144.25,91.05L144.88,126.47L144.89,125.58L144.9,125.51L145.06,110.48L145.65,141.45L145.66,141.46L145.74,151.58L145.81,141.51L145.81,141.34L145.86,132.81L146.56,158.9L146.57,158.91L146.83,162.61L147.29,146.97L147.32,149.63L147.33,149.71L147.52,173.95L147.98,141.85L148.08,157.21L148.09,157.24L148.15,171.9L148.27,147.88L148.84,152.42L148.85,152.63L148.9,164.28L148.96,139.36L149.6,147.79L149.61,147.73L149.82,151.49L149.93,127.97L150.36,133.82L150.37,133.85L150.74,151.41L150.79,115.38L151.12,132.96L151.13,133.09L151.37,115.17L151.77,138.75L151.88,120.14L151.89,120.06L151.94,138.22L152.63,115.65L152.64,116.19L152.65,116.22L152.98,114.5L153.38,138.22L153.4,132.04L153.41,131.82L153.61,140.91L154.12,120.75L154.16,130.01L154.17,130.23L154.87,123.79L154.92,145.94L154.93,146.33L155.04,137.6L155.27,163.81L155.68,145.75L155.69,145.92L155.9,143.41L156.36,182.1L156.44,163.61L156.45,163.88L157.17,189.06L157.2,181.3L157.21,181.11L157.28,175.39L157.96,202.25L157.97,202.26L158.14,185.31L158.66,230.13L158.72,213.9L158.73,214.05L159,213.91L159.48,238.26L159.49,238.31L160.04,228.9L160.21,256.35L160.24,245.86L160.25,245.59L160.26,240.48L160.32,268.95L161,261.52L161.01,261.45L161.12,256.68L161.24,276.64L161.76,272.05L161.77,271.95L161.81,266.7L162.33,290.96L162.52,279.94L162.53,279.97L162.68,272.49L163.13,296.58L163.28,288.85L163.29,288.67L163.31,284.7L164,311.01L164.04,296.82L164.05,296.54L164.22,288.92L164.63,308.3L164.8,304.8L164.81,304.96L164.91,302.57L165.54,315.54L165.56,314.72L165.57,314.68L166,301.36L166.06,324.64L166.32,313L166.33,313.02L166.4,325.97L166.4,326.23L166.41,328.5L166.46,306.87L167.15,322.9L167.16,323L167.32,335.88L167.5,316.47L167.91,321.48L167.92,321.41L168.01,306.19L168.53,335.5L168.67,325.59L168.68,325.61L168.87,317.71L169.39,338.81L169.43,324.5L169.44,324.19L169.96,313.28L170.08,338.56L170.19,322.34L170.2,322.39L170.6,337.1L170.94,320.48L170.95,323.76L170.96,323.98L171.17,346.42L171.23,317.26L171.71,325.86L171.72,325.74L171.86,315.91L171.97,335.37L172.47,330.26L172.48,330.44L172.83,321.85L173.01,340.85L173.23,326.28L173.24,326.08L173.58,341.82L173.64,318.35L173.99,332.87L174,333.02L174.04,341.37L174.56,321.26L174.75,333.2L174.76,333.3L174.96,325.67L175.51,341.65L175.52,341.74L175.93,316.81L176.22,343.4L176.27,322.06L176.28,321.69L176.28,320.94L176.68,358.13L177.03,329.39L177.04,329.46L177.14,351.76L177.25,318.38L177.79,342.94L177.8,342.82L178.4,348.61L178.46,324.98L178.55,335.29L178.56,335.12L178.8,349.46L179.09,326.69L179.31,339.95L179.32,339.8L179.43,352.84L179.72,325.56L180.07,330.02L180.08,330.07L180.46,340.12L180.75,318.5L180.83,335.36L180.84,335.21L181.04,351.14L181.33,320.85L181.59,336.61L181.6,336.94L181.73,313.17L182.07,346.18L182.35,332.01L182.36,331.85L182.42,326.86L182.88,346.43L183.11,344.37L183.12,344.29L183.34,350.97L183.57,319.75L183.87,343.82L183.88,343.59L184.31,346.08L184.6,329.65L184.63,341.31L184.64,341.63L184.66,348.57L185.23,328.51L185.39,347.38L185.4,347.73L185.69,324.54L185.92,358.47L186.15,342.07L186.16,341.93L186.84,343.43L186.9,320.15L186.91,326.15L186.92,326.45L187.12,349.99L187.53,324.77L187.67,334.44L187.68,334.24L187.87,329.06L187.93,346.23L188.43,332.85L188.44,332.67L188.96,330.21L189.08,347.66L189.19,334.29L189.2,334.37L189.65,347.26L189.94,323.18L189.95,328.85L189.96,329.16L190.17,345.51L190.71,336.96L190.72,337.03L191.03,322L191.31,346.07L191.47,344.02L191.48,344.13L191.89,334.18L192.12,348.55L192.23,340.06L192.24,340.12L192.63,349.71L192.92,327.51L192.99,337.72L193,337.94L193.32,324.41L193.67,352.2L193.75,338.62L193.76,338.54L194.3,344.67L194.36,324.82L194.51,342.68L194.52,342.76L195.05,326.87L195.27,347.93L195.28,347.7L195.56,330.15L195.85,348.11L196.03,341.54L196.04,341.64L196.14,325.25L196.77,349.65L196.79,346.43L196.8,346.32L197,329.33L197.51,353.33L197.55,347.89L197.56,347.77L197.8,327.71L198.09,353.21L198.31,336.65L198.32,336.48L198.37,328.6L199.06,351.81L199.07,347.47L199.08,347.1L199.35,351.83L199.41,327.65L199.83,335.13L199.84,334.99L200.04,327.27L200.33,350.46L200.59,335.44L200.6,335.22L200.78,327.73L201.01,347.24L201.35,332.96L201.36,332.84L201.65,324.08L201.7,343.08L202.11,337.45L202.12,337.36L202.33,345.51L202.56,322.29L202.87,338.26L202.88,338.27L202.93,344.11L202.93,344.33L202.97,351.53L203.42,326.95L203.68,338.75L203.69,338.83L203.88,325.22L204,354.12L204.44,330.28L204.45,330.35L204.63,318.42L205.15,340.2L205.2,335.77L205.21,335.63L205.61,322.09L205.83,342.49L205.96,332.86L205.97,332.94L206.06,322.11L206.12,341.61L206.72,330.24L206.73,330.37L206.75,334.14L207.1,286.58L207.48,292.38L207.49,292.39L207.5,292.54L207.56,286.82L207.61,287.33L207.61,237.52L207.96,252.38L208.04,242.16L208.05,242.16L208.13,243.32L208.18,239.59L208.18,239.51L208.42,251.99L208.82,179.85L208.93,180.21L208.94,180.37L209.16,200.41L209.69,132.64L209.7,132.56L210.2,148.25L210.25,83.82L210.45,104.33L210.46,104.7L210.48,115.82L211.12,64.34L211.21,75.71L211.22,75.88L211.23,78.43L211.97,44.21L211.98,44.11L212.09,35.29L212.44,56.13L212.73,45.32L212.74,45.24L213.47,29.02L213.49,31.42L213.5,31.51L213.87,20.97L213.93,42.25L214.25,28.11L214.26,28.09L214.33,22.99L214.43,32.69L214.43,32.85L214.62,19.8L214.96,40.02L215.18,33.22L215.19,33.32L215.3,38.34L215.65,17.94L215.94,23.92L215.95,24.08L216.45,39.88L216.7,32.72L216.71,32.87L216.8,19.71L217.43,44.41L217.46,41.23L217.47,41.15L217.89,27.2L218.06,44.94L218.22,38.15L218.23,38.36L218.52,18.21L218.75,44.75L218.98,40.3L218.99,40.3L219.04,40.47L219.06,37.78L219.06,37.67L219.32,24.88L219.67,48.65L219.81,31.16L219.82,31.32L220.41,21.5L220.57,45.89L220.58,46.17L220.76,52.98L220.81,21.14L221.33,43.4L221.34,43.26L221.45,30.76L222.02,55.1L222.09,37.83L222.1,37.66L222.13,30.81L222.36,58.05L222.85,50.55L222.86,50.52L222.94,38.92L223.11,63.99L223.61,55.95L223.62,56.06L223.91,40.98L224.26,65.08L224.37,63.74L224.38,63.59L224.55,53.41L224.95,80.46L225.13,73.85L225.14,73.86L225.46,69.6L225.75,100.15L225.89,88.39L225.9,88.25L226.04,78.19L226.55,118.51L226.65,113.58L226.66,113.83L227.3,96.35L227.41,119.85L227.42,120.08L227.93,110.68L228.1,135.26L228.17,129.22L228.18,129.23L228.22,129.44L228.23,125.86L228.24,125.65L228.27,117.01L228.85,150.95L228.99,140.02L229,139.89L229.14,136.17L229.54,169.05L229.75,151.84L229.76,151.78L229.77,151.08L229.88,169.66L230.51,160.63L230.52,160.53L230.8,168.09L231.2,150.43L231.27,156.79L231.28,156.87L231.37,138.53L231.66,164.63L232.03,139.39L232.04,139.4L232.34,155.01L232.34,155.2L232.35,157.22L232.7,124.24L233.09,135.04L233.1,135L233.21,145.15L233.32,134.89L233.32,134.76L233.44,146.76L233.52,124.46L233.52,124.23L233.56,116.15L233.67,137.63L234.27,118.84L234.28,118.82L234.82,131.23L234.99,107.97L235.03,113.29L235.04,113.41L235.62,110.51L235.74,134.92L235.79,121.09L235.8,121.09L235.9,123.18L235.9,123.23L236.14,138.64L236.27,128.85L236.27,128.75L236.66,120.41L236.88,146.69L237.02,143.08L237.03,143.09L237.06,143.45L237.31,136.12L237.31,135.97L237.34,130.2L237.92,159.62L238.06,150.66L238.07,150.52L238.15,141.08L238.61,183.65L238.82,172.81L238.83,172.87L239.18,157.22L239.47,192.05L239.58,172.99L239.59,173.31L240.1,171.22L240.33,209.36L240.34,205.53L240.35,205.3L240.9,214.03L241.02,192.47L241.1,207.07L241.11,207.17L241.53,231.44L241.86,221.77L241.87,221.73L242.05,200.63L242.57,252.5L242.62,224.21L242.63,224.42L243.26,263.03L243.38,253.95L243.39,253.99L243.48,250.72L244.14,279.44L244.15,279.58L244.29,292.69L244.52,261.39L244.9,283.5L244.91,283.62L245.38,275L245.66,297.19L245.67,297.31L245.84,293.33L245.9,298.67L245.94,293.8L245.94,293.7L246.13,285.25L246.19,298.05L246.19,298.45L246.24,317.15L246.29,290.11L246.29,289.62L246.3,287.65L246.35,313.23L247.04,289.99L247.05,290.1L247.27,289.69L247.67,313.08L247.8,311.89L247.81,311.9L248.42,322.14L248.54,306.51L248.56,310.8L248.57,310.94L248.65,302.24L248.99,323.99L249.32,309.8L249.33,309.58L249.51,298.89L249.97,323.69L250.08,304.56L250.09,304.43L250.77,336.69L250.84,321.06L250.85,321.19L251.52,313.76L251.58,340.01L251.6,334.41L251.61,334.21L251.98,312.53L252.36,326.09L252.37,326.2L252.84,338.94L253.12,309.93L253.13,309.78L253.13,309.49L253.82,346.13L253.88,329.32L253.89,329.6L253.93,342.89L254.45,320.18L254.64,327.24L254.65,327.25L254.73,335.78L254.79,326.59L255.1,330.33L255.11,330.2L255.37,325.43L255.59,346.3L255.86,325.46L255.87,325.28L256.11,341.54L256.23,319.95L256.62,333.86L256.63,333.79L256.8,345.02L257.32,325.7L257.38,334.92L257.39,334.92L257.47,330.96L257.47,330.85L257.49,328.41L257.89,346.26L258.22,331.87L258.23,331.68L258.29,350.14L258.58,327.29L258.98,341.23L258.99,341.07L259.33,326.39L259.5,347.75L259.74,335.44L259.75,335.36L259.96,323.71L260.3,346.92L260.5,337.37L260.51,337.32L260.7,347.98L261.05,324.06L261.26,341.67L261.27,341.57L261.68,344.97L261.97,323.41L262.02,330.77L262.03,330.58L262.08,319.65L262.77,358.58L262.78,352.97L262.79,352.62L263.46,326.62L263.54,337.82L263.55,338.03L264.15,344.92L264.2,326.5L264.3,335.83L264.31,335.71L264.55,354.06L264.78,330.32L265.06,334.7L265.07,334.66L265.24,330.56L265.7,350.66L265.82,340.17L265.83,340.15L266.04,328.71L266.14,338.48L266.15,338.53L266.16,339.01L266.84,325.27L266.9,338.81L266.91,338.88L267.02,345.32L267.59,324.57L267.66,337.32L267.67,337.16L267.82,324.79L268.34,345.6L268.42,331.7L268.43,331.7L268.51,331.01L268.56,336.22L268.56,336.32L268.74,326.86L269.31,357.4L269.31,356.54L269.32,356.26L270,329.36L270.07,339.54L270.08,339.45L270.29,330.07L270.34,348.24L270.83,337.27L270.84,337.29L270.92,347.15L271.38,321.49L271.59,331.17L271.6,331.14L271.61,330.86L272.35,348.43L272.35,348.27L272.36,348.11L272.76,327.77L273.11,331.37L273.12,331.42L273.21,343.92L273.85,314.9L273.87,322.33L273.88,322.57L274.53,355.63L274.63,338.11L274.64,337.84L275.05,350.74L275.34,327.6L275.39,339.04L275.4,339.23L275.68,345.63L276.14,325.12L276.15,327.73L276.16,327.93L276.26,324.89L276.89,344.26L276.91,340.23L276.92,340.08L277.12,333.36L277.23,345.79L277.67,345.01L277.68,345L278.32,330.74L278.42,340.36L278.42,340.55L279.07,321.85L279.13,345.39L279.17,328.65L279.18,328.32L279.18,325.7L279.76,353.51L279.93,345.9L279.94,345.95L280.22,348.82L280.39,336.51L280.69,343.53L280.7,343.43L281.02,329.74L281.08,345.83L281.45,333.33L281.46,333.18L281.48,329.41L282.17,348.14L282.21,332.39L282.22,332.07L282.34,320.77L282.63,348.69L282.97,344.2L282.98,344.27L283.03,347.96L283.32,325.98L283.73,330.67L283.74,330.74L283.89,330.21L284.23,346.06L284.49,340.18L284.5,340.05L284.69,351.35L284.75,326.12L285.25,343.24L285.26,343.41L285.38,347.24L285.78,321.95L286.01,340.17L286.02,339.97L286.19,341.41L286.64,322.2L286.77,335.29L286.78,335.33L286.87,325.7L287.39,348.76L287.53,331.42L287.54,331.53L287.68,347.3L288.19,315.97L288.29,334.72L288.3,334.7L288.94,323.07L289.05,337.09L289.06,337.19L289.17,343.42L289.69,286.53L289.81,296.78L289.82,296.72L290.2,306.38L290.49,228.93L290.57,248.12L290.58,248.15L291.01,254.42L291.18,175.84L291.33,205.01L291.34,205.16L291.35,207.49L292.09,131.92L292.1,131.83L292.67,152.82L292.84,104.55L292.85,104.92L292.86,104.95L292.9,106.39L293.59,85.98L293.61,94.5L293.62,94.82L293.65,105.63L294.22,57.52L294.37,64.19L294.38,64.07L294.56,71.5L295.13,40.36L295.14,40.1L295.25,51.45L295.77,28.92L295.89,36.75L295.9,36.65L296.29,16.95L296.65,30.64L296.66,30.67L296.86,17.33L297.15,40.89L297.41,26.22L297.42,26.23L297.49,34.51L297.64,25.51L297.64,25.34L297.66,21.99L297.72,33.65L297.72,33.85L297.78,15.91L298.47,34.76L298.47,34.16L298.48,34.07L298.7,20.5L298.93,46.26L299.23,34.73L299.24,34.51L299.62,25.79L299.96,42.4L299.99,41.99L300,41.98L300.07,36.36L300.13,46.57L300.13,46.74L300.13,47.1L300.59,24.14L300.88,34.49L300.89,34.44L300.99,41.97L301.17,26.65L301.64,32.86L301.65,32.92L301.85,14.83L301.91,42.87L302.4,29.85L302.41,29.88L302.71,47.64L303.16,26.84L303.17,26.57L303.17,24.41L303.4,57.89L303.92,49.73L303.93,49.25L303.98,23.27L304.68,36.04L304.69,36.21L304.89,26.18L305.24,57.82L305.44,42.66L305.45,42.61L305.7,31.94L306.04,61.02L306.2,47.66L306.21,47.44L306.5,39.63L306.96,72.75L306.96,71.69L306.97,71.34L307.31,48.84L307.65,83.29L307.72,75.92L307.73,75.9L308.11,65.85L308.34,92.51L308.48,91.59L308.49,91.85L308.97,82.62L309.2,123.05L309.24,105.45L309.25,105.06L309.77,114.25L309.83,94.22L310,101.54L310.01,101.6L310.35,127.55L310.76,123.32L310.77,123.52L310.86,117.28L310.98,153.87L311.52,135.97L311.53,135.78L311.55,130.41L311.9,161.71L312.28,149.21L312.29,149.15L312.36,144.99L312.82,169.06L313.04,165.63L313.05,165.58L313.62,150.88L313.79,173.83L313.8,170.51L313.81,170.27L314.48,141.79L314.56,148.45L314.57,148.28L315.11,169.78L315.23,123.16L315.32,130.13L315.33,129.98L315.34,127.55L315.74,143.82L316.08,136.22L316.09,136.29L316.32,137.59L316.66,111.9L316.84,130.13L316.85,129.93L317.41,135.76L317.46,109.25L317.6,123.52L317.61,123.69L318.04,113.86L318.15,137.29L318.36,127.16L318.37,127.27L318.56,113.66L318.84,143.74L319.12,124.5L319.13,124.38L319.24,118.37L319.59,148.87L319.88,134.45L319.89,134.52L320.22,123.57L320.45,162.21L320.64,152.47L320.65,152.55L321.08,137.22L321.25,174.49L321.4,172.32L321.41,172.53L321.94,156.28L322.11,188.18L322.16,180.69L322.17,180.55L322.46,200.86L322.86,176.85L322.92,185.99L322.93,185.97L322.97,184.86L323.49,212.13L323.68,198.38L323.69,198.6L324.41,234.74L324.44,221.17L324.45,220.81L324.47,212.74L324.98,248.52L325.2,235.91L325.21,236.04L325.56,228.11L325.84,266.39L325.96,253.71L325.97,253.83L326.07,249.73L326.53,286.19L326.72,275L326.73,274.55L326.76,256.98L327.28,283.15L327.48,272.68L327.49,272.84L327.62,297.14L328.03,272.38L328.24,289.86L328.25,289.89L328.37,304.29L328.83,285.25L329,293.36L329.01,293.35L329.12,275.25L329.75,309.03L329.76,305.21L329.77,305L329.86,286.51L330.32,312.05L330.52,311.6L330.53,311.91L330.67,291.46L331.24,326.44L331.28,324.46L331.29,324.42L331.41,299.86L332.04,315.28L332.05,315.5L332.1,328.06L332.73,311.1L332.8,319.42L332.81,319.54L332.9,343.36L333.53,313.61L333.56,319.83L333.57,320.03L334.11,317.16L334.17,337.45L334.32,320.06L334.33,320.05L334.38,331.85L334.38,332.11L334.4,335.47L334.57,315.34L335.13,321.03L335.14,320.83L335.2,333.37L335.77,313.79L335.89,331.39L335.9,331.34L336.06,318.8L336.46,331.82L336.65,327.04L336.66,327.13L336.92,323.64L337.09,341.35L337.41,326.7L337.42,326.73L338.07,350.35L338.17,335.07L338.18,335.09L338.47,342.02L338.64,322.1L338.93,334.78L338.94,334.71L339.1,324.95L339.45,341.84L339.69,330.24L339.7,330.45L340.02,348.09L340.19,326.37L340.45,335.02L340.46,334.8L340.71,350.3L340.77,315.94L341.21,342.78L341.22,342.77L341.39,328.68L341.39,328.5L341.8,321.05L342.09,341.44L342.14,338.6L342.15,338.57L342.26,322.7L342.83,349.24L342.9,334.77L342.91,334.79L343.12,313.18L343.29,346.39L343.66,338.23L343.67,338.45L343.92,326.99L343.98,346.97L344.42,336.2L344.43,336.13L344.5,342.39L344.84,322.93L345.18,333.04L345.19,333.09L345.24,346.73L345.3,329.44L345.94,338.16L345.95,338.06L346.39,324L346.51,348.4L346.7,333.31L346.71,333.26L347.25,344.2L347.37,323.56L347.46,332.64L347.47,332.58L347.65,348.88L347.77,327.72L348.22,339.8L348.23,339.83L348.46,322.01L348.86,354.98L348.98,343.67L348.99,343.81L349.03,350.28L349.2,332.06L349.74,339.62L349.75,339.43L349.95,352.73L350.29,329.16L350.5,340.11L350.51,340.08L350.64,350.84L350.93,322.07L351.26,341.7L351.27,341.89L351.33,330.78L351.38,354.26L352.02,345.53L352.03,345.28L352.19,329.09L352.78,330.24L352.79,330.26L352.88,349.65L353.54,332.76L353.55,332.64L353.62,359.4L353.91,328.55L354.3,344.24L354.31,344.37L354.31,345.18L354.71,327.88L355.06,334.6L355.07,334.64L355.34,347.22L355.69,329.89L355.82,338.41L355.83,338.22L355.92,346.51L356.09,328.98L356.58,337.26L356.59,337.46L356.66,319.69L357.07,358.11L357.34,337.64L357.35,337.81L357.58,346.91L357.64,327.15L358.1,343.35L358.11,343.45L358.16,348.66L358.33,329.59L358.86,339.59L358.87,339.5L358.96,346.51L359.36,330.28L359.62,337.82L359.63,337.98L360.05,328.38L360.11,351.51L360.38,347.63L360.39,347.88L360.62,329.79L361.14,352.23L361.14,351.68L361.15,351.54L361.49,353.52L361.6,327.55L361.9,332.56L361.91,332.32L361.94,322.44L362,351.91L362.66,338.84L362.67,339.13L362.75,348.56L363.21,332.12L363.42,337.53L363.43,337.46L363.84,328.62L364.01,348.34L364.18,337.87L364.19,337.89L364.53,352.29L364.93,324.97L364.94,332.92L364.95,333.41L364.99,354.77L365.7,351.92L365.71,351.93L365.76,342.88L365.76,342.52L366.19,349.17L366.51,327.93L366.52,327.82L366.54,325.42L367.05,352.28L367.27,331.12L367.28,330.91L367.57,349.44L368.03,325.45L368.03,328.16L368.04,328.54L368.26,323.29L368.32,348.95L368.79,327.73L368.8,327.94L369.06,347.42L369.12,319.41L369.55,331.59L369.56,331.8L369.64,339.68L369.92,318.83L370.31,336.33L370.32,336.32L370.78,322.2L370.84,343.29L371.07,325.53L371.08,325.58L371.36,322.56L371.7,334.89L371.83,332.03L371.84,332.11L372.04,337.19L372.59,287.69L372.6,287.51L372.73,302.56L373.01,239.97L373.35,249.64L373.36,249.57L373.65,255.44L374.11,181.71L374.11,183.1L374.12,183.57L374.17,209.5L374.86,132.91L374.87,135.82L374.88,135.99L374.92,143.19L375.55,90.81L375.63,103.35L375.64,103.53L375.66,108.32L376.39,61.57L376.4,61.56L376.5,69.53L376.5,69.68L376.69,75.3L377.25,46.44L377.26,46.31L377.56,42.16L377.84,63.04L378.01,57.53L378.02,57.42L378.47,24.12L378.77,31.64L378.78,31.65L378.92,44.76L378.92,44.95L378.93,46.49L378.96,33.05L378.96,32.77L379.51,16.73L379.62,39.72L379.71,28.17L379.72,28L380.08,16.28L380.43,46.05L380.47,33.93L380.48,33.7L381,15.48L381.17,40.58L381.23,23.98L381.24,23.73L381.29,10.47L381.57,41.86L381.99,28.09L382,28.22L382.09,49.67L382.26,16.91L382.75,40.61L382.76,41.03L383.07,16.8L383.18,52.26L383.51,29.51L383.52,29.35L383.98,17.79L384.04,39.99L384.27,27.9L384.28,27.89L384.33,27.4L384.39,36.08L384.53,35.35L384.54,35.46L384.67,24.26L385.07,48.03L385.29,38.09L385.3,38.13L385.53,16.19L385.88,44.54L386.05,34.54L386.06,34.51L386.16,48.87L386.28,24.84L386.81,30.64L386.82,30.63L386.85,30.12L386.9,40.55L386.9,40.75L387.03,31.36L387.37,49.57L387.65,44.62L387.66,44.68L387.89,25.84L388.41,59.69L388.42,59.73L388.46,61.72L388.63,41.33L389.17,47.68L389.18,47.8L389.89,75.21L389.93,66.66L389.94,66.45L390.01,53.68L390.53,82.87L390.69,73.69L390.7,73.65L390.93,72.35L391.04,95.1L391.45,90.68L391.46,90.75L391.73,77.45L392.19,103.34L392.21,102.79L392.22,102.77L392.31,95.78L392.88,137.18L392.97,133.22L392.98,133.41L393.45,117.13L393.68,149.87L393.73,137.51L393.74,137.28L394.03,134.59L394.49,163.61L394.5,163.64L394.89,165.4L394.95,140.61L395.25,159.56L395.26,159.42L395.46,136.41L396.01,169.87L396.02,170.28L396.04,179.13L396.72,147.3L396.77,162.26L396.78,162.55L397.01,167.04L397.41,139.12L397.53,153.63L397.54,153.58L397.82,154.93L397.93,114.49L398.29,138.94L398.3,138.86L398.5,143.94L398.79,124.47L399.05,126.99L399.06,126.96L399.14,137.79L399.19,110.46L399.81,118.37L399.82,118.36L399.94,114.32L400.05,126.9L400.31,119.09L400.31,118.84L400.34,111.21L400.8,139.59L401.06,129.44L401.07,129.39L401.72,143.54L401.82,117.85L401.83,117.43L401.83,114.12L402.18,149.66L402.58,143.9L402.59,143.82L402.69,130.41L403.1,165.91L403.34,143.19L403.35,143.04L403.38,137.07L403.96,175.2L404.1,170.5L404.11,170.63L404.53,152.71L404.82,187.45L404.86,184.63L404.87,184.58L405.39,170.79L405.62,199.95L405.62,199.95L405.63,199.95L405.7,205L405.71,205.18L405.74,210.82L406.02,184.9L406.46,201.29L406.47,201.22L406.48,200.05L406.71,229.48L407.22,217.24L407.23,217.24L407.86,247.66L407.98,238.55L407.99,238.75L408.09,231.01L408.38,268.94L408.74,259.79L408.75,259.75L408.83,245.08L409.06,290.09L409.5,276.2L409.51,276.1L409.58,260.89L410.15,287.2L410.26,286.12L410.27,286.4L410.44,297.55L410.9,277.22L411.02,292.29L411.03,292.29L411.14,289.27L411.14,289.25L411.19,287.99L411.24,299.77L411.24,299.99L411.65,276.64L411.7,308.54L411.99,302.04L412,302.01L412.22,285.97L412.51,313.54L412.75,303.05L412.76,303.04L412.85,312.55L412.99,298.35L412.99,298.21L413.02,293.74L413.14,308.62L413.28,307.42L413.28,307.72L413.31,318.23L413.89,302.61L414.03,304.78L414.04,304.7L414.06,302.76L414.57,323.34L414.79,315.43L414.8,315.61L415.09,307.68L415.26,340.66L415.55,320.08L415.56,320.12L415.72,301.87L415.78,329.81L416.31,317.95L416.32,318.1L417.04,341.12L417.07,328.36L417.08,327.98L417.1,318.6L417.79,338.92L417.83,323.96L417.84,323.66L418.3,317.76L418.36,339.29L418.59,326.91L418.6,326.89L418.82,319.25L419.17,347.63L419.35,325.92L419.36,325.91L419.39,325.64L419.43,330.93L419.43,331.07L419.62,321.69L420.08,337.87L420.18,335.09L420.19,335.1L420.26,348.13L420.35,332.3L420.35,332.15L420.72,337.11L420.89,315.42L421.1,323.62L421.11,323.48L421.23,319.36L421.58,343.02L421.86,322.52L421.87,322.81L421.92,339.54L422.44,318.38L422.62,327.21L422.63,327.43L422.84,341.42L423.13,321.71L423.38,331.52L423.39,331.84L423.76,343.63L423.99,324.25L424.14,335.27L424.15,335.39L424.39,349.11L424.5,330.79L424.9,332.01L424.91,332.02L425.02,344.14L425.16,335.08L425.16,334.85L425.65,351.48L425.71,325.17L425.91,337.17L425.92,337.26L426.22,330.95L426.4,344.2L426.67,334.89L426.68,334.71L427.09,347.19L427.14,325.52L427.43,335.78L427.44,335.9L427.66,343.91L428.06,327.8L428.19,336.76L428.2,336.89L428.35,351.17L428.64,325.7L428.95,345.72L428.96,345.74L428.98,346.41L429.15,325.1L429.71,335.93L429.72,336.11L430.13,322.54L430.36,347.6L430.47,340.78L430.48,340.73L430.59,322.21L431.16,342.25L431.23,336.07L431.24,336.24L431.39,347.84L431.79,318.52L431.99,336.1L432,336.09L432.08,325.97L432.12,336.6L432.12,336.83L432.54,344.82L432.6,333.57L432.68,335.35L432.69,335.23L432.94,330.04L433.17,359.53L433.44,343.47L433.45,343.57L433.63,328.45L433.8,345.41L434.2,342.86L434.21,342.78L434.32,347.45L434.37,328.55L434.96,341.26L434.97,341.28L435.18,335.1L435.24,346.86L435.38,337.86L435.38,337.67L435.81,352.99L436.04,324.1L436.13,334.09L436.14,334.15L436.44,348.59L436.67,326.21L436.89,343.89L436.9,343.93L437.01,355.66L437.07,331L437.65,347.04L437.66,347.1L437.7,349.91L438.41,331.83L438.42,331.79L438.97,320.05L439.17,347.18L439.18,347.29L439.2,350.21L439.83,323.57L439.93,336.77L439.94,336.88L440.23,351.88L440.57,324.71L440.69,341.27L440.7,341.22L440.86,355.47L441.43,329.39L441.45,329.93L441.46,329.96L441.84,347.99L442.21,329.92L442.21,329.92L442.22,329.91L442.26,335.8L442.27,336.01L442.58,346.2L442.98,323.75L443.02,333.36L443.03,333.59L443.44,328.25L443.67,342.05L443.78,339.77L443.79,339.82L444.07,346.26L444.53,326.87L444.54,329.28L444.55,329.48L444.76,353.99L445.3,337.38L445.31,337.36L445.91,324.69L445.97,350.6L446.06,342.04L446.07,342.2L446.14,325.75L446.71,357.15L446.82,341.48L446.83,341.42L447.17,331.66L447.4,350.2L447.58,347.11L447.59,347.1L447.66,341.03L447.66,340.83L447.8,326.01L448.03,353.82L448.41,343.05L448.42,343.31L448.55,352.5L448.61,330.3L449.17,348.76L449.18,348.82L449.3,331.46L449.81,350.05L449.93,344.22L449.94,344.02L450.16,354.23L450.27,329L450.69,343.64L450.7,343.48L450.96,325.75L451.42,348.52L451.45,336.66L451.46,336.33L451.48,328.75L451.88,348.24L452.21,345.58L452.22,345.68L452.51,325.1L452.57,349.71L452.97,332.09L452.98,332.19L453.2,343.62L453.49,325.45L453.73,338.65L453.74,338.68L454.12,328.57L454.49,340.55L454.5,340.7L454.75,346.5L455.21,323.85L455.25,328.63L455.26,328.73L455.78,324.63L456.01,344.39L456.01,344.15L456.02,344.06L456.47,318.06L456.77,331.41L456.78,331.56L456.87,322.91L456.93,345.12L457.53,333.72L457.54,333.65L457.73,344.62L458.29,323.43L458.3,323.25L458.48,319.11L458.59,343.99L459.05,331.32L459.06,331.45L459.11,338.99L459.46,328.25L459.81,332.61L459.82,332.67L459.97,313.93L460.32,339.18L460.57,328.97L460.58,328.79L460.89,312.43L461.01,331.89L461.33,327.55L461.34,327.46L461.52,315.49L461.92,335.7L462.09,324.29L462.1,324.41L462.55,334.56L462.78,308.42L462.85,317.59L462.86,317.66L463.36,331.96L463.59,308.4L463.61,310.16L463.62,310.22L464.05,306.03L464.16,326.11L464.37,317.48L464.38,317.4L464.85,307.67L465.13,326.64L465.14,326.89L465.37,308.62L465.71,328.24L465.89,315.9L465.9,315.94L466.34,303.65L466.4,327.6L466.65,321.02L466.66,321.18L466.69,326.4L467.15,300.61L467.41,314.69L467.42,314.71L467.49,310.16L468.06,325.57L468.17,320.27L468.18,320.22L468.58,307.01L468.75,334L468.93,315.43L468.94,315.38L469.04,310.75L469.21,326.37L469.69,325.84L469.7,325.88L470.13,329.78L470.25,305.84L470.45,326.17L470.46,326.3L470.93,311.52L471.11,330.83L471.21,317.01L471.22,317L471.39,301.84L471.8,335.48L471.97,318.33L471.98,318.35L472.02,318.88L472.12,309.3L472.12,309.1L472.14,304.79L472.77,336.8L472.87,319.77L472.88,319.81L473,315.16L473.52,332.47L473.63,323.97L473.64,323.89L473.98,330.17L474.32,313.35L474.39,316.43L474.4,316.46L474.72,329.84L474.89,314.85L475.15,326.99L475.16,327.23L475.24,312.98L475.53,336.1L475.91,325.55L475.92,325.42L476.21,317.26L476.33,336.84L476.67,324L476.68,323.9L477.02,312.67L477.25,337.42L477.43,329.64L477.44,329.65L477.76,318.08L478.05,339.44L478.19,332.47L478.2,332.6L478.22,336.45L478.68,316.82L478.95,331.91L478.96,332L479.03,322.16L479.31,347.42L479.71,338.35L479.72,338.36L479.83,342.06L480.47,324.06L480.48,323.98L480.52,319.97L480.75,350.07L481.23,331.49L481.24,331.67L481.9,346.67L481.95,320.64L481.99,334.85L482,335.18L482.41,343.93L482.47,322.29L482.75,330.55L482.76,330.37L483.27,344.06L483.33,319.58L483.51,331.45L483.52,331.54L483.91,341.62L484.25,328.78L484.27,335.32L484.28,335.57L484.42,319.25L484.94,345.17L485.03,324.71L485.04,324.73L485.2,339.2L485.2,339.38L485.28,352.52L485.57,323.37L485.95,336.04L485.96,336.32L486.2,348.05L486.26,321.19L486.71,332.54L486.72,332.41L487.06,316.77L487.35,344.11L487.47,336.23L487.48,336.23L487.59,332.92L487.59,332.87L487.87,347.58L488.32,322.48L488.34,323.58L488.35,323.63L489.01,341.79L489.1,333.51L489.11,333.6L489.19,338.04L489.36,320.6L489.86,335.06L489.87,335.08L490.16,347.54L490.62,326.49L490.62,327.18L490.63,327.32L490.73,354.21L491.25,322.99L491.38,334.4L491.39,334.39L491.42,334.17L491.45,339.49L491.46,339.66L491.48,344.15L492.17,319.03L492.21,327.82L492.22,328.01L492.51,324.16L492.69,357.96L492.97,336.86L492.98,336.73L493.37,341.99L493.49,321.64L493.73,332.85L493.74,332.83L493.89,349.47L494.41,315.62L494.49,327.28L494.5,327.55L494.81,342.6L495.15,314.15L495.25,324.75L495.26,324.83L495.79,346.96L496.01,320.96L496.02,320.69L496.19,345.72L496.77,333.05L496.78,333.05L496.87,336.27L496.87,336.34L496.93,309.27L497.11,342.25L497.62,330.37L497.63,330.45L497.97,343.1L498.08,320.91L498.38,340.39L498.39,340.33L498.66,315.33L498.77,340.59L499.14,324.31L499.15,324.33L499.29,321.71L499.34,342.25L499.9,331.52L499.91,331.65L500.49,352.01L500.66,317.31L500.66,317.54L500.67,317.78L501.41,355.47L501.42,349.21L501.43,348.79L501.75,330.15L502.18,330.84L502.19,330.64L502.21,325.11L502.9,354.04L502.94,332.51L502.95,332.02L502.96,324.69L503.48,343.28L503.7,335.44L503.71,335.46L503.88,348.25L503.94,325.14L504.46,335.33L504.47,335.55L504.85,330.12L504.91,348.1L505.22,338.55L505.23,338.53L505.6,326.32L505.89,342.85L505.98,338.95L505.99,339.02L506.06,349.99L506.4,320.87L506.74,345.67L506.75,345.73L506.98,327.06L507.5,343.41L507.51,343.33L508.01,329.23L508.07,346.66L508.26,332.22L508.27,332.16L508.41,319.18L508.76,345.13L509.02,340.04L509.03,339.95L509.22,350.45L509.27,318.78L509.78,338.83L509.79,339.01L510.25,330.42L510.48,345.07L510.54,342.97L510.55,343.03L511.17,328.29L511.28,352.01L511.3,340.01L511.31,339.51L511.34,321.99L511.74,348.67L512.06,344.31L512.07,344.49L512.26,358.53L512.49,329.9L512.82,337.98L512.83,337.94L512.95,328.96L513.46,348.91L513.58,341.52L513.59,341.46L513.69,325.91L513.81,352.47L514.34,344.8L514.35,344.95L514.38,350.45L514.78,325.34L515.1,346.99L515.11,347.03L515.24,333.35L515.3,348.52L515.86,339.42L515.87,339.35L515.99,345.19L516.45,330.22L516.62,337.46L516.63,337.57L517.02,320.2L517.25,351.11L517.38,339.35L517.39,339.38L517.48,351.55L518.11,323L518.14,335.22L518.15,335.57L518.28,352.71L518.57,328.48L518.9,329.22L518.91,329.14L518.91,328.36L519.26,347.88L519.66,346.27L519.67,346.14L520.01,329.63L520.23,347.96L520.42,334.53L520.43,334.47L520.58,317.01L520.75,347.62L521.18,330.54L521.19,330.47L521.33,328.41L521.9,356.17L521.94,337.29L521.95,336.89L522.36,346.97L522.7,328.8L522.7,329.11L522.71,329.24L523.28,349.56L523.39,321.74L523.46,337.02L523.47,336.97L523.68,324.84L523.91,351.22L524.22,332.56L524.23,332.22L524.25,322.65L524.71,349.51L524.98,330.47L524.99,330.21L525.57,352.93L525.74,326.43L525.75,326.72L526.26,353.1L526.5,336.71L526.51,336.73L526.78,332.29L527.06,342.96L527.26,338.95L527.27,339.02L527.64,346L527.93,322.43L528.02,329.1L528.03,328.95L528.27,354.74L528.5,324.62L528.78,347L528.79,347.04L529.02,352.07L529.25,331.52L529.54,336.31L529.55,336.35L529.76,331.5L530.05,351.55L530.3,338.07L530.31,338.05L530.85,326.68L531.06,345.3L531.07,345.49L531.08,348.89L531.25,326.66L531.82,342.7L531.83,342.81L532.4,348.74L532.46,326.08L532.58,335.19L532.59,335.19L532.69,338.31L532.69,338.36L532.79,354.49L532.79,354.77L532.8,357.83L533.03,325.37L533.54,335.28L533.55,335.37L533.61,326.14L534.3,342.08L534.3,341.4L534.31,341.32L534.41,315.59L534.64,341.58L535.06,332.11L535.07,332.26L535.39,326.2L535.73,346.03L535.82,329.53L535.83,329.59L536.19,326.97L536.31,346.7L536.58,329.47L536.59,329.45L536.75,344.94L536.75,345.07L536.76,347.12L537.05,320.49L537.5,327.8L537.51,327.59L537.63,326.51L537.68,348.95L538.26,340.29L538.27,340.21L538.37,328.49L538.54,349.85L539.02,339.22L539.03,339.09L539.12,342.45L539.46,324.08L539.78,338.6L539.79,338.73L539.86,342.72L540.27,323.36L540.54,338.22L540.55,338.14L540.67,350.71L540.78,323.87L541.3,333.36L541.31,333.23L541.81,325.13L541.93,344.29L542.06,333.53L542.07,333.41L542.56,321.53L542.68,348.75L542.82,341.76L542.83,341.79L542.85,342.44L543.42,327.45L543.58,337.55L543.59,337.46L544.05,324.58L544.28,344.16L544.34,332.82L544.35,332.83L544.45,338.96L544.52,328.85L544.52,328.67L544.57,320.35L544.61,332.87L544.61,333.18L544.91,327.85L545.09,347.87L545.36,343.68L545.37,343.83L545.37,345.07L546.06,325.18L546.12,333.89L546.13,333.69L546.35,315.71L546.41,342.56L546.88,335.5L546.89,335.31L547.44,358.31L547.61,322.15L547.64,329.2L547.65,329.4L547.78,311.56L548.24,347L548.4,335.6L548.41,335.47L548.93,323.59L549.1,347.85L549.16,331.73L549.17,331.89L549.45,345.37L549.91,323.62L549.92,324.12L549.93,324.14L550.08,347.04L550.37,323.52L550.68,331.16L550.69,331.07L551,326.61L551.11,343.79L551.44,343.62L551.45,343.8L551.92,323.93L552.2,346.18L552.2,345.93L552.21,345.81L552.43,345.99L552.72,327.05L552.96,334.17L552.97,334.4L553.01,344.62L553.35,324.44L553.72,331.27L553.73,331.47L553.98,322.94L554.48,352.16L554.49,352.34L554.5,354.86L554.84,328.47L555.24,336.08L555.25,336.06L555.7,351.51L556,328.37L556.01,328.23L556.05,322.12L556.56,347.51L556.76,335.73L556.77,335.48L556.91,317.75L557.37,344.84L557.52,334.88L557.53,335.12L558,340.71L558.28,329.93L558.29,329.87L558.52,327.57L558.75,338.64L558.79,330.28L558.79,330.07L559.26,322.56L559.38,344.34L559.54,328.06L559.55,327.92L559.84,323.44L559.95,347.3L560.3,343.6L560.31,343.37L560.7,324.2L560.87,346.33L561.06,344.59L561.07,344.68L561.33,347.96L561.62,317.55L561.82,337.5L561.83,337.52L561.9,332.97L562,344.73L562,344.98L562.02,348.29L562.07,330.3L562.07,330L562.13,329.3L562.18,334.55L562.18,334.65L562.3,329.13L562.59,343.29L562.63,331.47L562.63,331.15L562.65,324.11L563.05,350.22L563.38,327.54L563.39,327.43L563.39,326.36L563.62,349.91L564.14,340.61L564.15,340.72L564.2,346.66L564.26,327.29L564.9,339.27L564.91,339.33L565.17,327.03L565.23,346.76L565.66,340.79L565.67,340.95L565.69,345.01L565.86,325.85L566.42,331.85L566.43,331.63L566.67,345.7L566.84,323.84L567.18,338.43L567.19,338.39L567.41,343.6L567.87,321.91L567.94,330.31L567.95,330.46L568.04,322.47L568.56,340.64L568.7,333.56L568.71,333.64L568.96,345.45L569.46,322.02L569.47,321.9L569.48,320.32L570.22,350.66L570.23,350.41L570.91,322.21L570.98,324.51L570.99,324.49L571.03,323.59L571.66,345.37L571.74,331.3L571.75,331.42L571.89,326.47L572.23,345.44L572.5,327.83L572.51,327.55L572.52,323.42L572.86,346.02L573.26,339.88L573.27,340.03L573.5,323.82L573.9,349.22L574.02,341.74L574.03,341.35L574.53,322.99L574.78,332.1L574.79,332.25L574.93,317.21L575.05,342.91L575.54,338.59L575.55,338.53L576.02,341.7L576.3,320.57L576.31,320.48L576.31,320.24L576.82,336.08L577.06,330.55L577.07,330.44L577.28,343.75L577.74,317.27L577.82,328.47L577.83,328.13L577.86,316.54L577.97,350.83L578.58,330.63L578.59,330.86L578.83,320.09L579.29,346.11L579.34,340.94L579.35,340.85L579.87,320.48L580.1,327.5L580.11,327.74L580.33,345.88L580.84,323.9L580.86,327.1L580.87,327.24L581.07,321.26L581.3,347.12L581.62,338.28L581.63,338.31L581.93,321.92L581.99,344.48L582.38,326.1L582.39,326.13L582.74,343.58L583.14,340.79L583.15,340.63L583.83,320.94L583.88,341.9L583.9,339.01L583.91,338.87L584,343.55L584.63,322.03L584.66,328.14L584.67,328.31L584.92,324.24L585.15,349.59L585.42,336.93L585.43,337.03L585.84,342.68L585.95,326.57L586.18,328.59L586.19,328.6L586.32,335.04L586.32,335.25L586.47,343.98L586.87,319.67L587.07,333.44L587.08,333.42L587.39,326.21L587.61,345.92L587.83,335.52L587.84,335.44L588.25,348.29L588.42,328.61L588.59,341.43L588.6,341.22L588.71,323.3L589.05,352.92L589.35,334.47L589.36,334.44L589.68,317.45L589.74,344.9L590.11,334.07L590.12,333.96L590.2,347.18L590.54,325.3L590.87,331.04L590.88,330.97L590.89,330.19L591.52,350.72L591.63,340.36L591.64,340.29L591.8,326.86L592.09,348.55L592.39,345.87L592.4,345.74L592.78,318.88L593.15,342.32L593.16,342.34L593.3,323.79L593.58,350.38L593.91,337.09L593.92,336.89L594.33,355.19L594.44,326.61L594.67,336.5L594.68,336.5L594.73,336.83L594.78,331.67L594.78,331.57L595.25,324.51L595.36,344.69L595.53,338.54L595.54,338.36L595.59,328.02L595.88,348.69" style="vector-effect: non-scaling-stroke; fill: none; stroke: rgb(0, 154, 250); stroke-opacity: 1; stroke-width: 3px; opacity: 1;"/></g><g class="points"/><g class="text"/></g></g></g><g class="overplot"/><path class="xlines-above crisp" d="M62.79921259842519,413.13998250218725H677.0341207349081" style="fill: none; stroke-width: 1px; stroke: rgb(0, 0, 0); stroke-opacity: 1;"/><path class="ylines-above crisp" d="M63.29921259842519,42.63779527559056V412.63998250218725" style="fill: none; stroke-width: 1px; stroke: rgb(0, 0, 0); stroke-opacity: 1;"/><g class="overlines-above"/><g class="xaxislayer-above"><path class="xtick ticks crisp" d="M0,412.63998250218725v-5" transform="translate(81.1592125984252,0)" style="stroke: rgb(0, 0, 0); stroke-opacity: 1; stroke-width: 1px;"/><path class="xtick ticks crisp" d="M0,412.63998250218725v-5" transform="translate(163.79921259842519,0)" style="stroke: rgb(0, 0, 0); stroke-opacity: 1; stroke-width: 1px;"/><path class="xtick ticks crisp" d="M0,412.63998250218725v-5" transform="translate(246.4492125984252,0)" style="stroke: rgb(0, 0, 0); stroke-opacity: 1; stroke-width: 1px;"/><path class="xtick ticks crisp" d="M0,412.63998250218725v-5" transform="translate(329.0892125984252,0)" style="stroke: rgb(0, 0, 0); stroke-opacity: 1; stroke-width: 1px;"/><path class="xtick ticks crisp" d="M0,412.63998250218725v-5" transform="translate(411.7392125984252,0)" style="stroke: rgb(0, 0, 0); stroke-opacity: 1; stroke-width: 1px;"/><path class="xtick ticks crisp" d="M0,412.63998250218725v-5" transform="translate(494.38921259842516,0)" style="stroke: rgb(0, 0, 0); stroke-opacity: 1; stroke-width: 1px;"/><path class="xtick ticks crisp" d="M0,412.63998250218725v-5" transform="translate(577.0292125984253,0)" style="stroke: rgb(0, 0, 0); stroke-opacity: 1; stroke-width: 1px;"/><path class="xtick ticks crisp" d="M0,412.63998250218725v-5" transform="translate(659.6792125984252,0)" style="stroke: rgb(0, 0, 0); stroke-opacity: 1; stroke-width: 1px;"/><g class="xtick"><text text-anchor="middle" x="0" y="437.63998250218725" transform="translate(81.1592125984252,0)" style="font-family: sans-serif; font-size: 20px; fill: rgb(0, 0, 0); fill-opacity: 1; white-space: pre;">0</text></g><g class="xtick"><text text-anchor="middle" x="0" y="437.63998250218725" transform="translate(163.79921259842519,0)" style="font-family: sans-serif; font-size: 20px; fill: rgb(0, 0, 0); fill-opacity: 1; white-space: pre;">1</text></g><g class="xtick"><text text-anchor="middle" x="0" y="437.63998250218725" transform="translate(246.4492125984252,0)" style="font-family: sans-serif; font-size: 20px; fill: rgb(0, 0, 0); fill-opacity: 1; white-space: pre;">2</text></g><g class="xtick"><text text-anchor="middle" x="0" y="437.63998250218725" transform="translate(329.0892125984252,0)" style="font-family: sans-serif; font-size: 20px; fill: rgb(0, 0, 0); fill-opacity: 1; white-space: pre;">3</text></g><g class="xtick"><text text-anchor="middle" x="0" y="437.63998250218725" transform="translate(411.7392125984252,0)" style="font-family: sans-serif; font-size: 20px; fill: rgb(0, 0, 0); fill-opacity: 1; white-space: pre;">4</text></g><g class="xtick"><text text-anchor="middle" x="0" y="437.63998250218725" transform="translate(494.38921259842516,0)" style="font-family: sans-serif; font-size: 20px; fill: rgb(0, 0, 0); fill-opacity: 1; white-space: pre;">5</text></g><g class="xtick"><text text-anchor="middle" x="0" y="437.63998250218725" transform="translate(577.0292125984253,0)" style="font-family: sans-serif; font-size: 20px; fill: rgb(0, 0, 0); fill-opacity: 1; white-space: pre;">6</text></g><g class="xtick"><text text-anchor="middle" x="0" y="437.63998250218725" transform="translate(659.6792125984252,0)" style="font-family: sans-serif; font-size: 20px; fill: rgb(0, 0, 0); fill-opacity: 1; white-space: pre;">7</text></g></g><g class="yaxislayer-above"><path class="ytick ticks crisp" d="M63.79921259842519,0h5" transform="translate(0,398.09779527559056)" style="stroke: rgb(0, 0, 0); stroke-opacity: 1; stroke-width: 1px;"/><path class="ytick ticks crisp" d="M63.79921259842519,0h5" transform="translate(0,331.22779527559055)" style="stroke: rgb(0, 0, 0); stroke-opacity: 1; stroke-width: 1px;"/><path class="ytick ticks crisp" d="M63.79921259842519,0h5" transform="translate(0,264.35779527559055)" style="stroke: rgb(0, 0, 0); stroke-opacity: 1; stroke-width: 1px;"/><path class="ytick ticks crisp" d="M63.79921259842519,0h5" transform="translate(0,197.47779527559055)" style="stroke: rgb(0, 0, 0); stroke-opacity: 1; stroke-width: 1px;"/><path class="ytick ticks crisp" d="M63.79921259842519,0h5" transform="translate(0,130.60779527559055)" style="stroke: rgb(0, 0, 0); stroke-opacity: 1; stroke-width: 1px;"/><path class="ytick ticks crisp" d="M63.79921259842519,0h5" transform="translate(0,63.737795275590564)" style="stroke: rgb(0, 0, 0); stroke-opacity: 1; stroke-width: 1px;"/><g class="ytick"><text text-anchor="end" x="58.79921259842519" y="7" transform="translate(0,398.09779527559056)" style="font-family: sans-serif; font-size: 20px; fill: rgb(0, 0, 0); fill-opacity: 1; white-space: pre;">0</text></g><g class="ytick"><text text-anchor="end" x="58.79921259842519" y="7" transform="translate(0,331.22779527559055)" style="font-family: sans-serif; font-size: 20px; fill: rgb(0, 0, 0); fill-opacity: 1; white-space: pre;">1</text></g><g class="ytick"><text text-anchor="end" x="58.79921259842519" y="7" transform="translate(0,264.35779527559055)" style="font-family: sans-serif; font-size: 20px; fill: rgb(0, 0, 0); fill-opacity: 1; white-space: pre;">2</text></g><g class="ytick"><text text-anchor="end" x="58.79921259842519" y="7" transform="translate(0,197.47779527559055)" style="font-family: sans-serif; font-size: 20px; fill: rgb(0, 0, 0); fill-opacity: 1; white-space: pre;">3</text></g><g class="ytick"><text text-anchor="end" x="58.79921259842519" y="7" transform="translate(0,130.60779527559055)" style="font-family: sans-serif; font-size: 20px; fill: rgb(0, 0, 0); fill-opacity: 1; white-space: pre;">4</text></g><g class="ytick"><text text-anchor="end" x="58.79921259842519" y="7" transform="translate(0,63.737795275590564)" style="font-family: sans-serif; font-size: 20px; fill: rgb(0, 0, 0); fill-opacity: 1; white-space: pre;">5</text></g></g><g class="overaxes-above"/></g></g><g class="polarlayer"/><g class="ternarylayer"/><g class="geolayer"/><g class="funnelarealayer"/><g class="pielayer"/><g class="treemaplayer"/><g class="sunburstlayer"/><g class="glimages"/><defs id="topdefs-a504cb"><g class="clips"/></defs><g class="layer-above"><g class="imagelayer"/><g class="shapelayer"/></g><g class="infolayer"><g class="g-gtitle"/><g class="g-xtitle"><text class="xtitle" x="370.41666666666663" y="482.63998250218725" text-anchor="middle" style="font-family: sans-serif; font-size: 20px; fill: rgb(0, 0, 0); opacity: 1; font-weight: normal; white-space: pre;">days [c]</text></g><g class="g-ytitle" transform="translate(4.21484375,0)"><text class="ytitle" transform="rotate(-90,13.799212598425193,227.6388888888889)" x="13.799212598425193" y="227.6388888888889" text-anchor="middle" style="font-family: sans-serif; font-size: 20px; fill: rgb(0, 0, 0); opacity: 1; font-weight: normal; white-space: pre;">normed demand G1</text></g></g></svg>