<svg class="main-svg" xmlns="http://www.w3.org/2000/svg" xmlns:xlink="http://www.w3.org/1999/xlink" width="700" height="500" style="" viewBox="0 0 700 500"><rect x="0" y="0" width="700" height="500" style="fill: rgb(255, 255, 255); fill-opacity: 1;"/><defs id="defs-8dae2c"><g class="clips"><clipPath id="clip8dae2cxyplot" class="plotclip"><rect width="613.2349081364829" height="370.0021872265967"/></clipPath><clipPath class="axesclip" id="clip8dae2cx"><rect x="63.79921259842519" y="0" width="613.2349081364829" height="500"/></clipPath><clipPath class="axesclip" id="clip8dae2cy"><rect x="0" y="42.63779527559056" width="700" height="370.0021872265967"/></clipPath><clipPath class="axesclip" id="clip8dae2cxy"><rect x="63.79921259842519" y="42.63779527559056" width="613.2349081364829" height="370.0021872265967"/></clipPath></g><g class="gradients"/></defs><g class="bglayer"/><g class="layer-below"><g class="imagelayer"/><g class="shapelayer"/></g><g class="cartesianlayer"><g class="subplot xy"><g class="layer-subplot"><g class="shapelayer"/><g class="imagelayer"/></g><g class="gridlayer"><g class="x"><path class="xgrid crisp" transform="translate(81.1592125984252,0)" d="M0,42.63779527559056v370.0021872265967" style="stroke: rgb(0, 0, 0); stroke-opacity: 0.1; stroke-width: 0.5px;"/><path class="xgrid crisp" transform="translate(163.79921259842519,0)" d="M0,42.63779527559056v370.0021872265967" style="stroke: rgb(0, 0, 0); stroke-opacity: 0.1; stroke-width: 0.5px;"/><path class="xgrid crisp" transform="translate(246.4492125984252,0)" d="M0,42.63779527559056v370.0021872265967" style="stroke: rgb(0, 0, 0); stroke-opacity: 0.1; stroke-width: 0.5px;"/><path class="xgrid crisp" transform="translate(329.0892125984252,0)" d="M0,42.63779527559056v370.0021872265967" style="stroke: rgb(0, 0, 0); stroke-opacity: 0.1; stroke-width: 0.5px;"/><path class="xgrid crisp" transform="translate(411.7392125984252,0)" d="M0,42.63779527559056v370.0021872265967" style="stroke: rgb(0, 0, 0); stroke-opacity: 0.1; stroke-width: 0.5px;"/><path class="xgrid crisp" transform="translate(494.38921259842516,0)" d="M0,42.63779527559056v370.0021872265967" style="stroke: rgb(0, 0, 0); stroke-opacity: 0.1; stroke-width: 0.5px;"/><path class="xgrid crisp" transform="translate(577.0292125984253,0)" d="M0,42.63779527559056v370.0021872265967" style="stroke: rgb(0, 0, 0); stroke-opacity: 0.1; stroke-width: 0.5px;"/><path class="xgrid crisp" transform="translate(659.6792125984252,0)" d="M0,42.63779527559056v370.0021872265967" style="stroke: rgb(0, 0, 0); stroke-opacity: 0.1; stroke-width: 0.5px;"/></g><g class="y"><path class="ygrid crisp" transform="translate(0,402.27779527559056)" d="M63.79921259842519,0h613.2349081364829" style="stroke: rgb(0, 0, 0); stroke-opacity: 0.1; stroke-width: 0.5px;"/><path class="ygrid crisp" transform="translate(0,286.16779527559055)" d="M63.79921259842519,0h613.2349081364829" style="stroke: rgb(0, 0, 0); stroke-opacity: 0.1; stroke-width: 0.5px;"/><path class="ygrid crisp" transform="translate(0,170.05779527559056)" d="M63.79921259842519,0h613.2349081364829" style="stroke: rgb(0, 0, 0); stroke-opacity: 0.1; stroke-width: 0.5px;"/><path class="ygrid crisp" transform="translate(0,53.947795275590565)" d="M63.79921259842519,0h613.2349081364829" style="stroke: rgb(0, 0, 0); stroke-opacity: 0.1; stroke-width: 0.5px;"/></g></g><g class="zerolinelayer"/><path class="xlines-below"/><path class="ylines-below"/><g class="overlines-below"/><g class="xaxislayer-below"/><g class="yaxislayer-below"/><g class="overaxes-below"/><g class="plot" transform="translate(63.79921259842519,42.63779527559056)" clip-path="url('#clip8dae2cxyplot')"><g class="scatterlayer mlayer"><g class="trace scatter tracec25f6e" style="stroke-miterlimit: 2; opacity: 1;"><g class="fills"/><g class="errorbars"/><g class="lines"><path class="js-line" d="M17.36,302.7L17.53,309.52L18.04,285L18.11,293.19L18.12,293.52L18.62,265.79L18.73,317.59L18.87,311.7L18.88,311.92L18.91,318.73L19.31,286.63L19.63,309.01L19.64,309.27L19.88,324.34L20.05,281.99L20.39,303.84L20.4,303.93L20.68,322.45L21.03,291.45L21.15,295.34L21.16,295.38L21.66,286.4L21.89,335.83L21.91,327.62L21.92,327.3L22.29,299.5L22.46,345.55L22.67,300.9L22.68,300.1L22.69,284.83L23.15,335.63L23.43,302.9L23.44,302.76L24.07,296.84L24.19,330.32L24.19,327.85L24.2,327.57L24.36,346.78L24.82,293.47L24.95,314.96L24.96,315.38L25.28,337.17L25.51,298.5L25.71,311.61L25.72,311.86L25.96,289.34L26.47,334.63L26.48,334.88L26.48,336.4L26.54,298.1L27.23,319.82L27.24,319.98L27.57,341.4L27.8,299.51L27.99,317.38L28,317.93L28.15,293.61L28.43,345.78L28.75,303.15L28.76,303.07L28.78,301.31L29.12,338.53L29.51,317.94L29.52,317.92L29.58,285.2L29.7,323.95L30.27,297.37L30.28,297.71L30.67,338.06L31.03,324.13L31.04,323.71L31.13,323.79L31.3,296.65L31.79,319.27L31.8,319.3L32.34,292.2L32.39,330.6L32.55,304.04L32.56,304.07L33.08,325.84L33.31,287.4L33.31,288.99L33.32,289.38L33.66,284.82L33.88,331.75L34.07,306.01L34.08,305.79L34.17,329.97L34.23,293.9L34.83,311.39L34.84,311.33L35.03,324.6L35.2,299.85L35.59,304.95L35.6,304.96L35.66,298.81L35.7,312.31L35.7,312.71L36.01,323.37L36.41,286.99L36.45,304.66L36.46,305.04L36.58,289.49L36.64,320.72L37.21,290.33L37.22,290.52L37.44,315.35L37.56,284.44L37.97,307.29L37.98,307.43L38.02,313.81L38.42,268.13L38.73,287.06L38.74,287.34L38.82,331.44L39.39,264.48L39.49,271.82L39.5,271.84L39.74,250.99L39.8,302.11L40.25,262.34L40.26,262.48L40.66,293.88L41.01,266.52L41.02,266.54L41.4,296.68L41.69,232.1L41.77,234.06L41.78,234.03L42.32,260.98L42.49,186.51L42.53,204.49L42.54,204.92L43.07,220.15L43.18,147.04L43.29,163.35L43.3,163.07L43.35,183.36L44.04,141.67L44.05,142.9L44.06,143.01L44.22,114.65L44.27,154.33L44.81,126.74L44.82,126.71L44.9,142.63L45.42,85.48L45.57,111.86L45.58,111.89L45.59,112.36L46.17,56.71L46.33,90.73L46.34,91.23L46.34,93.22L46.86,39.84L47.09,39.88L47.1,39.87L47.15,39.06L47.23,50.04L47.23,50.41L47.43,74.19L47.77,34.68L47.98,60.64L47.99,60.57L48.18,64.34L48.35,20.97L48.74,33.56L48.75,33.5L48.98,58.62L49.15,12.15L49.5,36.33L49.51,36.32L49.55,35.78L49.58,46.16L49.58,46.53L49.61,58.02L50.18,18.73L50.33,44.3L50.34,44.58L50.59,17.48L51.05,55.15L51.09,30.95L51.1,30.47L51.1,26.68L51.62,63.76L51.85,47.91L51.86,47.82L52.19,73.53L52.48,33.75L52.61,42.84L52.62,42.29L52.88,20.68L53.11,72.07L53.37,33.24L53.38,33.08L53.69,14.37L54.13,70.21L54.14,70.37L54.14,72.02L54.83,33.33L54.89,41.39L54.9,41.39L55,35.05L55,34.94L55.18,56.05L55.23,33.78L55.75,46.97L55.76,46.74L55.98,26.43L56.04,82.75L56.51,45.48L56.52,45.35L56.67,20.48L57.24,69.66L57.27,57.29L57.28,56.9L57.65,38.88L57.93,73.8L58.03,63.04L58.04,63.07L58.45,36.35L58.51,71.01L58.79,64.75L58.8,64.5L58.97,79.58L59.31,43.61L59.55,64.24L59.56,64.41L59.94,50.28L60.23,73.78L60.31,60.75L60.32,60.75L60.4,65.33L60.4,75L60.48,77.48L60.48,77.6L61.09,107.11L61.23,67L61.24,66.63L61.26,57.05L61.55,97.13L61.99,64.83L62,64.76L62.01,63.83L62.29,133.58L62.75,105.62L62.76,105.86L63.04,91.34L63.16,137.18L63.51,122.15L63.52,121.54L63.56,94.58L64.07,148.2L64.27,119.84L64.28,119.61L64.3,112.76L64.93,151.04L65.03,143.35L65.04,143.26L65.11,161.32L65.16,122.7L65.79,135.82L65.8,135.57L66.08,119.37L66.14,157.58L66.55,123.83L66.56,124.13L66.94,145.07L67.29,117.31L67.31,125.17L67.32,125.45L67.46,106.5L67.63,146.19L68.07,131.6L68.08,131.64L68.32,100.54L68.44,139.04L68.83,117.27L68.84,116.96L68.89,95.05L69.24,133L69.59,112.3L69.6,111.85L69.93,80.43L70.04,140.96L70.35,107.65L70.36,107.8L70.79,134.91L70.9,80.65L71.11,116.83L71.12,117.34L71.13,126.43L71.71,87.88L71.87,111.78L71.88,111.75L72.22,96.84L72.57,151.14L72.63,103.79L72.64,104.2L73.14,91.14L73.37,137.56L73.39,136.11L73.4,136.05L73.54,149.68L73.95,114.57L74.15,122.94L74.16,122.95L74.24,135.32L74.24,135.47L74.35,127.04L74.58,147.85L74.99,137.34L75,136.87L75.03,117.82L75.32,158.72L75.75,140.11L75.76,140.04L75.78,138.16L76.47,166.35L76.51,147.84L76.52,147.43L76.82,158.97L77.22,126.83L77.27,157.65L77.28,157.81L77.39,174.54L77.96,133.7L78.03,163.01L78.04,162.93L78.19,149.41L78.59,197.16L78.79,165.53L78.8,166.04L78.88,146.61L78.94,202.35L79.55,191.95L79.56,192.1L79.57,194.21L79.8,156.75L80.31,165.45L80.32,165.03L80.6,195.45L80.95,147.61L81.07,187.43L81.08,187.56L81.29,158.63L81.69,206.54L81.83,196.05L81.84,196.06L82.44,184.47L82.59,208.49L82.6,208.75L82.61,213.2L82.96,178.48L83.35,196.12L83.36,196.01L83.47,184.51L84.11,221.06L84.12,221.27L84.16,231.31L84.22,190.59L84.87,220.22L84.88,220.15L85.31,195.76L85.37,229.7L85.63,215.62L85.64,215.49L85.71,202.72L86.23,233.32L86.39,227.78L86.4,227.92L86.57,251.75L87.09,204.46L87.15,221.76L87.16,221.92L87.43,256.63L87.6,215.14L87.91,241.34L87.92,241.33L88.01,250.3L88.05,238.46L88.05,238.18L88.29,228.39L88.41,257.15L88.8,244.62L88.81,244.61L89.04,219.06L89.1,254.73L89.56,237.1L89.57,237.09L89.67,233.02L89.74,243.14L89.75,243.4L89.9,238.1L90.47,268.39L90.5,264.8L90.51,264.68L90.7,265.71L90.82,230.57L91.26,259.44L91.27,259.53L91.39,276.27L91.79,241.65L92.02,257.41L92.03,257.34L92.08,253.18L92.54,274.17L92.78,270.89L92.79,270.97L93.34,255.12L93.46,281.07L93.54,274.93L93.55,274.96L93.69,253.13L94.15,302.46L94.3,277.06L94.31,277.14L94.89,294.68L95.06,260.3L95.07,260.12L95.24,255.35L95.53,299.16L95.82,277.78L95.83,278.01L96.21,255.79L96.56,302.98L96.58,287.93L96.59,287.38L96.62,269.54L96.9,301.52L97.34,294.39L97.35,294.58L97.53,258.98L98.05,316.17L98.1,289.02L98.11,288.54L98.45,264.25L98.68,309.07L98.86,284.29L98.87,284.31L99.02,297.77L99.02,297.87L99.03,298.19L99.07,282.73L99.07,282.4L99.08,278.03L99.14,316.36L99.82,283.94L99.83,283.78L100,278.22L100.35,319.78L100.58,300.68L100.59,300.64L100.86,314.65L101.26,286.13L101.34,298.99L101.35,298.97L101.72,324.34L101.9,287.68L102.1,294.76L102.11,294.17L102.13,281.94L102.64,323.63L102.86,303.28L102.87,303.19L103.16,289.09L103.27,333.12L103.62,309.74L103.63,309.6L104.19,290.42L104.25,322.35L104.38,309.94L104.39,310.13L104.54,329.6L105,288.39L105.14,320.85L105.15,321.19L105.17,329.72L105.68,294.5L105.9,316.42L105.91,316.6L106.03,291.27L106.66,334.63L106.66,333.21L106.67,332.93L107.35,333.56L107.41,296.74L107.42,299.51L107.43,299.64L107.75,291.66L108.04,326.86L108.18,313.59L108.19,313.61L108.5,320.87L108.67,282.97L108.94,293.7L108.95,293.61L108.96,292.7L109.59,328.92L109.7,302.83L109.71,303.09L110.1,289.02L110.16,327.17L110.46,306.98L110.47,307.23L110.62,326.54L111.19,298.1L111.22,306.62L111.23,306.89L111.42,296.23L111.54,343.03L111.98,325.52L111.99,325.87L112,330.15L112.57,291.17L112.74,312.81L112.75,312.69L113.43,349.59L113.49,301.4L113.5,305.79L113.51,306.07L113.66,330.15L113.72,299.84L114.26,310.47L114.27,310.24L114.81,291.22L114.92,331.17L115.02,297.64L115.03,297.73L115.67,287.28L115.73,328.35L115.78,315.13L115.79,314.91L115.9,278.58L116.07,328.33L116.54,311.98L116.55,312.09L116.7,328.23L116.88,289.06L117.3,322.93L117.31,322.98L117.62,330.33L117.74,295.19L118.06,317.31L118.07,317.27L118.6,283.31L118.77,331.71L118.82,300.17L118.83,299.63L118.94,290.75L119.11,321.98L119.58,313.38L119.59,313.38L119.66,306.84L119.66,306.64L119.92,319.71L120.03,279.57L120.41,309.72L120.42,309.92L120.55,330.98L120.66,272.66L121.17,299.79L121.18,299.48L121.64,303.2L121.75,276.26L121.93,289.19L121.94,289.57L121.98,308.32L122.61,279.97L122.69,286.24L122.7,286.36L122.73,290.83L123.3,245.56L123.45,276.87L123.46,276.63L123.99,300.51L124.21,242.24L124.22,242.06L124.51,257.22L124.97,205.81L124.98,205.75L125.14,236.82L125.31,188.03L125.73,196.06L125.74,196.42L125.77,210.36L126.12,150.85L126.49,173.6L126.5,173.38L126.69,117.23L127.25,148.05L127.26,148.35L127.26,151.02L127.84,88.29L128.01,104.69L128.02,104.28L128.3,116.52L128.47,64.04L128.77,79.59L128.78,79.74L129.1,91.08L129.44,47.35L129.53,61.43L129.54,61.43L129.62,68.92L129.62,69.01L129.79,77.3L130.31,37.89L130.37,52.33L130.38,52.29L130.59,57.7L130.76,24.2L131.13,47.11L131.14,47.17L131.45,12.03L131.63,55.54L131.89,44.97L131.9,45.14L132.14,15.13L132.43,53.54L132.65,42.57L132.66,42.41L132.95,18.13L133.12,55.36L133.41,39.46L133.42,39.44L133.81,32.52L134.15,49.75L134.17,48.16L134.18,48.09L134.27,23.05L134.5,66.02L134.93,45.86L134.94,45.61L135.13,20.24L135.3,57.98L135.69,37.22L135.7,37.08L135.7,36.43L135.76,59.16L136.45,54.63L136.46,54.37L136.73,58.81L137.14,27.93L137.21,52.43L137.22,52.58L137.54,59.91L137.94,22.28L137.97,35.03L137.98,35.38L138.57,57.04L138.63,26.1L138.73,44.8L138.74,45L138.86,63.18L139.09,22.77L139.49,55.64L139.5,55.5L139.78,36.5L140,64.11L140.25,52.21L140.26,52.29L140.46,82.7L140.75,27.79L141.01,42.58L141.02,42.56L141.32,34.51L141.67,65.85L141.77,61.14L141.78,61.09L142.24,36.8L142.36,82.48L142.53,65.65L142.54,65.58L143.1,36.32L143.22,91.12L143.29,90.5L143.3,90.97L143.33,109.7L143.56,72.34L144.05,105.32L144.06,106.13L144.08,127.23L144.48,75.66L144.81,110.67L144.82,110.83L145.11,87.12L145.29,121.01L145.57,111L145.58,110.57L145.63,86.66L145.97,136.61L146.33,126.25L146.34,126.17L146.66,140.38L146.78,106.83L147.09,124.62L147.1,124.92L147.35,109.17L147.75,163.68L147.85,139.75L147.86,139.89L148.38,120.7L148.5,162.62L148.61,135.66L148.62,135.71L148.79,143.42L148.84,117.15L149.37,131.39L149.38,131.44L149.82,149.48L150.05,108.34L150.13,133.83L150.14,134.4L150.16,150.89L150.89,101.42L150.9,101.29L150.97,86.97L151.54,130.26L151.65,114.7L151.66,108.38L151.77,132.76L152.11,96.34L152.41,119.78L152.42,119.68L152.57,81.48L153.03,128.19L153.17,106.76L153.18,107.1L153.32,123.97L153.55,84.11L153.93,119.14L153.94,119.61L154.18,92.26L154.53,129.79L154.69,98.88L154.7,98.69L154.87,92.47L155.44,137.12L155.45,131.41L155.46,130.89L155.73,98.85L156.13,137.58L156.21,120.49L156.22,120.85L156.3,106.7L156.97,151.73L156.98,151.8L157.11,129.3L157.17,154.24L157.73,145.07L157.74,145.11L157.85,136.4L158.37,161.43L158.49,153.28L158.5,153.12L159,162.35L159.17,131.5L159.25,150.04L159.26,149.88L159.35,123.18L159.69,177.96L160.01,159.17L160.02,159.19L160.44,143.59L160.67,172.24L160.77,167.85L160.78,167.95L160.9,146.93L161.47,178.97L161.53,168.89L161.54,168.88L161.64,164.18L161.67,175L161.67,175.43L161.81,131.86L162.39,197.11L162.42,192.4L162.43,192.27L162.56,153.92L162.85,199.12L163.18,187.04L163.19,186.86L163.42,145.8L163.54,199.36L163.94,186.43L163.95,186.52L164.22,162.66L164.4,208.45L164.7,194.42L164.71,194.57L165.09,158.49L165.43,200.26L165.46,198.5L165.47,198.45L165.77,206.3L166.22,188.46L166.23,188.21L166.23,185.98L166.98,220.23L166.98,219.62L166.99,219.5L167.15,193.22L167.44,233.22L167.74,214.58L167.75,214.27L167.78,201.81L168.36,244.94L168.5,216.25L168.51,216.27L168.93,213.21L168.99,248.77L169.26,218.78L169.27,218.52L169.28,215.87L169.96,252.97L170.02,231.06L170.03,231.19L170.14,272.39L170.54,214.49L170.78,251.12L170.79,250.6L170.83,229.57L171.23,262.47L171.54,244.19L171.55,243.99L171.86,263.73L172.15,233.02L172.3,246.83L172.31,247.09L172.37,267.09L173.01,228.17L173.06,258.79L173.07,258.79L173.12,258.43L173.14,263.74L173.14,263.97L173.18,276.52L173.41,243.04L173.89,255.11L173.9,255.33L174.15,293.59L174.27,239.93L174.65,257.53L174.66,257.53L174.73,247.61L174.85,264.6L174.85,264.71L174.9,274L174.97,259.87L174.97,259.67L175.01,250.13L175.07,273.49L175.72,259.01L175.73,259.14L175.88,301.21L176.05,240.84L176.48,263.32L176.49,262.95L176.62,247.54L176.68,298.79L177.24,274.88L177.25,274.92L177.43,241.58L177.65,298.91L178,270.49L178.01,270.73L178.52,294.92L178.57,262.48L178.76,274.92L178.77,275.32L179.03,271.23L179.26,299.29L179.52,281.93L179.53,282.05L179.89,266.11L180.07,314.04L180.28,285.73L180.29,285.59L180.41,310.75L180.52,258.36L181.04,284.14L181.05,284.46L181.21,316.53L181.73,280.42L181.8,306.44L181.81,306.22L182.07,275.02L182.48,319.63L182.56,290.02L182.57,289.95L183.05,283.66L183.32,316.31L183.33,316.41L183.34,317.62L183.51,281.07L184.08,301.1L184.09,300.94L184.2,286.33L184.48,321.67L184.84,300.78L184.85,301.15L184.94,333.67L185.52,289.61L185.6,312.07L185.61,311.54L185.75,330.78L186.21,294.11L186.36,305.81L186.37,305.42L186.84,337.99L187.12,287.65L187.13,288.02L187.47,325.31L187.88,310.34L187.89,310.18L188.04,289.95L188.62,324.22L188.64,322.29L188.65,322.23L188.85,323.62L189.08,295.37L189.4,315.93L189.41,316.1L189.94,303.23L189.99,333.6L190.16,311.89L190.17,311.71L190.8,322.89L190.86,283.52L190.92,315.35L190.93,315.63L190.97,328.97L191.66,300.96L191.68,317.98L191.69,318.61L192.12,340.6L192.4,293.21L192.44,308.83L192.45,309.21L192.58,291.63L192.98,329.84L193.2,319.37L193.21,319.79L193.27,328.07L193.32,298.04L193.96,307.46L193.97,308.13L194.01,341.01L194.07,299.98L194.72,316.31L194.73,316.35L194.87,298.63L194.99,347.11L195.48,317.84L195.49,318.16L195.79,274.74L195.91,330.49L196.24,313.97L196.25,313.79L196.54,338.28L196.65,297.61L197,328.46L197.01,328.34L197.76,295.08L197.77,294.87L197.8,287.39L197.97,330.83L198.52,305.34L198.53,305.5L198.6,339.16L199.06,275.88L199.28,329.06L199.29,329.34L199.92,288.05L199.98,344L200.04,322.74L200.05,322.38L200.44,271.01L200.67,323.58L200.8,320.1L200.81,320.1L200.87,311.25L200.87,310.91L201.24,325.43L201.59,281.42L201.62,298.4L201.63,298.84L201.7,336.26L202.22,288.42L202.38,312.6L202.39,312.69L202.62,290.39L202.85,320.77L203.14,298.25L203.15,298.59L203.19,316.59L203.42,264.49L203.9,304.89L203.91,304.78L204.17,313.92L204.29,266.47L204.66,279.7L204.67,279.49L204.74,262.58L205.32,300.46L205.42,296.69L205.43,297.16L205.43,300.94L205.83,259.51L206.18,286.17L206.19,286.09L206.75,287.73L206.93,227.34L206.94,234.24L206.95,234.59L207.1,266.85L207.61,201.05L207.7,218.4L207.71,218.4L207.75,209.25L207.75,208.88L207.96,234.78L208.5,170.48L208.51,170.39L208.76,144.78L208.82,183.93L209.26,162.96L209.27,162.76L209.62,108.4L210.02,142.66L210.03,142.32L210.2,88.29L210.78,112.61L210.79,112.46L211.06,124.06L211.52,61.47L211.54,69.44L211.55,69.71L211.75,84.17L212.15,39.81L212.3,44.96L212.31,44.89L212.44,77.63L212.89,25.21L213.06,29.9L213.07,29.55L213.3,61.55L213.82,25.49L213.83,25.47L214.04,23.94L214.27,62.96L214.58,34.4L214.59,34.23L214.79,54.86L215.13,25.6L215.34,39.76L215.35,39.81L215.53,52.92L216.05,25.35L216.1,29.56L216.11,29.63L216.62,57.99L216.86,39.51L216.87,39.51L216.93,48.61L216.93,49.02L216.97,64.26L217.26,23.3L217.68,37.9L217.69,38.07L218,69.07L218.44,23.76L218.45,23.35L218.46,16.27L218.81,68.45L219.2,48.73L219.21,48.7L219.67,32.78L219.9,59L219.96,41.19L219.97,41.38L220.13,27.94L220.24,78.15L220.72,44.13L220.73,44.11L220.76,43.76L220.8,54.2L220.8,54.43L220.93,27.97L221.22,64.99L221.55,58.85L221.56,59.31L221.56,61.63L221.73,34.13L222.31,49.17L222.32,49.56L222.36,69.64L222.94,22.9L223.07,43.29L223.08,43.31L223.34,72.5L223.57,26.1L223.83,63.86L223.84,63.79L224.14,79.12L224.26,47.45L224.59,53.03L224.6,53.13L224.83,78.61L225.35,30.36L225.35,33.72L225.36,34.28L225.75,88.13L226.11,78.83L226.12,79.34L226.21,52.3L226.78,109.35L226.87,81.38L226.88,81.22L227.41,66.93L227.59,113.64L227.63,91.9L227.64,91.46L228.16,77.82L228.39,130.52L228.4,130.59L228.91,81.27L229.14,146.03L229.15,142.42L229.16,142.23L229.54,145.72L229.6,104.02L229.91,121.94L229.92,121.6L229.94,112.84L230.17,154.53L230.67,133.67L230.68,134.07L231.03,159.43L231.2,122.3L231.43,151.06L231.44,151.18L231.49,158.12L232.18,114.53L232.19,121.22L232.2,121.61L232.58,159.34L232.87,98.27L232.95,137.8L232.96,138.14L233.04,102.79L233.1,148.88L233.71,119.82L233.72,119.86L234.07,151.21L234.42,80.86L234.47,116.27L234.48,116.15L234.93,101.91L235.11,142.08L235.23,114.89L235.24,115.06L235.45,129.9L235.97,89.61L235.99,99.44L236,99.78L236.37,132.39L236.71,97.38L236.75,100.3L236.76,100.37L237,87.99L237.4,127.27L237.51,117.54L237.52,117.5L237.63,88.74L238.09,138.92L238.27,118.99L238.28,118.83L238.49,101.01L238.66,141.63L239.03,121L239.04,121.01L239.12,133.15L239.12,133.36L239.7,113.19L239.81,150.02L239.87,143.48L239.88,143.04L240.27,112.72L240.39,156.69L240.63,128.26L240.64,128.12L240.67,122.62L241.19,169.54L241.39,138.05L241.4,137.85L241.48,178.85L241.94,123.84L242.15,150.4L242.16,150.16L242.45,126.57L242.91,182.31L242.91,180.03L242.92,179.46L242.97,148.08L243.48,184.73L243.67,159.56L243.68,159.01L243.71,136.44L243.83,189.18L244.43,167.6L244.44,167.66L244.58,184.9L244.75,145.11L245.19,155.82L245.2,155.44L245.21,150.86L245.72,194.79L245.95,166.47L245.96,166.66L246.7,193.19L246.71,189.86L246.72,189.65L246.93,159.05L247.04,214.41L247.47,208.21L247.48,208.23L247.67,169.22L248.02,213.03L248.23,201.24L248.24,201.68L248.48,181.21L248.94,224.23L248.99,220.51L249,220.11L249.11,180.88L249.74,228.17L249.75,222.08L249.76,221.64L249.97,189.29L250.26,232.92L250.51,217.27L250.52,217.4L250.89,198.49L251,246.52L251.27,226.23L251.28,226.75L251.46,213.72L251.86,242.9L252.03,237.16L252.04,237.35L252.38,259.81L252.44,219.57L252.79,236.64L252.8,237.09L253.41,260.44L253.55,224.57L253.56,224.25L253.59,214.09L254.22,258.29L254.31,237.05L254.32,237.12L254.45,235.36L254.96,271.08L255.07,259.3L255.08,259.26L255.65,291.12L255.77,239L255.83,253.61L255.84,253.68L256.4,271.24L256.51,225.9L256.59,255.65L256.6,255.38L256.63,246.21L257.03,293.34L257.35,280.4L257.36,280.4L257.39,268.96L257.39,268.36L257.55,242.91L257.83,281.2L258.14,262.2L258.15,262.18L258.23,239.95L258.58,296.77L258.9,259.62L258.91,259.78L259.21,258.74L259.33,293.52L259.66,269.72L259.67,269.86L259.73,250.41L260.36,290.67L260.42,272.81L260.43,272.93L260.7,254.69L261.1,304.84L261.18,278.62L261.19,278.47L261.45,270.47L261.94,285.3L261.95,285.34L262.25,273.72L262.65,313.29L262.7,284.04L262.71,283.49L262.83,299.06L263.17,278.53L263.46,294.72L263.47,294.82L263.86,267.46L264.09,306.84L264.22,305.34L264.23,305.29L264.55,313.62L264.61,279.45L264.98,293.98L264.99,294.07L265.35,284.06L265.47,315.2L265.74,308.96L265.75,309.25L265.81,280.79L266.44,321.2L266.5,297.22L266.51,297.49L266.61,286.48L267.19,317L267.26,308.17L267.27,308.19L267.42,314.93L267.5,305.22L267.5,304.98L267.82,320.95L268.16,281.74L268.25,314.88L268.26,315.29L268.28,325.07L269.01,288.14L269.02,287.91L269.25,329.41L269.48,284.34L269.77,300.06L269.78,300.51L269.83,325.29L270.06,292.87L270.53,308.3L270.54,308.42L270.75,325.66L270.98,289.89L271.29,301.13L271.3,300.94L271.61,328.17L271.72,280.79L272.05,315.48L272.06,315.78L272.76,327.76L272.81,289.12L272.81,289.96L272.82,290.37L273.39,330.74L273.57,308.44L273.58,308.38L273.9,296.39L274.25,337.76L274.33,307.51L274.34,307.58L274.53,331.84L274.71,297.39L275.09,300.56L275.1,300.62L275.57,290.44L275.68,331.83L275.85,304.94L275.86,305.26L276.26,300.53L276.49,330.76L276.61,328.37L276.62,328.35L276.72,330.04L276.79,317.82L276.79,317.68L276.89,296.45L277.03,312.48L277.04,312.83L277.58,289.3L277.75,328.4L277.79,307.83L277.8,307.4L278.09,331.21L278.32,276.55L278.55,326.28L278.56,326.03L278.78,284.67L279.13,330.36L279.31,310.43L279.32,310.6L279.53,332.88L279.99,294.2L280.07,313.1L280.08,312.94L280.27,294.21L280.33,324.82L280.83,320.4L280.84,320.62L281.13,327.98L281.59,295.7L281.59,296.18L281.6,296.66L281.82,295.12L282.23,330.47L282.35,307.08L282.36,307.11L282.57,322.88L283.03,298.92L283.11,314.84L283.12,314.86L283.2,292.29L283.32,321.78L283.87,316.84L283.88,317.01L283.89,319.58L284.63,287.89L284.64,287.5L284.92,335.93L285.39,300.73L285.4,300.67L285.61,325.44L286.13,286.5L286.15,290.55L286.16,290.7L286.64,305.28L286.87,269.94L286.91,283.12L286.92,283.43L287.22,256.5L287.39,311.78L287.67,283.71L287.68,284.08L287.85,291.38L288.42,255.75L288.43,259.35L288.44,259.68L288.6,286.11L288.77,252.85L289.19,270.13L289.2,270.53L289.23,283.77L289.57,228.44L289.95,243.08L289.96,243.06L290.03,251.88L290.38,183.42L290.71,209.28L290.72,209.19L290.78,220.85L291.35,163.57L291.47,165.12L291.48,165.03L291.87,188.66L292.1,113.57L292.23,121.22L292.24,121.36L292.56,149.01L292.84,82.28L292.99,96.13L293,96.37L293.3,128.32L293.75,57.7L293.76,57.1L293.76,53.48L294.34,95.89L294.51,77.29L294.52,76.99L295.02,21.66L295.27,58.71L295.28,59.03L295.43,29.41L295.48,83.91L296.03,59.53L296.04,59.96L296.06,69.83L296.4,19.95L296.79,45.35L296.8,45.76L297.09,53.94L297.49,12.72L297.55,44.28L297.56,44.51L297.84,30.47L298.18,58.67L298.31,42.18L298.32,41.87L298.53,27.61L298.93,55.19L299.07,52.62L299.08,52.66L299.27,58.88L299.67,29.09L299.83,49.69L299.84,49.88L300.25,30.69L300.36,68.91L300.59,50.57L300.6,50.33L301.11,22.05L301.22,56.86L301.35,48.94L301.36,48.79L301.45,64.03L302.03,28.67L302.11,50.3L302.12,50.03L302.49,63.94L302.83,28.98L302.87,48.64L302.88,49.06L303.06,65.2L303.52,15.33L303.63,42.71L303.64,42.71L303.71,48.7L303.71,48.97L303.81,66.07L304.03,24.19L304.46,58.43L304.47,58.27L304.78,58.68L305.18,31.85L305.22,47.24L305.23,47.59L305.76,32.56L305.87,76.99L305.98,74.71L305.99,75.11L306.33,35.35L306.62,96.34L306.74,53.14L306.75,53.12L306.9,43.63L307.48,79.5L307.5,67.73L307.51,67.3L307.54,53.35L307.82,86.36L308.26,59.3L308.27,59.36L308.34,56.66L308.63,101.64L309.02,75.03L309.03,74.77L309.43,112.77L309.72,58.72L309.78,95.04L309.79,95.25L309.95,86.88L310.18,119.13L310.54,98.77L310.55,99.05L310.81,71.94L310.98,139.74L311.3,116.2L311.31,116.25L311.55,108.54L311.78,161.14L312.06,150.76L312.07,151.08L312.07,152.67L312.59,114.76L312.82,133.97L312.83,134.02L313.1,112.56L313.16,161.96L313.58,161.47L313.59,161.6L314.02,116.34L314.31,170.28L314.34,158.15L314.35,157.83L314.42,108.38L314.94,173.51L315.1,139.19L315.11,139.32L315.23,144.37L315.8,121.96L315.86,138.52L315.87,137.91L316.14,95.06L316.62,117.01L316.63,116.73L316.95,134.28L317.01,100.34L317.38,103.27L317.39,103.32L317.52,149.68L317.98,87.4L318.14,122.65L318.15,122.84L318.15,124.34L318.44,85.28L318.9,113.26L318.91,112.92L319.24,85.08L319.66,120.94L319.67,121.04L319.76,101.3L320.05,130.61L320.42,125.99L320.43,125.88L321.02,96.49L321.14,142.17L321.18,116.12L321.19,115.59L321.6,149.49L321.71,90.86L321.94,115.01L321.95,115L322,114.66L322.01,120.16L322.01,120.62L322.46,162.92L322.76,140.3L322.77,140.46L323.2,125.61L323.32,168.26L323.52,167.16L323.53,167.32L323.55,171.2L323.66,130.23L324.28,154.23L324.29,154.33L324.7,125.33L325.04,181.65L325.04,180.13L325.05,179.75L325.67,137.47L325.8,164.36L325.81,164.27L325.96,144.84L326.53,182.25L326.56,174.64L326.57,174.41L326.88,144.77L327.22,180.18L327.32,157.74L327.33,157.57L327.45,185.03L327.8,151.56L328.08,156.76L328.09,157.13L328.43,194.62L328.84,185.49L328.85,185.91L329.12,159.89L329.4,207.08L329.6,179.43L329.61,179.17L329.92,165.43L329.98,208.65L330.36,191.1L330.37,191.02L330.49,169.21L330.89,212.29L331.12,193L331.13,193.08L331.58,179.2L331.87,219.39L331.88,215.92L331.89,215.69L332.04,218.96L332.33,179.12L332.64,209.82L332.65,209.78L333.25,194.48L333.36,233.26L333.4,229.27L333.41,229.18L333.82,204.33L334.16,242.53L334.17,242.84L334.34,205.2L334.57,253.24L334.92,221.83L334.93,221.45L334.97,204.02L335.6,253.83L335.68,239.7L335.69,239.87L336,255.69L336.17,223.45L336.44,241.18L336.45,241.21L336.58,225.44L336.98,276.1L337.2,239.07L337.21,238.95L337.32,225.23L337.61,261.48L337.96,255.76L337.97,255.72L338.13,268.53L338.41,229.87L338.72,251.51L338.73,251.55L338.82,250.99L338.93,272.79L339.48,260.22L339.49,260L339.68,237.17L339.85,282.41L340.24,256.82L340.25,256.79L340.54,282.34L340.88,244.3L341,268.52L341.01,268.9L341.05,291.86L341.11,245.03L341.76,276.95L341.77,277.15L341.97,299.56L342.03,258.5L342.52,267.17L342.53,267.1L342.6,250.21L343.18,292.13L343.28,280.42L343.29,280.61L343.46,297.04L343.52,244.87L344.04,268.96L344.05,269.19L344.27,266.4L344.38,294L344.8,274.68L344.81,274.54L344.84,269.35L345.53,302.75L345.56,298.98L345.57,298.87L345.76,274.25L346.32,304.03L346.33,304.44L346.33,307.73L346.74,274.35L347.08,304.29L347.09,304.32L347.65,275.94L347.83,314.87L347.84,307.74L347.85,307.38L348.34,281.4L348.4,318.45L348.6,300.58L348.61,300.54L348.86,283.65L348.97,319.64L349.36,294.26L349.37,294.31L349.43,291.22L349.66,327.65L350.12,302.38L350.13,302.69L350.18,319.62L350.81,273.13L350.88,310.68L350.89,310.61L350.98,290.38L351.5,329.76L351.64,321.01L351.65,321.03L352.19,288.77L352.36,326.1L352.4,293.65L352.41,292.96L352.42,284.68L353.16,321.52L353.16,321.26L353.17,320.99L353.34,328.78L353.79,298.06L353.92,304.38L353.93,304.27L354.14,288.89L354.25,328.71L354.68,323.56L354.69,323.46L355.17,294.31L355.44,328.73L355.45,329.48L355.46,339.96L355.63,292.87L356.2,325.6L356.21,326.12L356.55,278.14L356.66,328.84L356.96,301.08L356.97,300.99L357.18,338.23L357.53,296.73L357.72,299.03L357.73,298.75L357.75,290.07L357.93,343.91L358.48,308.37L358.49,308.09L358.67,301.94L358.96,318.41L359.24,305.79L359.25,305.77L359.48,292.64L359.76,330.36L360,317.55L360.01,317.38L360.34,321.33L360.74,301.36L360.76,307.74L360.77,307.98L361.14,295.4L361.43,329.73L361.52,304.93L361.53,305.01L362.17,333.89L362.23,301.74L362.28,306.46L362.29,306.55L362.81,280.67L362.86,326.2L363.04,325.03L363.05,324.97L363.15,303.36L363.21,339.41L363.8,310.91L363.81,310.85L364.36,297.56L364.41,319.81L364.56,303.88L364.57,303.94L364.76,290.57L365.1,338.42L365.32,313.02L365.33,313.28L365.73,328.71L365.9,281.04L366.08,311.87L366.09,312.24L366.13,331.38L366.77,290.49L366.84,313.66L366.85,313.1L366.88,289.85L367.57,329.01L367.6,323.39L367.61,323.23L368.03,326.91L368.14,284.45L368.36,290.92L368.37,290.92L368.89,323.59L368.95,267.33L369.12,296.75L369.13,296.62L369.29,319.9L369.58,274.87L369.88,302.59L369.89,302.84L369.92,312.5L370.38,266.13L370.64,274.25L370.65,274L371.3,294.48L371.4,267.31L371.41,266.94L371.82,295.84L372.16,241.18L372.16,243.04L372.17,243.5L372.39,271.37L372.91,192.81L372.92,202.51L372.93,203.02L373.54,178.69L373.65,233.13L373.68,219.87L373.69,219.47L374.05,148.03L374.44,163.12L374.45,162.97L374.63,163.07L374.86,114.28L375.2,146.5L375.21,146.38L375.49,158.75L375.66,86.46L375.96,96.58L375.97,96.67L376.12,103.9L376.41,51.19L376.72,65.58L376.73,65.72L377.04,88.28L377.33,48.29L377.48,71.93L377.49,72.24L377.5,76.27L378.07,26.98L378.24,41.36L378.25,41.71L378.76,65.02L378.82,31.4L379,39.4L379.01,39.22L379.39,57.75L379.68,10.47L379.76,32.94L379.77,33.05L379.91,11.89L380.37,69.03L380.52,53.7L380.53,54.21L380.54,61.84L380.6,12.17L381.28,45.92L381.29,45.94L381.92,16.25L382.03,66.04L382.04,64.03L382.05,63.88L382.38,26.84L382.66,75.01L382.8,42.76L382.81,42.46L382.95,25.36L383.07,68.31L383.56,37.55L383.57,37.39L383.81,17.92L383.87,62.54L384.32,34.44L384.33,34.4L384.56,64.33L384.84,29.45L385.08,41.34L385.09,41.39L385.53,15.92L385.59,70.54L385.84,29.94L385.85,29.88L385.93,58.15L386.05,24.26L386.6,53.75L386.61,53.76L386.62,53.95L386.64,43.47L386.65,42.99L386.74,75.67L386.8,24.54L387.4,38.18L387.41,37.88L387.48,25.87L388.06,68.77L388.16,51.89L388.17,52.1L388.4,58.9L388.63,33.76L388.92,48.16L388.93,48.36L389.15,35.92L389.44,84.19L389.68,52.77L389.69,53.31L390.01,86.2L390.12,48.29L390.44,58.99L390.45,58.73L390.93,46.75L390.99,89.78L391.2,71.71L391.21,71.47L391.27,58.56L391.5,90.25L391.96,67.49L391.97,67.83L392.71,114.47L392.72,107.11L392.73,106.7L392.76,89.93L393.45,122.5L393.48,107.61L393.49,107.16L393.57,56.65L394.03,140.65L394.24,139.3L394.25,139.61L394.31,112.88L394.66,158.98L395,138.99L395.01,139.05L395.12,118.26L395.58,165.44L395.76,144.36L395.77,144.52L396.38,103.02L396.5,165.06L396.52,151.56L396.53,151.12L397.01,157.91L397.07,123.09L397.28,141.01L397.29,141.11L397.36,151.82L397.99,108.05L398.04,108.68L398.05,109.07L398.39,153.01L398.62,101.98L398.8,125.59L398.81,125.56L398.91,132.57L399.31,95.33L399.56,125.43L399.57,125.35L400.05,94.65L400.28,133.79L400.32,116.94L400.33,116.55L400.45,134.01L400.51,99.55L401.08,105.14L401.09,105L401.2,117.66L401.78,91.34L401.84,116.7L401.85,116.77L402.23,129.71L402.58,93.92L402.6,105.5L402.61,105.93L402.81,95.99L402.87,138.22L403.36,121.51L403.37,121.79L403.44,94.91L403.67,137.53L404.12,108.45L404.13,108.32L404.13,107.94L404.65,148.06L404.88,135.15L404.89,134.61L404.93,108.1L405.45,151.83L405.64,133.9L405.65,134.14L405.74,155.98L406.37,125.12L406.4,144.62L406.41,145.12L406.54,169.57L406.94,125.99L407.16,159.11L407.17,159.09L407.34,177.58L407.92,132.15L407.92,134.74L407.93,135.06L408.61,180.45L408.68,168.46L408.69,168.28L408.95,197.2L409.35,154.87L409.44,164.58L409.45,164.53L409.58,157.74L409.64,195.4L410.2,167.65L410.21,167.55L410.56,195.34L410.73,154.41L410.96,157.53L410.97,157.8L411.13,201.13L411.65,155.18L411.72,192.3L411.73,192.04L411.88,165.46L412.39,203.43L412.48,179.82L412.49,179.75L412.74,210.33L413.08,171.62L413.24,184.12L413.25,184.21L413.66,177.33L413.94,219.02L414,188.04L414.01,188.27L414.29,236.92L414.63,182.41L414.76,188.59L414.77,188.44L414.8,182.55L415.15,232.9L415.52,217.77L415.53,217.99L415.95,201.83L416.07,233.88L416.28,209.27L416.29,208.99L416.58,191.4L416.98,245.32L417.04,235.35L417.05,235.2L417.39,246.53L417.67,214.19L417.8,232.53L417.81,232.47L418.3,213.58L418.36,262.6L418.56,234.45L418.57,234.51L418.94,223.27L419.11,253.68L419.32,242.91L419.33,242.84L419.8,231.51L419.85,262.36L420.08,251.82L420.09,251.76L420.2,270.93L420.83,236.86L420.84,242.74L420.85,243.13L421.17,224L421.29,280.64L421.6,269.56L421.61,269.76L421.63,275.56L421.98,245.92L422.36,259.25L422.37,259.28L422.84,239.43L423.01,283.02L423.12,261.58L423.13,261.92L423.53,246.62L423.76,281.61L423.88,268.43L423.89,268.24L424.1,245.75L424.45,293.57L424.64,270.12L424.65,270.01L425.25,290.78L425.4,251.74L425.41,251.26L425.42,243.66L425.65,294.04L426.16,274.09L426.17,274.07L426.45,295.93L426.57,259.99L426.92,291.97L426.93,291.74L427.2,310.82L427.26,275.23L427.68,283.99L427.69,283.72L427.72,274.8L428.35,337.88L428.44,291.75L428.45,291.93L428.81,311.09L428.92,253.18L429.2,298.69L429.21,298.58L429.84,305.36L429.9,259.42L429.96,302.81L429.97,302.75L430.19,280.62L430.59,324.48L430.72,293.52L430.73,293.35L430.82,307.78L431.1,280.26L431.48,290.48L431.49,290.41L431.85,271.58L431.91,314.35L432.24,293.96L432.25,294.21L432.42,281.01L432.77,329.01L433,303.16L433.01,303.35L433.34,277.87L433.69,329.08L433.76,307.38L433.77,307.49L434.03,276.3L434.49,321.09L434.52,303.89L434.53,303.43L434.89,330.8L435.28,284.99L435.29,284.64L435.29,281.86L435.41,319.84L436.04,305.61L436.05,305.98L436.15,328.05L436.79,298.87L436.8,299.02L436.81,299.03L436.87,310.67L436.87,311.07L437.24,331.04L437.3,287.45L437.62,318.82L437.63,319.09L437.65,325.07L438.11,292.19L438.38,318.92L438.39,318.93L438.54,303.67L438.54,303.31L438.79,281.3L438.91,337.99L439.29,321.55L439.3,321.58L439.31,322.05L439.71,282.38L440.05,307.99L440.06,307.92L440.4,332.92L440.69,292.38L440.81,324.46L440.82,324.27L441.32,327.8L441.55,288.7L441.57,293.24L441.58,293.41L441.84,290.38L442.33,321.73L442.34,321.76L442.75,349.24L442.98,288.77L443.09,308.53L443.1,308.11L443.33,289.78L443.39,326.81L443.85,298.82L443.86,299.19L444.3,289.57L444.36,329.01L444.61,304.32L444.62,304.63L444.71,332.99L445.34,295.98L445.37,315.62L445.38,316.12L445.97,293.64L446.08,359.53L446.13,300.33L446.14,299.23L446.66,328.58L446.83,279.9L446.89,314.91L446.9,314.6L447.06,322.18L447.63,285.79L447.65,301.08L447.66,301.75L447.8,329.51L448.09,289.51L448.41,301.25L448.42,300.99L448.61,292.87L449.12,333.86L449.17,310.22L449.18,309.76L449.41,326.46L449.76,298.13L449.93,314.64L449.94,315.03L449.99,335.4L450.39,293.24L450.69,324.01L450.7,323.59L451.45,291.53L451.46,291.2L451.48,283.58L451.82,332.64L452.21,327.36L452.22,327.77L452.22,331.53L452.97,295.22L452.97,296.32L452.98,296.54L453.26,339.31L453.66,271.36L453.73,305.78L453.74,305.63L454.12,311.79L454.29,269.53L454.49,279.52L454.5,279.38L454.75,304.3L454.86,262.28L455.25,297.37L455.26,297.65L455.27,300.67L455.9,259.5L456.01,269.23L456.02,269.14L456.36,283.51L456.59,243.08L456.77,247.12L456.78,247.07L457.22,271.9L457.39,222.34L457.53,256.32L457.54,256.31L457.66,243.78L457.66,243.51L458.13,263.57L458.41,234.62L458.42,234.58L458.71,253.79L459.05,215.33L459.17,227.05L459.18,227.21L459.34,249.98L459.74,217.74L459.93,226.81L459.94,226.66L460.03,208.55L460.55,246.19L460.69,217.37L460.7,217.32L461.18,190.46L461.29,227.56L461.45,214.07L461.46,214.1L461.58,225.02L461.98,193.45L462.21,208.57L462.22,208.5L462.38,218.22L462.96,185.81L462.97,193.79L462.98,194.21L463.3,216.06L463.42,178.28L463.73,211.67L463.74,211.94L464.22,228.06L464.45,182.33L464.49,207.04L464.5,207.55L464.51,213.21L464.74,172.04L465.25,210.14L465.26,209.62L465.31,180.15L466.01,188.13L466.02,188.2L466.57,223.23L466.63,177.67L466.77,185.57L466.78,185.54L467.2,218.09L467.53,181.26L467.54,180.79L467.55,174.75L467.89,226.02L468.29,201.83L468.3,201.76L468.58,208L469.04,175.15L469.05,176.46L469.06,176.54L469.16,173.64L469.38,209.7L469.81,198.95L469.82,199.22L470.02,212.75L470.07,176.44L470.57,179.38L470.58,179.39L470.65,203.66L470.87,179.93L470.87,179.53L471.34,206.32L471.45,168.21L471.62,189.61L471.63,189.67L471.91,182.75L472.14,214.34L472.38,194.16L472.39,193.84L472.71,173.95L473.12,207.53L473.14,205.56L473.15,205.49L473.8,178.72L473.9,195.03L473.91,195.06L474.09,168.12L474.32,221.46L474.66,198.29L474.67,198.28L474.72,197.57L474.75,207.92L474.75,208.27L474.78,218.98L475.07,171.16L475.5,195.23L475.51,195.4L475.7,209.62L475.81,178.07L476.26,198.75L476.27,198.71L476.73,219.27L476.79,176.17L477.02,202.35L477.03,202.4L477.19,186.12L477.65,223.3L477.78,217.23L477.79,217.01L477.94,189.75L478.51,242.19L478.54,238.22L478.55,238.11L479.14,201.71L479.3,225.49L479.31,225.35L479.77,216.08L479.94,249.49L480.06,246.41L480.07,246.06L480.46,218.53L480.69,252.15L480.82,235.63L480.83,235.57L481.21,270.47L481.32,221L481.58,251.34L481.59,251.41L482.13,233.33L482.3,255.9L482.34,245.52L482.35,245.31L482.7,227.41L482.99,257.58L483.1,250.23L483.11,250.43L483.16,261.32L483.56,231.17L483.86,242.65L483.87,242.27L483.91,226.72L484.02,278.87L484.62,265.15L484.63,265.8L484.65,283.14L484.71,227.36L485.38,260.97L485.39,261.24L485.63,239.64L486.14,286.68L486.14,286.14L486.15,285.6L486.54,232.95L486.9,245.46L486.91,246.04L486.95,271.03L487.64,230.95L487.66,241.18L487.67,241.53L487.98,281.88L488.42,263.97L488.43,264.1L488.96,223.74L489.01,272.87L489.18,254.23L489.19,254.18L489.7,237.22L489.93,280.72L489.94,277.84L489.95,277.63L490.33,240.39L490.7,252.17L490.71,251.99L491.31,213.68L491.46,227.96L491.47,227.77L491.6,266.57L492.11,212.78L492.22,233.18L492.23,232.89L492.34,251.69L492.74,200.41L492.98,231.41L492.99,231.27L493.66,252.56L493.72,217.85L493.74,225.18L493.75,225.46L494.06,247.67L494.47,208.74L494.5,221.54L494.51,221.85L494.69,207.23L494.81,247.4L495.26,215.84L495.27,215.66L495.44,255.48L495.96,210.27L496.02,224.97L496.03,224.68L496.07,210.17L496.65,242.73L496.78,222.53L496.79,221.92L496.82,200.67L497.22,248.53L497.54,245.32L497.55,245.56L497.56,250.46L497.91,211.32L498.3,224.58L498.31,224.52L498.6,242.86L499.06,203.17L499.06,205.23L499.07,205.49L499.8,251.31L499.82,246.56L499.83,246.35L499.98,262.43L500.32,218.56L500.58,245.31L500.59,245.6L500.66,228.64L500.72,261.3L501.34,236.38L501.35,236.49L502.04,281.22L502.1,261.98L502.11,261.92L502.27,278.64L502.62,235.41L502.86,264.25L502.87,264.24L502.9,269.54L502.94,257.75L502.94,257.43L503.3,280.2L503.36,247.62L503.69,253.54L503.7,253.37L503.76,244.47L504.45,291.3L504.45,291.25L504.46,291.23L504.8,254.29L505.21,276.91L505.22,276.8L505.6,254.99L505.94,286.31L505.97,271.04L505.98,270.56L506.58,257.18L506.63,298.65L506.73,272.03L506.74,271.87L507.09,262.2L507.44,297.34L507.49,267.21L507.5,267.37L507.61,289.43L508.18,261.75L508.25,282.38L508.26,282.17L508.58,249.92L508.7,291.41L509.01,284.44L509.02,284.57L509.16,291.9L509.22,263.45L509.77,282.86L509.78,283.16L510.25,254.53L510.36,303.03L510.53,281.12L510.54,281.03L510.65,304.23L511.05,267.97L511.29,301.57L511.3,301.45L511.4,272.96L511.63,314.59L512.05,289.38L512.06,289.86L512.09,304.71L512.2,257.41L512.81,293.85L512.82,293.75L513.46,316.75L513.52,284.29L513.57,295.53L513.58,295.73L513.63,280.43L514.21,321.09L514.33,288.9L514.34,288.98L514.55,278.88L514.9,313.08L515.09,296.25L515.1,296.35L515.59,313.44L515.7,277.86L515.85,312.7L515.86,312.72L515.87,312.99L515.91,302.35L515.91,302.09L515.99,286.85L516.16,318.91L516.66,309.65L516.67,309.47L516.96,326.03L517.08,281.19L517.42,296.87L517.43,297.3L517.82,329.05L518.17,294.76L518.18,295.5L518.19,295.55L518.4,320.27L518.86,290.87L518.94,307.23L518.95,307.16L519.49,292.85L519.6,323.28L519.7,308.3L519.71,308.26L519.89,282.97L520.41,344.01L520.46,304.58L520.47,304.73L520.87,275.3L521.1,327.7L521.22,292.88L521.23,293.2L521.61,331.25L521.78,288.78L521.98,314.61L521.99,314.6L522.06,302.37L522.06,302.1L522.36,290.4L522.47,338.02L522.81,297.91L522.82,297.36L522.88,322.32L522.93,292.14L523.57,319.06L523.58,318.95L523.68,339.81L524.2,299.79L524.33,313.76L524.34,313.92L524.6,289.53L524.94,331.77L525.09,323.51L525.1,323.74L525.4,287.08L525.57,342.07L525.85,313.58L525.86,313.73L526.2,294.85L526.32,328.07L526.61,313.58L526.62,313.85L526.89,288.94L527.24,342.78L527.37,304.01L527.38,303.93L527.47,328.37L527.98,291.73L528.13,315.14L528.14,315.1L528.73,296.24L528.84,336.92L528.89,318.6L528.9,318.26L529.25,288.52L529.48,331.31L529.65,323.31L529.66,323.22L529.76,301.65L530.39,348.01L530.41,333.16L530.42,332.49L531.08,298.91L531.17,318.29L531.18,318.34L531.25,296.25L531.6,341.23L531.93,325.61L531.94,325.54L532.46,297.9L532.69,318.07L532.7,317.53L532.75,288.54L532.98,322.53L533.45,303.94L533.46,303.65L533.55,322.79L534.12,287.12L534.21,315.56L534.22,315.76L534.58,334.11L534.97,293.42L534.98,293.23L535.27,326.31L535.39,282.49L535.73,303.17L535.74,303.16L535.79,302.43L535.87,312.18L535.87,312.47L536.13,293.35L536.59,324.54L536.62,310.52L536.63,310.11L536.82,338.68L537.34,280.21L537.38,289.99L537.39,290.2L537.68,317.74L538.14,317.31L538.15,317.55L538.2,330.69L538.72,283.64L538.9,312.8L538.91,312.91L539.29,325.67L539.4,290.71L539.66,306.74L539.67,306.53L539.92,323.28L540.09,270.95L540.42,294.28L540.43,294.03L540.78,278.34L541.18,334.98L541.18,334.29L541.19,333.61L541.36,263.95L541.94,278.87L541.95,279.22L542.22,319L542.5,266.71L542.7,291.53L542.71,291.25L543.13,307.24L543.46,266.3L543.47,265.84L543.48,259.33L544.11,319.12L544.22,284.04L544.23,279.18L544.28,279.35L544.29,277.05L544.29,276.72L544.34,259.66L544.45,281.12L545.04,276.34L545.05,276.41L545.2,287.9L545.8,261.68L545.81,261.66L546.41,250.78L546.56,284.05L546.57,284.15L546.58,285.45L547.04,252.6L547.32,257.26L547.33,257.01L547.38,242.46L547.5,295.94L548.08,275.41L548.09,275.04L548.42,243.21L548.84,246.53L548.85,246.55L549.16,266.34L549.22,233.89L549.6,263.82L549.61,264.23L549.62,270.4L549.96,234.57L550.36,239.29L550.37,238.93L551.06,237.74L551.11,266.89L551.12,258.88L551.13,258.53L551.23,263.06L551.4,213.29L551.88,251.87L551.89,251.74L552.38,222.29L552.49,255.92L552.64,233.41L552.65,232.97L553.29,216.57L553.4,260.85L553.41,261.28L553.92,227.08L554.15,270.38L554.16,267.07L554.17,266.77L554.38,224.35L554.92,237.44L554.93,237.52L555.24,214.84L555.53,250.46L555.68,231.69L555.69,231.68L555.7,231.52L555.74,241.98L555.74,242.28L555.88,213.9L556.05,258.38L556.49,250.31L556.5,250.49L557.02,225.36L557.2,274.98L557.25,244.59L557.26,244.69L557.37,264.27L557.77,222.86L558.01,241.44L558.02,241.53L558.11,266.83L558.75,235.71L558.77,239.06L558.78,239.17L559.26,285.89L559.53,258.99L559.54,259.21L560.07,234.91L560.12,275.94L560.29,251.32L560.3,251.32L560.35,251.56L560.36,247.94L560.36,247.42L560.41,220.49L560.7,286.11L561.11,253.89L561.12,254.04L561.33,240.51L561.67,284.68L561.87,269.34L561.88,269.28L562.25,249.08L562.53,280.33L562.63,261.52L562.64,261.42L562.82,285.04L563.22,242.31L563.39,275.24L563.4,275.39L563.51,293.83L564.03,258.59L564.15,268.71L564.16,269.01L564.54,263.23L564.89,291.79L564.91,276.98L564.92,276.47L564.94,261.15L565.29,290.44L565.67,281.05L565.68,281.23L566.09,262.88L566.38,288.24L566.43,273.56L566.44,273.3L566.55,288.12L566.78,254.56L567.19,281.62L567.2,281.66L567.47,251.57L567.93,304.48L567.95,300.1L567.96,299.94L568.04,258.15L568.22,302.57L568.71,271.38L568.72,271.46L568.79,260.23L568.96,294.79L569.47,285.57L569.48,285.86L569.65,257.27L569.88,294.67L570.23,285.32L570.24,284.89L570.68,290.49L570.97,263.3L570.99,264.56L571,264.61L571.6,305.99L571.72,264.41L571.75,270.64L571.76,270.8L572.12,249.51L572.29,290.36L572.51,255.22L572.52,254.82L572.52,252.81L573.21,292.31L573.27,266.68L573.28,266.98L573.32,282.31L573.73,245.78L574.03,261.75L574.04,261.92L574.18,283.83L574.41,238.62L574.79,242.41L574.8,241.7L574.82,226.76L575.16,277.91L575.55,263.78L575.56,264L575.91,280.83L576.31,249.49L576.32,249.31L576.94,268.44L577,233.48L577.07,256.69L577.08,256.82L577.17,264.84L577.57,241.33L577.83,248.53L577.84,248.64L578.37,226.96L578.49,267.09L578.59,260.67L578.6,261.06L578.66,216.25L578.95,271.3L579.35,241.65L579.36,241.75L579.46,222.15L579.64,254.79L580.11,239.37L580.12,239.34L580.44,224.44L580.67,263.18L580.87,229.06L580.88,228.5L580.96,209.18L581.07,257.38L581.63,247.63L581.64,247.59L581.7,225.45L582.39,266.05L582.39,264.94L582.4,264.57L582.68,226.74L583.15,247.13L583.16,247.58L583.25,220.2L583.48,274.75L583.91,235.85L583.92,235.94L584.46,233.68L584.57,282.19L584.67,255.85L584.68,255.85L584.97,241.99L585.2,282.86L585.45,266.18L585.46,266.09L585.61,273.01L585.95,240.83L586.21,265.98L586.22,265.98L586.35,262.81L586.38,268.59L586.38,268.76L586.41,276.29L586.45,263.68L586.45,263.38L586.81,238.8L587.1,284.4L587.2,264.1L587.21,263.76L587.27,236.78L587.56,290.98L587.96,269.8L587.97,270.17L588.02,289.66L588.19,251.79L588.72,271L588.73,270.54L589.28,251.35L589.48,294.98L589.49,295.12L589.57,257.38L590.14,301.75L590.24,276.46L590.25,276.37L590.48,257.7L590.77,309.11L591,296.16L591.01,295.82L591.17,253.05L591.69,305.13L591.76,287.52L591.77,287.34L591.98,272.87L592.38,306.12L592.52,283L592.53,282.95L593.01,293.1L593.07,274.28L593.28,285.49L593.29,285.44L593.53,312.96L593.7,282.29L594.04,309.62L594.05,309.58L594.16,316.01L594.67,279.04L594.8,287.34L594.81,287.17L594.85,280.07L595.53,311.51L595.56,309.06L595.57,308.98L595.71,286.69L595.76,319.35L595.88,304.42" style="vector-effect: non-scaling-stroke; fill: none; stroke: rgb(0, 154, 250); stroke-opacity: 1; stroke-width: 3px; opacity: 1;"/></g><g class="points"/><g class="text"/></g></g></g><g class="overplot"/><path class="xlines-above crisp" d="M62.79921259842519,413.13998250218725H677.0341207349081" style="fill: none; stroke-width: 1px; stroke: rgb(0, 0, 0); stroke-opacity: 1;"/><path class="ylines-above crisp" d="M63.29921259842519,42.63779527559056V412.63998250218725" style="fill: none; stroke-width: 1px; stroke: rgb(0, 0, 0); stroke-opacity: 1;"/><g class="overlines-above"/><g class="xaxislayer-above"><path class="xtick ticks crisp" d="M0,412.63998250218725v-5" transform="translate(81.1592125984252,0)" style="stroke: rgb(0, 0, 0); stroke-opacity: 1; stroke-width: 1px;"/><path class="xtick ticks crisp" d="M0,412.63998250218725v-5" transform="translate(163.79921259842519,0)" style="stroke: rgb(0, 0, 0); stroke-opacity: 1; stroke-width: 1px;"/><path class="xtick ticks crisp" d="M0,412.63998250218725v-5" transform="translate(246.4492125984252,0)" style="stroke: rgb(0, 0, 0); stroke-opacity: 1; stroke-width: 1px;"/><path class="xtick ticks crisp" d="M0,412.63998250218725v-5" transform="translate(329.0892125984252,0)" style="stroke: rgb(0, 0, 0); stroke-opacity: 1; stroke-width: 1px;"/><path class="xtick ticks crisp" d="M0,412.63998250218725v-5" transform="translate(411.7392125984252,0)" style="stroke: rgb(0, 0, 0); stroke-opacity: 1; stroke-width: 1px;"/><path class="xtick ticks crisp" d="M0,412.63998250218725v-5" transform="translate(494.38921259842516,0)" style="stroke: rgb(0, 0, 0); stroke-opacity: 1; stroke-width: 1px;"/><path class="xtick ticks crisp" d="M0,412.63998250218725v-5" transform="translate(577.0292125984253,0)" style="stroke: rgb(0, 0, 0); stroke-opacity: 1; stroke-width: 1px;"/><path class="xtick ticks crisp" d="M0,412.63998250218725v-5" transform="translate(659.6792125984252,0)" style="stroke: rgb(0, 0, 0); stroke-opacity: 1; stroke-width: 1px;"/><g class="xtick"><text text-anchor="middle" x="0" y="437.63998250218725" transform="translate(81.1592125984252,0)" style="font-family: sans-serif; font-size: 20px; fill: rgb(0, 0, 0); fill-opacity: 1; white-space: pre;">0</text></g><g class="xtick"><text text-anchor="middle" x="0" y="437.63998250218725" transform="translate(163.79921259842519,0)" style="font-family: sans-serif; font-size: 20px; fill: rgb(0, 0, 0); fill-opacity: 1; white-space: pre;">1</text></g><g class="xtick"><text text-anchor="middle" x="0" y="437.63998250218725" transform="translate(246.4492125984252,0)" style="font-family: sans-serif; font-size: 20px; fill: rgb(0, 0, 0); fill-opacity: 1; white-space: pre;">2</text></g><g class="xtick"><text text-anchor="middle" x="0" y="437.63998250218725" transform="translate(329.0892125984252,0)" style="font-family: sans-serif; font-size: 20px; fill: rgb(0, 0, 0); fill-opacity: 1; white-space: pre;">3</text></g><g class="xtick"><text text-anchor="middle" x="0" y="437.63998250218725" transform="translate(411.7392125984252,0)" style="font-family: sans-serif; font-size: 20px; fill: rgb(0, 0, 0); fill-opacity: 1; white-space: pre;">4</text></g><g class="xtick"><text text-anchor="middle" x="0" y="437.63998250218725" transform="translate(494.38921259842516,0)" style="font-family: sans-serif; font-size: 20px; fill: rgb(0, 0, 0); fill-opacity: 1; white-space: pre;">5</text></g><g class="xtick"><text text-anchor="middle" x="0" y="437.63998250218725" transform="translate(577.0292125984253,0)" style="font-family: sans-serif; font-size: 20px; fill: rgb(0, 0, 0); fill-opacity: 1; white-space: pre;">6</text></g><g class="xtick"><text text-anchor="middle" x="0" y="437.63998250218725" transform="translate(659.6792125984252,0)" style="font-family: sans-serif; font-size: 20px; fill: rgb(0, 0, 0); fill-opacity: 1; white-space: pre;">7</text></g></g><g class="yaxislayer-above"><path class="ytick ticks crisp" d="M63.79921259842519,0h5" transform="translate(0,402.27779527559056)" style="stroke: rgb(0, 0, 0); stroke-opacity: 1; stroke-width: 1px;"/><path class="ytick ticks crisp" d="M63.79921259842519,0h5" transform="translate(0,286.16779527559055)" style="stroke: rgb(0, 0, 0); stroke-opacity: 1; stroke-width: 1px;"/><path class="ytick ticks crisp" d="M63.79921259842519,0h5" transform="translate(0,170.05779527559056)" style="stroke: rgb(0, 0, 0); stroke-opacity: 1; stroke-width: 1px;"/><path class="ytick ticks crisp" d="M63.79921259842519,0h5" transform="translate(0,53.947795275590565)" style="stroke: rgb(0, 0, 0); stroke-opacity: 1; stroke-width: 1px;"/><g class="ytick"><text text-anchor="end" x="58.79921259842519" y="7" transform="translate(0,402.27779527559056)" style="font-family: sans-serif; font-size: 20px; fill: rgb(0, 0, 0); fill-opacity: 1; white-space: pre;">0</text></g><g class="ytick"><text text-anchor="end" x="58.79921259842519" y="7" transform="translate(0,286.16779527559055)" style="font-family: sans-serif; font-size: 20px; fill: rgb(0, 0, 0); fill-opacity: 1; white-space: pre;">1</text></g><g class="ytick"><text text-anchor="end" x="58.79921259842519" y="7" transform="translate(0,170.05779527559056)" style="font-family: sans-serif; font-size: 20px; fill: rgb(0, 0, 0); fill-opacity: 1; white-space: pre;">2</text></g><g class="ytick"><text text-anchor="end" x="58.79921259842519" y="7" transform="translate(0,53.947795275590565)" style="font-family: sans-serif; font-size: 20px; fill: rgb(0, 0, 0); fill-opacity: 1; white-space: pre;">3</text></g></g><g class="overaxes-above"/></g></g><g class="polarlayer"/><g class="ternarylayer"/><g class="geolayer"/><g class="funnelarealayer"/><g class="pielayer"/><g class="treemaplayer"/><g class="sunburstlayer"/><g class="glimages"/><defs id="topdefs-8dae2c"><g class="clips"/></defs><g class="layer-above"><g class="imagelayer"/><g class="shapelayer"/></g><g class="infolayer"><g class="g-gtitle"/><g class="g-xtitle"><text class="xtitle" x="370.41666666666663" y="482.63998250218725" text-anchor="middle" style="font-family: sans-serif; font-size: 20px; fill: rgb(0, 0, 0); opacity: 1; font-weight: normal; white-space: pre;">days [c]</text></g><g class="g-ytitle" transform="translate(4.21484375,0)"><text class="ytitle" transform="rotate(-90,13.799212598425193,227.6388888888889)" x="13.799212598425193" y="227.6388888888889" text-anchor="middle" style="font-family: sans-serif; font-size: 20px; fill: rgb(0, 0, 0); opacity: 1; font-weight: normal; white-space: pre;">normed demand mix</text></g></g></svg>