<svg class="main-svg" xmlns="http://www.w3.org/2000/svg" xmlns:xlink="http://www.w3.org/1999/xlink" width="700" height="500" style="" viewBox="0 0 700 500"><rect x="0" y="0" width="700" height="500" style="fill: rgb(255, 255, 255); fill-opacity: 1;"/><defs id="defs-100a7a"><g class="clips"><clipPath id="clip100a7axyplot" class="plotclip"><rect width="576.9386118401867" height="370.0021872265967"/></clipPath><clipPath class="axesclip" id="clip100a7ax"><rect x="100.09550889472148" y="0" width="576.9386118401867" height="500"/></clipPath><clipPath class="axesclip" id="clip100a7ay"><rect x="0" y="42.63779527559056" width="700" height="370.0021872265967"/></clipPath><clipPath class="axesclip" id="clip100a7axy"><rect x="100.09550889472148" y="42.63779527559056" width="576.9386118401867" height="370.0021872265967"/></clipPath></g><g class="gradients"/></defs><g class="bglayer"/><g class="layer-below"><g class="imagelayer"/><g class="shapelayer"/></g><g class="cartesianlayer"><g class="subplot xy"><g class="layer-subplot"><g class="shapelayer"/><g class="imagelayer"/></g><g class="gridlayer"><g class="x"><path class="xgrid crisp" transform="translate(116.42550889472147,0)" d="M0,42.63779527559056v370.0021872265967" style="stroke: rgb(0, 0, 0); stroke-opacity: 0.1; stroke-width: 0.5px;"/><path class="xgrid crisp" transform="translate(194.17550889472147,0)" d="M0,42.63779527559056v370.0021872265967" style="stroke: rgb(0, 0, 0); stroke-opacity: 0.1; stroke-width: 0.5px;"/><path class="xgrid crisp" transform="translate(271.93550889472147,0)" d="M0,42.63779527559056v370.0021872265967" style="stroke: rgb(0, 0, 0); stroke-opacity: 0.1; stroke-width: 0.5px;"/><path class="xgrid crisp" transform="translate(349.68550889472147,0)" d="M0,42.63779527559056v370.0021872265967" style="stroke: rgb(0, 0, 0); stroke-opacity: 0.1; stroke-width: 0.5px;"/><path class="xgrid crisp" transform="translate(427.4455088947215,0)" d="M0,42.63779527559056v370.0021872265967" style="stroke: rgb(0, 0, 0); stroke-opacity: 0.1; stroke-width: 0.5px;"/><path class="xgrid crisp" transform="translate(505.1955088947215,0)" d="M0,42.63779527559056v370.0021872265967" style="stroke: rgb(0, 0, 0); stroke-opacity: 0.1; stroke-width: 0.5px;"/><path class="xgrid crisp" transform="translate(582.9555088947214,0)" d="M0,42.63779527559056v370.0021872265967" style="stroke: rgb(0, 0, 0); stroke-opacity: 0.1; stroke-width: 0.5px;"/><path class="xgrid crisp" transform="translate(660.7055088947214,0)" d="M0,42.63779527559056v370.0021872265967" style="stroke: rgb(0, 0, 0); stroke-opacity: 0.1; stroke-width: 0.5px;"/></g><g class="y"><path class="ygrid crisp" transform="translate(0,363.3277952755906)" d="M100.09550889472148,0h576.9386118401867" style="stroke: rgb(0, 0, 0); stroke-opacity: 0.1; stroke-width: 0.5px;"/><path class="ygrid crisp" transform="translate(0,288.95779527559057)" d="M100.09550889472148,0h576.9386118401867" style="stroke: rgb(0, 0, 0); stroke-opacity: 0.1; stroke-width: 0.5px;"/><path class="ygrid crisp" transform="translate(0,214.57779527559057)" d="M100.09550889472148,0h576.9386118401867" style="stroke: rgb(0, 0, 0); stroke-opacity: 0.1; stroke-width: 0.5px;"/><path class="ygrid crisp" transform="translate(0,140.20779527559057)" d="M100.09550889472148,0h576.9386118401867" style="stroke: rgb(0, 0, 0); stroke-opacity: 0.1; stroke-width: 0.5px;"/><path class="ygrid crisp" transform="translate(0,65.83779527559057)" d="M100.09550889472148,0h576.9386118401867" style="stroke: rgb(0, 0, 0); stroke-opacity: 0.1; stroke-width: 0.5px;"/></g></g><g class="zerolinelayer"/><path class="xlines-below"/><path class="ylines-below"/><g class="overlines-below"/><g class="xaxislayer-below"/><g class="yaxislayer-below"/><g class="overaxes-below"/><g class="plot" transform="translate(100.09550889472148,42.63779527559056)" clip-path="url('#clip100a7axyplot')"><g class="scatterlayer mlayer"><g class="trace scatter trace51b05b" style="stroke-miterlimit: 2; opacity: 1;"><g class="fills"/><g class="errorbars"/><g class="lines"><path class="js-line" d="M16.33,302.29L16.65,323.85L16.92,278.71L17.08,292.96L17.09,293.12L17.19,334.3L17.41,269.11L17.84,310.62L17.85,309.76L17.89,263.59L18.27,322.05L18.6,320.64L18.61,321.02L18.65,339.78L18.81,275.99L19.36,327.1L19.37,326.91L19.89,338.44L20,282.99L20.12,311.08L20.13,310.95L20.59,293.01L20.86,332.59L20.88,325.1L20.89,324.78L20.97,283.09L21.13,343.04L21.64,300.01L21.65,300.17L21.94,325.89L22.38,290.94L22.4,291.56L22.41,291.58L22.81,329.7L23.16,324.74L23.17,325.25L23.24,281.7L23.51,337.41L23.92,307.78L23.93,307.54L24.1,333.57L24.48,292.99L24.68,296.58L24.69,296.22L25.29,268.54L25.44,328.67L25.45,328.89L25.99,339.55L26.1,282.65L26.2,335.49L26.21,336.39L26.21,340.93L26.37,296.32L26.96,318.69L26.97,318.55L27.02,325.98L27.56,292.34L27.72,314.19L27.73,314.28L28.15,334.38L28.42,298.39L28.48,307.47L28.49,307.64L28.64,289.2L28.69,347.22L29.24,294.12L29.25,293.93L29.34,345.03L29.77,282.41L30,314.04L30.01,313.78L30.53,338.25L30.58,284.01L30.76,308.8L30.77,308.13L31.12,349.19L31.39,282.94L31.52,316.59L31.53,317.19L31.77,340.48L32.26,293.65L32.28,312.87L32.29,313.51L32.47,341.83L32.74,267.98L33.04,312.57L33.05,312.1L33.28,323.78L33.77,288.63L33.8,301.47L33.81,301.8L34.04,274.85L34.2,342.37L34.56,289.59L34.57,289.4L34.85,284.94L35.32,317.24L35.33,317.53L35.88,277.72L36.04,324.33L36.08,295.14L36.09,294.59L36.15,328.26L36.63,284.25L36.84,291.54L36.85,291.5L36.96,308.09L37.39,267.19L37.6,288.81L37.61,288.65L37.71,306.17L38.3,263.63L38.36,276.74L38.37,276.53L38.47,316.32L39.06,244.99L39.12,253.62L39.13,253.9L39.38,301.14L39.6,225.79L39.88,249.01L39.89,249.27L40.36,279.31L40.63,200.9L40.64,203.77L40.65,203.91L41.27,249.05L41.38,179L41.4,206.25L41.41,207.38L41.44,245.98L41.54,193.15L42.16,207.42L42.17,207.51L42.19,210.26L42.73,133.38L42.92,165.57L42.93,165.85L43.27,185.4L43.6,122.04L43.68,149.64L43.69,149.51L43.87,154.54L44.08,82.88L44.44,131.19L44.45,131.63L44.46,139.11L44.68,65.35L45.2,92.27L45.21,92.17L45.27,106.14L45.65,61.57L45.96,87.35L45.97,87.49L46.3,116L46.67,52.34L46.72,57.34L46.73,57.43L47.38,36.78L47.48,89.92L47.49,89.16L47.54,44.35L48.19,106.16L48.24,62.74L48.25,62.81L48.4,91.42L49,68.85L49.01,68.82L49.21,91.83L49.37,50.6L49.76,62.69L49.77,62.6L49.86,57.25L49.91,105.88L50.52,78.98L50.53,79.56L50.56,103.59L51.05,49.58L51.28,67.99L51.29,67.84L51.37,49.36L51.91,90.79L52.04,62.88L52.05,62.47L52.56,47.12L52.67,91.33L52.8,77.69L52.81,77.88L53.05,85.87L53.32,42.8L53.56,84.65L53.57,84.92L53.8,63.05L54.02,97.02L54.32,83.97L54.33,83.9L54.56,55.53L55.04,97.26L55.08,82.16L55.09,81.83L55.42,31.31L55.53,100.51L55.84,85.76L55.85,85.79L56.01,52.87L56.23,111.64L56.6,61.95L56.61,61.4L56.61,58.65L57.36,115.91L57.37,116.15L57.74,128.61L58.01,95.18L58.12,113.16L58.13,113.07L58.34,100.83L58.77,158.4L58.88,130.18L58.89,129.64L58.93,102.04L59.47,163.06L59.64,135.89L59.65,135.79L59.8,125.05L60.07,172.52L60.4,153.66L60.41,153.87L60.71,144.91L60.82,179.62L61.16,168.85L61.17,169.03L61.63,148.77L61.9,202.85L61.92,183.1L61.93,182.34L62.01,202.6L62.44,136.35L62.68,168.37L62.69,169.16L62.71,191.96L63.25,141.43L63.44,159.76L63.45,159.59L63.68,176.62L64.12,131.25L64.2,158.82L64.21,159.42L64.87,177.86L64.93,111.81L64.96,116.93L64.97,117.05L65.63,101.33L65.72,149.46L65.73,149.78L65.73,152.9L66.17,63.6L66.48,125.53L66.49,125.97L66.49,128.64L66.54,56.17L67.24,96L67.25,96.6L67.35,106.03L67.41,55.11L68,85.77L68.01,85.74L68.65,57.74L68.7,94.87L68.76,88.01L68.77,88.02L68.87,89.93L68.89,79.21L68.89,78.76L69.14,92.87L69.51,49.45L69.64,69.07L69.65,68.78L69.95,90.16L70.38,45.38L70.4,61.59L70.41,62.15L70.59,113.69L70.7,41.76L71.16,77.44L71.17,77.75L71.19,85.71L71.89,46.54L71.92,48.89L71.93,48.95L72.11,82.4L72.65,15.55L72.68,36.18L72.69,36.67L73.08,88.21L73.44,56.76L73.45,56.62L73.62,81.94L73.73,49.58L74.2,69.21L74.21,69.02L74.32,32.64L74.75,83.48L74.96,76.54L74.97,76.96L75.18,31.07L75.67,93.19L75.72,79.51L75.73,79.79L76.1,50.63L76.43,133.04L76.48,104.05L76.49,103.63L76.53,80.82L76.64,125.41L77.24,121.85L77.25,122.34L77.83,105.17L77.88,167.49L78,161.38L78.01,161.25L78.64,120.58L78.75,195.26L78.76,182.05L78.77,181.32L78.8,151.23L79.52,216.97L79.53,217.43L79.56,233.95L80.15,154.32L80.28,175.96L80.29,175.51L80.31,161.78L81.02,228.96L81.04,227.65L81.05,227.61L81.39,199.42L81.66,253.26L81.8,213.95L81.81,213.96L82.2,212.03L82.42,258.98L82.56,244.09L82.57,244.45L82.74,210.96L82.85,282.88L83.32,243.18L83.33,243.32L83.55,212.61L83.77,266.51L84.08,237.68L84.09,237.5L84.36,279.8L84.42,215.48L84.84,239.79L84.85,239.76L85.39,227.65L85.6,280.14L85.61,280.42L85.88,305.92L86.31,240.32L86.36,271.53L86.37,271.42L86.79,251.47L87.12,307.75L87.12,305.67L87.13,305.42L87.82,312.17L87.87,253.5L87.88,259.76L87.89,260.29L88.2,249.19L88.41,315.31L88.64,275.66L88.65,276.15L89.01,275.43L89.39,327.48L89.4,325L89.41,324.88L89.98,254.57L90.16,302.93L90.17,303.66L90.52,285.41L90.63,328.49L90.92,300.86L90.93,301.05L91.06,281.04L91.6,327.13L91.68,300.58L91.69,301.03L92.19,273.73L92.3,316.63L92.44,295.24L92.45,294.9L92.52,314.53L92.57,265.71L93.2,292.61L93.21,292.7L93.44,334.36L93.76,282.37L93.96,308.69L93.97,308.74L94.08,276.82L94.14,330.58L94.72,307.27L94.73,306.92L95.11,270.81L95.38,342.16L95.48,332.37L95.49,333.31L95.54,336.2L96.24,289.58L96.24,290.04L96.25,290.27L96.46,351.28L97,312.19L97.01,311.52L97.05,275.69L97.21,324.29L97.76,299.98L97.77,299.81L97.86,288.53L98.13,339.64L98.52,301.81L98.53,301.63L98.67,275.53L99.05,346.41L99.28,340.5L99.29,340.51L99.32,340.85L99.33,330.48L99.33,329.61L99.48,275.68L100.02,332.58L100.08,307.54L100.09,307.86L100.18,328.07L100.24,289.24L100.84,323.43L100.85,323.36L101.43,293.43L101.6,312.07L101.61,311.76L101.91,345.03L102.24,293.93L102.36,316.97L102.37,316.76L102.72,346.76L102.99,285.23L103.12,301.04L103.13,301.31L103.26,298.28L103.8,342.99L103.88,319.99L103.89,319.42L103.96,334.78L104.61,293.16L104.64,311.14L104.65,311.64L104.77,277.13L105.37,341.39L105.4,328.46L105.41,328.14L105.53,340.6L106.02,286.81L106.16,313.7L106.17,313.74L106.61,289.5L106.77,329.17L106.92,312.79L106.93,312.53L107.26,337.63L107.37,277.94L107.68,313.57L107.69,313.47L107.85,328.73L107.91,284.44L108.44,317.78L108.45,317.83L108.99,329.71L109.15,283.05L109.2,302.07L109.21,302.18L109.53,279.97L109.9,329.44L109.96,298.88L109.97,298.89L110.21,313.51L110.21,313.66L110.34,289.62L110.5,324.37L110.96,319L110.97,318.96L111.25,339.27L111.63,288.72L111.72,302.09L111.73,302.06L112.23,323.38L112.48,276.97L112.49,276.34L112.5,269.49L112.98,321.6L113.24,290.73L113.25,290.61L113.74,273.11L113.79,328.03L114,275.84L114.01,275.33L114.12,252.04L114.17,335.3L114.76,277.19L114.77,277.35L115.14,255.17L115.2,317.06L115.52,264.29L115.53,264.89L116.06,254.79L116.28,311.97L116.28,305.6L116.29,304.96L117.04,255.53L117.05,255.39L117.57,278.68L117.79,219.85L117.8,231.54L117.81,232.15L118.33,277.78L118.44,210.63L118.56,218.33L118.57,217.22L118.6,178.17L119.03,268.6L119.32,197.69L119.33,197.92L119.41,206.2L120,135.31L120.08,174.64L120.09,173.79L120.54,199.18L120.81,143.94L120.84,161.24L120.85,161.71L120.87,171.99L121.19,123L121.6,152.35L121.61,152.74L121.62,158.94L121.95,89.47L122.36,111.95L122.37,112.22L123.08,140.11L123.12,86.2L123.13,85.15L123.46,54.36L123.62,106.86L123.88,81.81L123.89,81.99L124,105.87L124.54,68.69L124.64,88.4L124.65,87.94L124.97,50.04L125.29,90.73L125.4,71.72L125.41,71.9L125.51,54.42L125.67,105.81L126.16,79.13L126.17,79.65L126.21,105.61L126.37,42.41L126.92,78.69L126.93,78.79L127.34,45.48L127.56,99.59L127.68,65.55L127.69,65.02L127.72,43.14L127.88,98.77L128.44,74.23L128.45,74.3L128.53,100.45L128.86,25.33L129.2,63.26L129.21,63.35L129.4,39.12L129.83,105.86L129.96,65.23L129.97,65.29L130.21,93.45L130.26,39.72L130.72,84.42L130.73,84.66L131.12,91.97L131.34,40.16L131.48,56.11L131.49,55.77L132.04,39.17L132.15,93.63L132.24,71.4L132.25,71.29L132.42,105.83L132.8,52.58L133,87.91L133.01,87.97L133.12,44.9L133.55,102.68L133.76,77.05L133.77,77.32L134.26,51.86L134.42,105.73L134.52,105.28L134.53,105.69L135.01,116.97L135.12,63.94L135.28,86.86L135.29,86.92L136.04,140.82L136.04,138.37L136.05,138.02L136.2,99.8L136.42,145.68L136.8,117.42L136.81,117.53L136.9,93.55L137.17,170.19L137.56,156.07L137.57,156.1L138.2,134.6L138.25,194.21L138.32,168.94L138.33,169.2L138.58,142.21L138.95,198.71L139.08,165.7L139.09,165.34L139.12,152.99L139.76,200.99L139.84,161.37L139.85,161.21L139.98,155.89L140.09,195.26L140.6,169.83L140.61,169.94L140.74,189.1L141.28,125.69L141.36,156.29L141.37,156.7L141.6,123.99L141.65,184.32L142.12,151.69L142.13,152.06L142.68,115.5L142.79,164.45L142.88,126.44L142.89,125.9L143.06,128L143.54,62.17L143.64,93.32L143.65,93.1L144.03,117.29L144.3,77.8L144.4,83.91L144.41,83.78L144.62,109.61L144.79,59.45L145.16,80.01L145.17,79.99L145.27,72.23L145.41,81.32L145.41,81.45L145.76,52.91L145.92,106.14L146.16,89.52L146.17,89.48L146.78,51.68L146.84,101.26L146.92,63.58L146.93,63.61L147.05,85.65L147.43,49.36L147.68,75L147.69,74.93L148.19,34.03L148.35,117.13L148.44,67.19L148.45,67.56L148.57,23.58L149.05,94.99L149.2,45.45L149.21,45.15L149.32,19.3L149.54,90.16L149.96,51.16L149.97,51.28L150.29,70.03L150.62,28.51L150.72,43.94L150.73,43.72L150.78,25.44L150.89,71.4L151.48,58.24L151.49,58.37L151.91,31.48L152.13,77.41L152.24,40.51L152.25,40.56L152.4,38.42L152.45,83.03L153,47.51L153.01,48.04L153.15,38.15L153.53,101.13L153.76,93.73L153.77,93.67L153.91,61.03L154.23,127.36L154.52,104.75L154.53,104.87L154.77,71.33L155.04,148.56L155.28,124.21L155.29,124.01L155.31,117.59L155.96,170.27L156.04,134.19L156.05,134.22L156.72,201L156.8,183.32L156.81,183.43L156.88,134.45L157.47,194.78L157.56,191.74L157.57,191.75L157.72,205.12L157.72,205.39L157.74,211.38L157.81,193.02L157.81,192.86L157.96,174.46L158.28,225.97L158.56,215.51L158.57,215.31L158.61,206.08L159.04,260.54L159.32,227.28L159.33,227.41L159.69,202.73L159.9,251.24L160.08,223.37L160.09,223.61L160.66,211.01L160.82,271.35L160.84,265.66L160.85,265.44L161.09,234.12L161.6,253.02L161.61,252.71L161.96,279.25L162.33,216.32L162.36,244.29L162.37,245.12L162.71,284.57L162.93,223.6L163.12,261.11L163.13,260.65L163.2,240.44L163.74,302.3L163.88,292.78L163.89,293.13L163.9,298.73L163.95,249.59L164.64,265.86L164.65,265.33L165.09,247.35L165.36,298.6L165.4,283.18L165.41,282.89L165.52,255.93L165.84,315.54L166.16,270.64L166.17,270.66L166.28,316.86L166.82,263.49L166.92,309.97L166.93,309.59L167.03,260.1L167.68,318.17L167.69,318.21L167.9,266L168,323.57L168.44,299.27L168.45,299.44L168.65,313.53L168.92,269.11L169.2,290.22L169.21,290.24L169.52,328.8L169.68,263.49L169.96,311.15L169.97,311.7L170,333.39L170.38,278.95L170.72,286.54L170.73,286.58L170.92,280.58L171.03,322.72L171.48,291.78L171.49,292.06L171.78,323.7L172.05,262.44L172.24,299.1L172.25,299.88L172.86,279.83L172.92,330.53L173,305.18L173.01,305.48L173.24,325.52L173.73,270.1L173.76,298.07L173.77,298.75L174,270.92L174.27,319.61L174.52,311.42L174.53,311.43L174.59,326.12L174.61,302.12L174.61,301.12L174.65,266.11L175.29,345.26L175.36,299.52L175.37,300.11L175.73,344.79L175.94,275.61L176.12,318.89L176.13,318.43L176.64,283.77L176.81,337.91L176.88,308.82L176.89,308.89L177.24,344.28L177.29,298.46L177.64,313.61L177.65,313.46L177.78,288.71L178.26,349.17L178.4,310.54L178.41,310.89L178.91,334.57L179.07,289.79L179.16,305.5L179.17,305.41L179.4,287.31L179.83,340.86L179.92,310.64L179.93,310.65L180.37,292.36L180.48,341.4L180.68,315.18L180.69,315.13L181.12,295.09L181.39,332.27L181.44,309.71L181.45,309.3L181.61,285.43L182.04,325.77L182.2,319.9L182.21,319.87L182.47,280.52L182.96,344.53L182.96,340.26L182.97,339.2L183.01,280.53L183.5,352.58L183.72,305.26L183.73,305.37L183.82,347.13L183.93,275.49L184.48,311.05L184.49,311.32L184.58,269.94L185.01,339.71L185.24,320.44L185.25,319.62L185.28,286.22L185.71,340.15L186,305.63L186.01,306.09L186.09,333.9L186.52,286.54L186.76,331.4L186.77,331.61L187.01,345.58L187.28,296.86L187.52,309.42L187.53,309.17L187.66,350.22L187.77,287.44L188.28,308.07L188.29,308.48L188.79,286.9L188.9,329.29L189.04,325.11L189.05,325.18L189.06,326.65L189.22,283.19L189.8,290.59L189.81,290.01L190.2,278.25L190.52,337.67L190.56,303.51L190.57,302.81L191.22,328.32L191.32,279.92L191.33,279.86L191.33,279.56L191.82,324.64L192.08,288.08L192.09,287.7L192.57,275.95L192.73,321.81L192.84,304.66L192.85,304.69L193.11,265.38L193.27,319.45L193.6,284.71L193.61,284.89L193.71,305.88L194.19,248.97L194.36,284.66L194.37,284.07L194.52,290.77L194.95,243.57L195.12,258.35L195.13,258.94L195.16,284.33L195.43,224.44L195.88,249.84L195.89,249.65L195.97,272.43L196.41,187.85L196.64,240.35L196.65,240.41L196.84,257.78L197,179.36L197.4,188.79L197.41,188.95L197.54,219.12L197.97,146.74L198.16,167.39L198.17,167.6L198.24,201.16L198.67,121.24L198.92,165.03L198.93,165.39L198.94,172.61L199.54,76.89L199.68,131.01L199.69,131.47L199.81,149.5L200.4,70.69L200.44,93.96L200.45,94.44L200.94,122.54L201.2,56.8L201.21,56.08L201.21,51.03L201.32,108.83L201.96,86.58L201.97,86.83L202.29,114.11L202.35,38.14L202.72,62.89L202.73,63.3L203.32,105.05L203.48,48.24L203.48,51.64L203.49,52.21L203.64,105.78L204.24,56.22L204.25,56.12L204.29,50.95L204.99,87.05L205,86.76L205.01,86.74L205.26,46.3L205.76,60.13L205.77,60.32L206.29,52.88L206.4,84.86L206.52,57.58L206.53,57.7L206.72,96.91L206.88,34.73L207.28,65.37L207.29,65L207.69,94.85L207.8,25.25L208.04,64.48L208.05,64.11L208.07,54.48L208.12,87.41L208.8,76.1L208.81,76.1L208.84,70.03L208.84,69.74L208.99,54.17L209.11,72.92L209.11,73.27L209.15,86.74L209.19,61.25L209.19,60.7L209.53,106.45L209.69,35.19L209.94,61.23L209.95,61.22L209.96,61.01L210,72.15L210,72.42L210.28,108.52L210.39,39.62L210.75,72.9L210.76,73.1L210.98,102.05L211.51,69.1L211.52,69.08L211.63,49.99L211.69,115.56L212.27,106.32L212.28,106.85L212.66,137.48L212.77,68.17L213.03,89.19L213.04,89.33L213.14,63.74L213.47,137.71L213.79,111.5L213.8,111.35L213.95,84.98L214.49,160.36L214.55,152.72L214.56,152.42L214.66,113.85L214.87,163.05L215.31,126.82L215.32,127.53L216.01,116.08L216.06,188.49L216.07,180.94L216.08,180.47L216.55,195.25L216.6,142.97L216.83,182.51L216.84,181.96L216.92,160.14L217.25,194.6L217.59,164.45L217.6,164.47L217.79,176.68L218,145.54L218.35,175.59L218.36,175.57L218.6,196.43L219.08,127.94L219.11,150.23L219.12,150.89L219.52,200.51L219.62,117.63L219.87,138.61L219.88,138.6L219.92,147.43L219.92,147.74L220.06,165.77L220.54,112.31L220.67,122.8L220.68,123.09L220.92,149.03L221.24,94.5L221.43,100.14L221.44,99.91L222,119.89L222.11,74.74L222.19,89.99L222.2,90.17L222.27,41.78L222.59,114.35L222.95,64.35L222.96,64.11L223.19,98.05L223.51,53.45L223.71,75.15L223.72,74.95L223.89,83.76L224.21,49.32L224.47,77.97L224.48,78.41L224.7,119.31L225.08,59.67L225.23,77.24L225.24,77.3L225.78,81.23L225.83,49.34L225.99,78.83L226,79.18L226.16,39.53L226.27,87.09L226.75,80.47L226.76,80.22L227.35,32.09L227.51,60.14L227.52,60.23L227.72,84L227.89,35.16L228.27,58.47L228.28,59.04L228.32,85.93L228.53,26.63L229.03,53.42L229.04,53.79L229.51,75.85L229.78,18.51L229.79,25.37L229.8,25.7L230.37,86.27L230.55,58.73L230.56,59.06L230.69,37.6L231.29,95.12L231.31,88L231.32,87.77L231.61,59.81L232.04,117.11L232.07,116.41L232.08,116.39L232.31,75.54L232.75,159.46L232.83,126.21L232.84,126.26L233.39,101.02L233.56,175.92L233.59,144.14L233.6,143.41L233.77,197.17L234.1,131.33L234.35,177.72L234.36,177.5L234.8,135.21L235.11,219.75L235.12,220.51L235.12,225.06L235.55,173.52L235.87,212.37L235.88,212.65L236.09,196.96L236.31,232.48L236.63,225.07L236.64,225.26L237.28,242.92L237.39,202.05L237.39,203.52L237.4,203.76L238.09,261.85L238.15,230.96L238.16,230.7L238.36,214.32L238.47,266.11L238.91,229.85L238.92,229.66L239.06,215.13L239.67,265.99L239.68,266.11L239.98,219.09L240.09,275.3L240.43,272.39L240.44,272.48L240.52,246.84L241.17,288.84L241.19,285.52L241.2,285.4L241.71,301.97L241.92,256.48L241.95,264.85L241.96,265.1L242.36,281.39L242.63,235.69L242.71,269.14L242.72,268.83L242.73,262.27L243,293.51L243.47,287.45L243.48,287.54L243.6,318.29L243.98,252.62L244.23,278.21L244.24,278.09L244.52,261.14L244.57,327.75L244.99,275.62L245,275.44L245.22,269.8L245.43,331.08L245.75,286.4L245.76,286.31L245.76,286.06L245.97,328L246.51,298.6L246.52,298.36L246.68,343.79L247.05,280.39L247.27,288.93L247.28,288.39L247.32,259.12L247.97,321.07L248.03,296.79L248.04,296.31L248.08,272.31L248.4,320.15L248.79,288.36L248.8,289.18L249,272.51L249.21,344.6L249.55,307.29L249.56,307.49L249.75,331.39L249.86,287.86L250.31,310.74L250.32,310.04L250.62,322.92L251.05,274.97L251.07,286.22L251.08,286.64L251.43,333.25L251.59,276.13L251.83,305.84L251.84,305.79L251.91,262.49L252.02,327.23L252.59,301.86L252.6,301.79L252.78,339.84L252.83,290.2L253.35,314.04L253.36,314.25L253.8,338.52L253.91,278.15L254.11,310.53L254.12,310.34L254.45,286.14L254.56,338.34L254.87,309.26L254.88,309.63L255.37,285.34L255.48,357.05L255.63,314.07L255.64,313.95L255.69,272.61L256.23,326.23L256.39,284.29L256.4,283.96L256.45,346.05L256.5,263.25L257.15,321.99L257.16,322.35L257.21,342.44L257.37,272.52L257.91,295.04L257.92,295.48L258.12,326.97L258.56,288.2L258.67,317.13L258.68,316.94L258.72,307.89L258.88,336.21L259.43,318.74L259.44,318.86L259.69,284.88L259.8,344.64L260.19,317.29L260.2,317.26L260.5,326.36L260.72,292.38L260.95,307.86L260.96,308.13L261.42,345.39L261.47,300.73L261.71,305.09L261.72,305.18L261.9,342.03L262.01,285.09L262.47,314.83L262.48,315.17L262.88,278.18L263.2,335.14L263.23,317.21L263.24,316.75L263.58,280.43L263.9,341.73L263.99,317.17L264,317.13L264.39,294.72L264.71,345.89L264.75,308.16L264.76,307.37L264.93,335.66L265.3,290.69L265.51,298.87L265.52,298.59L265.84,280.03L266.01,338.72L266.27,319.85L266.28,319.83L266.33,331.9L266.6,283.45L267.03,318.53L267.04,318.12L267.3,276.26L267.57,341.25L267.79,287.36L267.8,287.52L268.54,337.44L268.55,335.48L268.56,335.3L268.98,273.78L269.31,299.96L269.32,300.7L269.35,332.99L269.62,263.32L270.07,311.31L270.08,311.63L270.11,324.26L270.65,269.63L270.83,283.98L270.84,284.04L270.97,260.84L271.19,314.21L271.59,279.26L271.6,279.02L271.73,246.53L271.95,309.34L272.35,261.82L272.36,261.61L272.86,284.47L273.08,229.94L273.11,237.88L273.12,238.09L273.35,224.18L273.46,291.91L273.87,243.16L273.88,242.99L274.11,193.82L274.63,218.55L274.64,218.18L275.08,222.35L275.35,171.11L275.39,175.27L275.4,175.35L275.51,214.1L276.15,148.56L276.16,148.29L276.21,180.73L276.59,123.87L276.91,136.72L276.92,136.51L277.13,107.58L277.62,174.92L277.67,116.76L277.68,116.69L277.78,140.26L277.99,82.34L278.43,112.28L278.44,112.18L279.07,77.52L279.19,97.61L279.2,97.14L279.51,99.22L279.67,41.11L279.95,86.96L279.96,87.35L279.99,103.48L280.64,59.35L280.71,81.86L280.72,82.27L281.02,34.61L281.4,100.02L281.47,75.5L281.48,75.94L281.83,41.74L282.15,111.45L282.23,92.22L282.24,93.25L282.26,121.14L282.75,46.57L282.99,79.1L283,78.94L283.23,90.28L283.66,45.09L283.75,67.87L283.76,67.69L284.1,53.85L284.42,98.38L284.51,66.1L284.52,65.91L284.64,87.02L285.23,49.94L285.27,66.56L285.28,66.89L285.34,39.66L285.66,100.42L286.03,59.75L286.04,59.48L286.26,47.05L286.53,85.81L286.79,78.18L286.8,78.27L286.85,47.47L287.01,101.94L287.55,90.54L287.56,90.44L287.93,57.8L288.25,117.66L288.31,70.61L288.32,70.03L288.36,40.68L288.74,109.26L289.07,78.65L289.08,78.7L289.17,107.74L289.28,74.17L289.83,91.14L289.84,91.04L290.09,72.71L290.47,120.23L290.59,87.82L290.6,87.85L290.68,60.1L291.17,126.55L291.35,101.82L291.36,101.84L291.71,170.07L292.03,80.19L292.11,113.67L292.12,113.87L292.36,111.66L292.79,162.06L292.87,151.86L292.88,151.8L293.33,134.26L293.6,168.63L293.63,146.81L293.64,146.26L293.65,135.9L293.71,176.79L294.39,162.95L294.4,162.68L294.52,194.2L294.73,140.97L295.15,170.44L295.16,170.73L295.87,209.04L295.91,159.21L295.92,158.27L296.3,196.75L296.57,133.34L296.67,151.6L296.68,151.17L296.84,123.55L297.11,184.94L297.43,148.14L297.44,148.08L298.08,173.25L298.19,116.7L298.19,120.44L298.2,120.97L298.24,148.72L298.94,96.38L298.95,107.75L298.96,108.78L299,157.38L299.05,76.24L299.71,90.44L299.72,90.68L300.13,113.56L300.29,67.06L300.47,98.34L300.48,98.19L300.62,58.46L301.05,103.21L301.23,65.17L301.24,64.75L301.43,112.86L301.91,44.55L301.99,55.97L302,55.87L302.02,52.68L302.51,93.86L302.75,64.5L302.76,64.37L303.05,44.3L303.1,101.91L303.51,64.6L303.52,64.04L303.64,101.03L303.8,47.15L304.27,53.84L304.28,53.24L304.29,43.54L304.67,96.6L305.03,59.61L305.04,59.57L305.21,81.51L305.48,36.85L305.79,72.51L305.8,72.45L306.29,14.96L306.45,84.88L306.55,56.69L306.56,57.04L306.72,71.73L307.31,29.39L307.31,29.85L307.32,30.31L307.58,17.9L307.91,84.22L308.07,36.69L308.08,37.24L308.18,27.62L308.77,104.85L308.83,72.39L308.84,72.52L309.53,62.52L309.58,143.18L309.59,136.43L309.6,135.95L310.28,74.29L310.35,122.68L310.36,122.99L310.55,148.61L310.77,108.14L311.11,139.13L311.12,139.18L311.2,136.07L311.58,199.62L311.87,151.63L311.88,151.56L311.96,139.06L312.01,194.09L312.63,163.43L312.64,163.42L312.66,163.15L312.68,174.02L312.68,174.47L313.31,217.21L313.43,199.27L313.44,199.5L313.79,175.97L313.85,235.92L314.19,213.48L314.2,213.16L314.28,198L314.44,235.24L314.95,228.18L314.96,227.99L315.2,214.6L315.41,254.96L315.71,229.63L315.72,229.05L315.74,215.21L316.44,271.96L316.47,246.29L316.48,245.63L316.66,265.51L316.98,221.73L317.23,253.32L317.24,253.79L317.52,231.47L317.74,276.98L317.99,262.13L318,262.7L318.01,268.96L318.71,226.83L318.75,247.91L318.76,248.31L319.25,243.38L319.41,295.88L319.51,263.72L319.52,263.65L319.9,245.18L320.06,295.45L320.27,260.13L320.28,260.62L320.54,259.42L320.98,303.08L321.03,284.61L321.04,284.79L321.25,262.09L321.73,300.21L321.79,278.55L321.8,278.36L322.16,307.16L322.32,266.15L322.55,299.46L322.56,299.74L322.81,274.62L322.86,322.48L323.31,280.08L323.32,279.91L323.35,273.5L323.78,310.87L324.07,307.22L324.08,307.42L324.43,270.96L324.59,325.61L324.83,311.36L324.84,311.4L324.97,280.18L325.56,326.36L325.59,311.93L325.6,311.49L326,278.44L326.21,329.14L326.35,294.48L326.36,294.7L326.59,337.21L327.11,269L327.12,268.66L327.13,262.92L327.35,315.7L327.87,296.66L327.88,296.58L328.05,290.54L328.16,323.87L328.63,308.79L328.64,308.62L328.7,285.56L328.97,331.91L329.39,322.56L329.4,322.76L329.83,329.23L330.05,290.65L330.15,326.14L330.16,325.93L330.48,339.85L330.69,274.02L330.91,287.58L330.92,287.7L331.13,346.31L331.67,294.75L331.68,295.03L332.15,342.98L332.43,299.74L332.44,299.58L332.53,337.96L333.07,290.22L333.19,309.31L333.2,309.36L333.66,281.68L333.72,345.47L333.95,298.45L333.96,298.51L334.2,296.57L334.64,328.26L334.71,308.34L334.72,308.33L334.91,310.17L334.93,304.51L334.93,304.29L335.23,330.51L335.66,276.44L335.68,289.32L335.69,289.84L336.31,326.47L336.42,274.35L336.44,279.98L336.45,280.17L337.01,359.53L337.2,312.11L337.21,311.6L337.61,339.96L337.77,273.25L337.96,323.58L337.97,323.68L338.15,284.83L338.58,327.99L338.72,312.68L338.73,312.48L338.79,297.25L339.12,336.38L339.48,331.34L339.49,331.57L339.5,333.92L339.71,279.94L340.24,317.16L340.25,317.54L340.41,332.58L340.95,284.04L341,306.83L341.01,307.23L341.39,261.16L341.44,342.63L341.76,300.04L341.77,300.22L342.25,288.64L342.41,327.94L342.52,296.87L342.53,296.87L342.57,296.49L342.69,305.16L342.69,305.98L343.01,295.73L343.28,350.2L343.44,300.75L343.45,300.55L343.76,289.73L343.98,326.95L344.2,298.5L344.21,298.06L344.35,331.07L344.57,275.37L344.96,323.76L344.97,323.9L345,329.86L345.17,264.51L345.72,314.97L345.73,315.41L345.76,332.4L346.19,283.72L346.48,305.52L346.49,305.75L347,281.68L347.06,323.19L347.24,295.88L347.25,295.9L347.33,325.16L347.38,270.79L348,288.56L348.01,288.73L348.4,324.37L348.62,262.89L348.76,284.6L348.77,284.29L349,312.19L349.22,252.25L349.52,270.05L349.53,270.32L349.97,304.61L350.08,220.83L350.28,286.46L350.29,286.49L350.29,286.84L350.83,232.65L351.04,256.9L351.05,257.32L351.27,272.18L351.7,222.77L351.8,250.61L351.81,250.78L352.45,277.15L352.56,180.56L352.56,181.67L352.57,182.23L353.16,221.32L353.26,168.46L353.32,176.94L353.33,176.53L353.91,133.31L354.07,190.49L354.08,158.29L354.09,157.98L354.56,129.4L354.84,156.02L354.85,156.07L354.88,158.25L355.05,104.47L355.6,108.55L355.61,108.68L355.86,68.53L355.91,127.59L356.36,89.54L356.37,89.62L356.5,106.8L357.04,65.95L357.12,84.76L357.13,85.25L357.31,103.33L357.69,47.27L357.88,76.12L357.89,76.77L358.34,46.21L358.39,95.28L358.64,75.21L358.65,74.77L359.15,57.48L359.2,98.54L359.4,85.46L359.41,85.97L359.58,45.38L359.96,95.12L360.16,92.02L360.17,92.46L360.18,97.73L360.72,47.1L360.92,63.12L360.93,63.25L361.04,86.74L361.63,53.1L361.68,57.37L361.69,57.45L361.74,89.11L361.8,44.83L362.44,71.9L362.45,71.95L362.88,82.37L362.93,45.85L363.2,78.73L363.21,78.45L363.36,103.51L363.85,40.5L363.96,92.12L363.97,91.98L364.06,103.06L364.12,32.31L364.72,65.24L364.73,65.64L365.2,51.42L365.47,101.19L365.48,92.01L365.49,91.53L366.01,46.59L366.12,105.18L366.24,81.4L366.25,81.17L366.33,61.87L366.55,107.25L367,77.49L367.01,77.37L367.52,55.47L367.63,108.55L367.76,89.52L367.77,89.54L368.06,140.72L368.38,72.89L368.52,91.85L368.53,91.64L368.87,85.71L369.03,121.04L369.28,106.76L369.29,106.73L369.3,106.05L369.84,142.7L370.04,136.44L370.05,136.35L370.27,161.04L370.76,115.13L370.8,132.98L370.81,133.34L371.41,184.51L371.52,123.52L371.56,154.08L371.57,154.63L371.62,183.07L371.68,131.01L372.32,173.18L372.33,173.46L372.81,209.37L372.97,154.13L373.08,168.79L373.09,168.89L373.3,198.05L373.78,149.72L373.84,172.7L373.85,172.49L374.32,190.87L374.49,150.04L374.6,174.29L374.61,173.81L374.92,179.95L375.3,119.56L375.36,136.33L375.37,136.64L375.62,118.18L375.94,162.24L376.12,126.26L376.13,126.47L376.43,97.19L376.65,140.6L376.88,108.63L376.89,107.98L377.24,115.89L377.64,54.31L377.65,54.12L377.67,48.86L377.78,116.53L378.4,68.81L378.41,68.87L378.75,90.38L379.07,47.01L379.16,84.66L379.17,85.26L379.18,95.95L379.29,32.05L379.92,66.13L379.93,66.03L379.99,48.58L380.53,96.1L380.68,57.44L380.69,56.79L380.75,93.49L381.23,34.11L381.44,66.64L381.45,66.25L382.04,43.39L382.15,103.04L382.2,63.88L382.21,63.2L382.26,99.66L382.8,49.04L382.96,86.11L382.97,85.34L383.07,85.43L383.56,33.85L383.72,63.5L383.73,63.9L383.77,84.87L383.93,12.38L384.48,57.85L384.49,57.89L384.85,79.51L385.01,19.55L385.24,54.07L385.25,53.4L385.5,10.47L385.72,85.23L386,66.8L386.01,66.61L386.2,55.78L386.58,98.25L386.76,79.85L386.77,80.31L387.07,47.08L387.28,124.39L387.52,108.41L387.53,108.2L387.98,87.5L388.15,148.18L388.28,139.21L388.29,139.39L388.79,106.28L388.9,166.17L389.04,156.71L389.05,157.4L389.23,127.16L389.71,194.58L389.8,180.87L389.81,180.77L390.14,142.89L390.56,208.14L390.57,208.34L390.58,210.72L390.63,163.33L391.32,201.12L391.33,201.19L391.87,238.78L391.98,193.88L392.08,217.98L392.09,218.02L392.14,193.55L392.79,247.96L392.84,228.82L392.85,228.5L392.9,209.49L393.01,255.53L393.6,237.27L393.61,236.95L394.14,262.9L394.25,213.23L394.36,238.49L394.37,238.71L394.52,225.03L395,270.31L395.12,249.82L395.13,250.09L395.44,227.6L395.54,284.86L395.88,263.16L395.89,262.8L396.41,237.06L396.57,292.6L396.64,261.08L396.65,261.11L396.84,244.68L397.16,292.94L397.4,264.93L397.41,265.32L397.76,263.58L397.81,291.9L398.16,271.96L398.17,271.47L398.19,258.2L398.41,296.71L398.92,264.42L398.93,263.92L398.95,253.11L399.43,297.24L399.68,288.45L399.69,288.35L399.92,307.66L400.13,269.82L400.44,280.98L400.45,280.66L400.84,312.02L400.89,254.3L401.2,270.85L401.21,270.43L401.21,266.61L401.54,329.56L401.96,291.15L401.97,290.9L402.35,278.48L402.46,324.32L402.72,298.9L402.73,298.82L403.21,283.39L403.37,327.36L403.48,306.07L403.49,306.32L403.54,319.99L403.86,285.3L404.24,298.35L404.25,298.55L404.78,326.4L404.83,274.9L405,312.83L405.01,312.92L405.21,321.81L405.37,287.48L405.76,305.32L405.77,305.47L405.86,276.32L405.97,332.08L406.52,310.17L406.53,310.45L406.56,320.72L406.83,269.7L407.28,295.34L407.29,295.4L407.42,343.42L407.48,279.19L408.04,312.15L408.05,311.8L408.45,296.85L408.5,327.78L408.8,317.8L408.81,317.71L408.99,281.5L409.42,326.72L409.56,302.68L409.57,302.26L410.23,339.86L410.28,283.45L410.32,301.36L410.33,301.77L410.66,267.08L411.08,326.31L411.09,326.53L411.09,328.76L411.36,290.81L411.84,293.46L411.85,293.3L411.85,292.35L412.6,326.56L412.61,326.81L412.71,278.95L412.98,334.48L413.36,330.48L413.37,330.16L413.74,285.7L413.96,332.14L414.12,307.36L414.13,307.71L414.82,353.43L414.88,283.55L414.89,283.35L414.93,273.95L415.47,322.67L415.64,315.13L415.65,315.01L416.17,334.74L416.22,275.86L416.4,321.06L416.41,321.33L416.44,331.56L416.87,281.42L417.16,309.14L417.17,309.14L417.26,313.37L417.26,313.72L417.47,278.39L417.74,333.69L418.01,294.05L418.02,294.2L418.17,333.04L418.38,289.9L418.77,311L418.78,310.63L418.87,277.78L419.14,326.73L419.53,318L419.54,317.92L419.73,274.37L420.27,345.37L420.29,329.74L420.3,329.06L420.76,282.01L421.05,314.44L421.06,314.54L421.46,286.22L421.68,337.63L421.81,298.94L421.82,298.84L422.33,325.97L422.49,284.72L422.57,303.96L422.58,303.68L422.65,326.21L423.19,274.88L423.33,293.61L423.34,293.11L423.35,284.15L423.73,334.38L424.09,292.29L424.1,291.87L424.22,324.64L424.54,265.66L424.85,289.05L424.86,289.12L424.97,326.31L425.51,268.23L425.61,282.02L425.62,282.01L425.73,311.15L426.05,269.91L426.37,277.02L426.38,276.89L426.97,244.61L427.02,301.94L427.13,244.69L427.14,244.71L427.67,288.25L427.78,216.65L427.89,221.07L427.9,220.92L428,265.27L428.59,188.99L428.65,218.35L428.66,218.47L429.13,182.21L429.4,248.53L429.41,212.65L429.42,212.26L429.62,213.42L430.1,157.14L430.17,180.2L430.18,180.19L430.21,179.67L430.21,152.58L430.53,181.1L430.86,131.14L430.96,155.99L430.97,155.97L431.34,175.84L431.67,112.82L431.72,144.82L431.73,144.9L431.78,149.31L432.42,107.15L432.48,126.3L432.49,126.33L432.59,147.89L433.13,91.99L433.24,106.53L433.25,106.91L433.4,125.24L433.83,66.55L434,85.68L434.01,85.84L434.42,114.2L434.48,69.93L434.76,88.41L434.77,87.75L434.91,133.23L435.45,59.84L435.52,91.09L435.53,90.74L436.15,97.25L436.28,43.37L436.29,43.2L436.31,38.5L436.63,101.76L437.04,65.56L437.05,65.89L437.12,84.68L437.66,36L437.8,60L437.81,59.63L438.2,97.49L438.25,45.66L438.56,92.74L438.57,93.4L438.58,103.3L439.12,21.43L439.32,72.04L439.33,71.95L439.5,98.65L439.6,38.57L440.08,79.35L440.09,79.65L440.14,85.04L440.68,38.14L440.84,67.99L440.85,68.06L441.12,81.83L441.55,31.23L441.6,45.9L441.61,46.32L442.3,85.4L442.36,65.03L442.37,64.54L442.68,89.19L442.95,29.62L443.12,69.8L443.13,69.83L443.33,85.77L443.82,46.52L443.88,75.14L443.89,75.56L443.92,93.87L444.19,42.02L444.64,58.19L444.65,58.7L445.22,49.35L445.38,95.55L445.4,95.17L445.41,95.16L445.46,81.87L445.46,81.29L445.49,59.79L445.54,104.19L446.21,80.55L446.22,80.77L446.79,57.98L446.89,102.78L446.97,82.26L446.98,82.74L447.49,55.69L447.54,100.07L447.73,95.7L447.74,96.08L447.81,75.42L448.24,112.66L448.49,97.03L448.5,96.68L448.62,53.1L449.16,139.32L449.25,97.26L449.26,97.25L449.32,96.47L449.34,107.21L449.34,107.84L449.59,87.62L449.65,141.32L450.09,134.83L450.1,135.26L450.3,104.82L450.57,187.84L450.85,136.26L450.86,136.34L451.16,132.04L451.54,203.13L451.61,171.2L451.62,171.31L451.97,153.06L452.29,227.44L452.37,208.22L452.38,207.86L452.56,174.34L453,236.68L453.13,224.68L453.14,224.72L453.54,213.25L453.81,286L453.89,255.49L453.9,255.91L454.08,219.97L454.62,274.57L454.65,252.02L454.66,251.49L454.83,234.45L455.1,283.58L455.41,258.8L455.42,258.64L455.48,298.73L455.8,245.81L456.17,264.15L456.18,263.95L456.24,250.29L456.88,288.46L456.93,280.45L456.94,280.31L457.21,309.75L457.32,229.02L457.69,277.22L457.7,276.85L458.13,290.4L458.34,245.6L458.45,253.11L458.46,253.36L458.56,298.1L459.15,247.47L459.21,268.9L459.22,268.42L459.26,244.73L459.75,291.22L459.97,257.66L459.98,257.57L460.12,290.18L460.34,245.74L460.73,279.38L460.74,279.19L460.99,238.31L461.47,293.04L461.49,271.94L461.5,271.07L461.64,222.34L462.01,292.55L462.25,256.08L462.26,256.04L462.61,306.13L462.88,239.64L463.01,249.49L463.02,249.7L463.58,285.64L463.69,217.91L463.77,252.41L463.78,252.86L463.85,234.57L463.96,277.36L464.53,266.92L464.54,266.83L464.6,246.96L464.93,289.67L465.29,278.8L465.3,278.98L465.41,284.95L465.74,240.9L466.05,249.19L466.06,248.78L466.33,269.33L466.71,234.68L466.81,254.11L466.82,254.37L466.98,288.94L467.41,241.59L467.57,263.99L467.58,263.56L467.68,284.62L467.79,230.75L468.33,255.49L468.34,255.56L468.65,229.87L468.82,276.84L469.09,244.62L469.1,244.64L469.19,282.83L469.41,228.47L469.85,246.45L469.86,246.76L470.44,265.34L470.6,227.84L470.61,236.93L470.62,237.44L471.14,286.98L471.3,235.35L471.37,253.02L471.38,253.61L471.57,234.77L471.62,300.43L472.13,267.79L472.14,268.52L472.38,302.98L472.81,253.47L472.89,261.87L472.9,261.82L472.92,260.31L473.14,319.47L473.65,267.08L473.66,266.69L473.78,255.52L474.41,293.82L474.42,294.07L475.08,253.66L475.17,308.76L475.18,309.46L475.19,319.32L475.3,248.3L475.93,283.29L475.94,283.61L476.38,312.19L476.54,276.08L476.69,297.4L476.7,297.56L477.13,273.33L477.4,329.29L477.45,292.83L477.46,292.2L477.73,332.32L477.94,284.45L478.21,293.83L478.22,293.7L478.54,320.51L478.75,285.67L478.97,304.13L478.98,304.23L479.08,277.42L479.18,333.21L479.73,301.62L479.74,301.6L480.1,291.93L480.16,321.1L480.49,315.73L480.5,315.48L481.13,343.44L481.24,284.12L481.25,293.17L481.26,293.6L481.61,290.63L481.78,336.63L482.01,316.96L482.02,317.12L482.42,340.97L482.48,275.65L482.77,308.26L482.78,308.34L482.91,328.4L483.02,276.41L483.53,312.51L483.54,312.54L484.1,336.72L484.21,267.61L484.29,317.62L484.3,317.79L484.47,291.25L484.8,341.18L485.05,324.02L485.06,323.85L485.12,289.87L485.5,343.29L485.81,305.5L485.82,305.6L486.04,349.89L486.57,286.03L486.58,285.06L486.58,278.25L486.85,335.75L487.33,295.21L487.34,294.94L487.5,286.9L487.99,345.2L488.09,297.37L488.1,297.31L488.26,289.39L488.63,336.32L488.85,300.27L488.86,300.15L488.9,294.17L489.34,340.95L489.61,315.84L489.62,315.67L489.66,307.43L489.98,327.74L490.37,321.06L490.38,321.13L490.85,342.4L490.9,280.31L491.13,314.48L491.14,314.4L491.39,346.43L491.5,285.71L491.89,329.44L491.9,328.81L492.09,282.07L492.14,346.34L492.65,301.62L492.66,301.66L493.11,324.68L493.38,296.73L493.41,310.51L493.42,310.93L493.92,288.98L494.03,336.75L494.17,327.95L494.18,328.07L494.25,332.54L494.79,305.48L494.93,326.05L494.94,326.26L495.44,346.32L495.49,263.09L495.69,300.77L495.7,300.28L495.71,293.89L496.3,346.04L496.45,305.75L496.46,305.45L496.62,352.31L496.79,284.64L497.21,334.6L497.22,334.7L497.54,299.33L497.81,351.57L497.97,323.99L497.98,323.81L498.3,293.16L498.46,348.45L498.73,317.85L498.74,318.28L499.05,303.48L499.38,348.95L499.49,313.95L499.5,313.96L499.54,314.35L499.57,303.81L499.58,303.53L500.03,326.08L500.24,287.7L500.33,310.97L500.34,311.1L500.57,340.72L501.05,282.46L501.09,314.94L501.1,315.63L501.7,281.36L501.81,337.85L501.85,298.2L501.86,297.43L502.4,320.31L502.56,280.67L502.61,298.66L502.62,298.98L503.05,317.08L503.27,279.27L503.37,306.45L503.38,305.91L503.48,266.39L503.54,332.82L504.13,303.32L504.14,303.25L504.35,314.08L504.51,277.05L504.89,299.76L504.9,299.83L505.1,277.5L505.59,316.48L505.65,288.38L505.66,287.86L505.7,264.73L505.75,320.3L506.41,305.63L506.42,305.88L506.78,267.39L507.1,318.62L507.17,301.2L507.18,301.64L507.69,264.6L507.86,332.35L507.93,311.76L507.94,311.47L508.18,281.25L508.69,318.08L508.7,318.71L508.72,335.64L509.1,278.16L509.45,318.18L509.46,318.18L509.52,301.62L509.52,301.26L509.75,287.3L510.18,321.12L510.27,290.94L510.28,290.56L510.29,286.41L510.61,342.63L511.03,294.98L511.04,295.07L511.53,323.84L511.79,290.85L511.8,290.55L512.07,287.44L512.28,325.02L512.55,323.38L512.56,323.26L512.93,327.43L513.31,292.76L513.31,295.57L513.32,296.03L513.47,284.03L513.63,342.7L514.07,312.04L514.08,311.9L514.23,333.73L514.28,291.59L514.83,316.81L514.84,317.01L515.15,333.67L515.52,282.51L515.59,317.8L515.6,317.64L515.69,324.74L516.33,287.24L516.35,295.18L516.36,295.51L516.66,293.36L516.93,323.71L517.11,306.13L517.12,306.34L517.25,331.08L517.31,298.68L517.87,313.94L517.88,313.61L518.01,322.28L518.44,273.13L518.63,298.65L518.64,299.14L518.76,338.25L519.09,276.47L519.39,324.26L519.4,325.05L519.41,338.5L519.68,271.78L520.15,284.97L520.16,284.59L520.22,272.78L520.81,325.86L520.91,303.2L520.92,303.6L521.3,325L521.67,283.05L521.68,282.56L522.22,310.81L522.33,267.44L522.43,275.26L522.44,275.51L522.81,322.07L522.97,272.29L523.19,310.25L523.2,309.89L523.41,279.77L523.95,302.13L523.96,302.51L524.54,325.89L524.59,283.68L524.71,313.92L524.72,313.32L524.92,344.6L525.3,275.84L525.47,312.02L525.48,312.13L525.73,284.73L525.94,338.66L526.23,317.6L526.24,317.76L526.38,285.22L526.7,323.9L526.99,302.01L527,302.27L527.4,321.28L527.46,287.25L527.75,308.91L527.76,308.52L528.37,329.81L528.48,282.87L528.51,294.44L528.52,294.76L529.08,326.79L529.24,283.81L529.27,302.21L529.28,302.67L529.51,272.36L529.94,323L530.03,291.05L530.04,290.8L530.26,333.4L530.7,282.21L530.79,296.09L530.8,295.47L531.07,335.44L531.13,286.79L531.55,288.67L531.56,288.35L531.88,284.51L532.05,328.4L532.31,302.48L532.32,302.47L532.42,266.95L532.59,320.11L533.07,306.13L533.08,306.04L533.23,271.92L533.29,320.37L533.83,287.49L533.84,287.61L534.31,284.17L534.48,325.19L534.59,291.86L534.6,292.19L535.02,269.66L535.29,331.81L535.35,303.05L535.36,303.52L535.39,323.59L535.56,272.37L536.11,298.43L536.12,298.42L536.46,285.74L536.46,285.57L536.8,312.7L537.07,275.7L537.21,298.65L537.22,299.04L537.34,272.46L537.88,309.57L537.97,303.92L537.98,304.25L537.99,307.77L538.04,249.97L538.73,272.62L538.74,272.66L539.17,312.34L539.34,236.48L539.49,278.58L539.5,278.72L539.82,246.19L540.25,295.84L540.25,295.63L540.26,295.43L540.85,232.63L541.01,289.81L541.02,289.45L541.39,300.83L541.6,248.58L541.77,270.66L541.78,270.86L541.93,253.79L542.25,294.7L542.53,287.19L542.54,287.25L542.63,301.72L542.79,230.53L543.29,264.67L543.3,264.29L543.49,246.19L543.87,298.88L544.05,254.01L544.06,254.14L544.25,290.4L544.68,252.84L544.81,268.61L544.82,268.92L545.22,287.79L545.49,246.92L545.57,266.56L545.58,266.19L545.65,276.84L546.19,236.67L546.33,258.52L546.34,258.76L546.57,289.99L546.73,240.64L547.09,262.03L547.1,261.93L547.38,269.38L547.54,233.49L547.85,239.17L547.86,238.68L547.87,232.33L547.98,309.95L548.61,281.45L548.62,281.83L548.68,306.79L548.95,235.78L549.37,282.63L549.38,282.33L549.54,244.92L549.81,307.19L550.13,283.49L550.14,283.34L550.4,252.93L550.51,300.12L550.89,290.65L550.9,291.05L550.94,313.16L551.32,268.94L551.65,296.72L551.66,295.75L551.7,248.22L552.4,310.54L552.41,308.46L552.42,308.3L552.78,256.13L552.89,309.61L553.17,289.3L553.18,289.87L553.27,270.58L553.81,314.18L553.93,304.76L553.94,304.64L554.18,267.62L554.4,331.52L554.69,300.04L554.7,299.77L555.16,286.82L555.43,320.28L555.45,308.62L555.46,308.25L555.91,291.76L556.18,322.05L556.21,308.63L556.22,308.26L556.45,287.09L556.88,339.31L556.97,325.81L556.98,325.99L557.1,297.52L557.53,351.49L557.73,301.94L557.74,301.31L558.18,351.83L558.29,287.18L558.49,317.51L558.5,317.49L559.1,297.51L559.25,332.77L559.26,333.31L559.26,336.02L559.85,289.59L560.01,302.53L560.02,302.46L560.07,281.49L560.61,328.61L560.61,322.24" style="vector-effect: non-scaling-stroke; fill: none; stroke: rgb(0, 154, 250); stroke-opacity: 1; stroke-width: 3px; opacity: 1;"/></g><g class="points"/><g class="text"/></g></g></g><g class="overplot"/><path class="xlines-above crisp" d="M99.09550889472148,413.13998250218725H677.0341207349081" style="fill: none; stroke-width: 1px; stroke: rgb(0, 0, 0); stroke-opacity: 1;"/><path class="ylines-above crisp" d="M99.59550889472148,42.63779527559056V412.63998250218725" style="fill: none; stroke-width: 1px; stroke: rgb(0, 0, 0); stroke-opacity: 1;"/><g class="overlines-above"/><g class="xaxislayer-above"><path class="xtick ticks crisp" d="M0,412.63998250218725v-5" transform="translate(116.42550889472147,0)" style="stroke: rgb(0, 0, 0); stroke-opacity: 1; stroke-width: 1px;"/><path class="xtick ticks crisp" d="M0,412.63998250218725v-5" transform="translate(194.17550889472147,0)" style="stroke: rgb(0, 0, 0); stroke-opacity: 1; stroke-width: 1px;"/><path class="xtick ticks crisp" d="M0,412.63998250218725v-5" transform="translate(271.93550889472147,0)" style="stroke: rgb(0, 0, 0); stroke-opacity: 1; stroke-width: 1px;"/><path class="xtick ticks crisp" d="M0,412.63998250218725v-5" transform="translate(349.68550889472147,0)" style="stroke: rgb(0, 0, 0); stroke-opacity: 1; stroke-width: 1px;"/><path class="xtick ticks crisp" d="M0,412.63998250218725v-5" transform="translate(427.4455088947215,0)" style="stroke: rgb(0, 0, 0); stroke-opacity: 1; stroke-width: 1px;"/><path class="xtick ticks crisp" d="M0,412.63998250218725v-5" transform="translate(505.1955088947215,0)" style="stroke: rgb(0, 0, 0); stroke-opacity: 1; stroke-width: 1px;"/><path class="xtick ticks crisp" d="M0,412.63998250218725v-5" transform="translate(582.9555088947214,0)" style="stroke: rgb(0, 0, 0); stroke-opacity: 1; stroke-width: 1px;"/><path class="xtick ticks crisp" d="M0,412.63998250218725v-5" transform="translate(660.7055088947214,0)" style="stroke: rgb(0, 0, 0); stroke-opacity: 1; stroke-width: 1px;"/><g class="xtick"><text text-anchor="middle" x="0" y="437.63998250218725" transform="translate(116.42550889472147,0)" style="font-family: sans-serif; font-size: 20px; fill: rgb(0, 0, 0); fill-opacity: 1; white-space: pre;">0</text></g><g class="xtick"><text text-anchor="middle" x="0" y="437.63998250218725" transform="translate(194.17550889472147,0)" style="font-family: sans-serif; font-size: 20px; fill: rgb(0, 0, 0); fill-opacity: 1; white-space: pre;">1</text></g><g class="xtick"><text text-anchor="middle" x="0" y="437.63998250218725" transform="translate(271.93550889472147,0)" style="font-family: sans-serif; font-size: 20px; fill: rgb(0, 0, 0); fill-opacity: 1; white-space: pre;">2</text></g><g class="xtick"><text text-anchor="middle" x="0" y="437.63998250218725" transform="translate(349.68550889472147,0)" style="font-family: sans-serif; font-size: 20px; fill: rgb(0, 0, 0); fill-opacity: 1; white-space: pre;">3</text></g><g class="xtick"><text text-anchor="middle" x="0" y="437.63998250218725" transform="translate(427.4455088947215,0)" style="font-family: sans-serif; font-size: 20px; fill: rgb(0, 0, 0); fill-opacity: 1; white-space: pre;">4</text></g><g class="xtick"><text text-anchor="middle" x="0" y="437.63998250218725" transform="translate(505.1955088947215,0)" style="font-family: sans-serif; font-size: 20px; fill: rgb(0, 0, 0); fill-opacity: 1; white-space: pre;">5</text></g><g class="xtick"><text text-anchor="middle" x="0" y="437.63998250218725" transform="translate(582.9555088947214,0)" style="font-family: sans-serif; font-size: 20px; fill: rgb(0, 0, 0); fill-opacity: 1; white-space: pre;">6</text></g><g class="xtick"><text text-anchor="middle" x="0" y="437.63998250218725" transform="translate(660.7055088947214,0)" style="font-family: sans-serif; font-size: 20px; fill: rgb(0, 0, 0); fill-opacity: 1; white-space: pre;">7</text></g></g><g class="yaxislayer-above"><path class="ytick ticks crisp" d="M100.09550889472148,0h5" transform="translate(0,363.3277952755906)" style="stroke: rgb(0, 0, 0); stroke-opacity: 1; stroke-width: 1px;"/><path class="ytick ticks crisp" d="M100.09550889472148,0h5" transform="translate(0,288.95779527559057)" style="stroke: rgb(0, 0, 0); stroke-opacity: 1; stroke-width: 1px;"/><path class="ytick ticks crisp" d="M100.09550889472148,0h5" transform="translate(0,214.57779527559057)" style="stroke: rgb(0, 0, 0); stroke-opacity: 1; stroke-width: 1px;"/><path class="ytick ticks crisp" d="M100.09550889472148,0h5" transform="translate(0,140.20779527559057)" style="stroke: rgb(0, 0, 0); stroke-opacity: 1; stroke-width: 1px;"/><path class="ytick ticks crisp" d="M100.09550889472148,0h5" transform="translate(0,65.83779527559057)" style="stroke: rgb(0, 0, 0); stroke-opacity: 1; stroke-width: 1px;"/><g class="ytick"><text text-anchor="end" x="95.09550889472148" y="7" transform="translate(0,363.3277952755906)" style="font-family: sans-serif; font-size: 20px; fill: rgb(0, 0, 0); fill-opacity: 1; white-space: pre;">0.5</text></g><g class="ytick"><text text-anchor="end" x="95.09550889472148" y="7" transform="translate(0,288.95779527559057)" style="font-family: sans-serif; font-size: 20px; fill: rgb(0, 0, 0); fill-opacity: 1; white-space: pre;">1.0</text></g><g class="ytick"><text text-anchor="end" x="95.09550889472148" y="7" transform="translate(0,214.57779527559057)" style="font-family: sans-serif; font-size: 20px; fill: rgb(0, 0, 0); fill-opacity: 1; white-space: pre;">1.5</text></g><g class="ytick"><text text-anchor="end" x="95.09550889472148" y="7" transform="translate(0,140.20779527559057)" style="font-family: sans-serif; font-size: 20px; fill: rgb(0, 0, 0); fill-opacity: 1; white-space: pre;">2.0</text></g><g class="ytick"><text text-anchor="end" x="95.09550889472148" y="7" transform="translate(0,65.83779527559057)" style="font-family: sans-serif; font-size: 20px; fill: rgb(0, 0, 0); fill-opacity: 1; white-space: pre;">2.5</text></g></g><g class="overaxes-above"/></g></g><g class="polarlayer"/><g class="ternarylayer"/><g class="geolayer"/><g class="funnelarealayer"/><g class="pielayer"/><g class="treemaplayer"/><g class="sunburstlayer"/><g class="glimages"/><defs id="topdefs-100a7a"><g class="clips"/></defs><g class="layer-above"><g class="imagelayer"/><g class="shapelayer"/></g><g class="infolayer"><g class="g-gtitle"/><g class="g-xtitle"><text class="xtitle" x="388.56481481481484" y="482.63998250218725" text-anchor="middle" style="font-family: sans-serif; font-size: 20px; fill: rgb(0, 0, 0); opacity: 1; font-weight: normal; white-space: pre;">days [c]</text></g><g class="g-ytitle"><text class="ytitle" transform="rotate(-90,50.095508894721476,227.6388888888889)" x="50.095508894721476" y="227.6388888888889" text-anchor="middle" style="font-family: sans-serif; font-size: 20px; fill: rgb(0, 0, 0); opacity: 1; font-weight: normal; white-space: pre;">normed demand G4</text></g></g></svg>