<svg class="main-svg" xmlns="http://www.w3.org/2000/svg" xmlns:xlink="http://www.w3.org/1999/xlink" width="700" height="500" style="" viewBox="0 0 700 500"><rect x="0" y="0" width="700" height="500" style="fill: rgb(255, 255, 255); fill-opacity: 1;"/><defs id="defs-15ed31"><g class="clips"><clipPath id="clip15ed31xyplot" class="plotclip"><rect width="576.9386118401867" height="370.0021872265967"/></clipPath><clipPath class="axesclip" id="clip15ed31x"><rect x="100.09550889472148" y="0" width="576.9386118401867" height="500"/></clipPath><clipPath class="axesclip" id="clip15ed31y"><rect x="0" y="42.63779527559056" width="700" height="370.0021872265967"/></clipPath><clipPath class="axesclip" id="clip15ed31xy"><rect x="100.09550889472148" y="42.63779527559056" width="576.9386118401867" height="370.0021872265967"/></clipPath></g><g class="gradients"/></defs><g class="bglayer"/><g class="layer-below"><g class="imagelayer"/><g class="shapelayer"/></g><g class="cartesianlayer"><g class="subplot xy"><g class="layer-subplot"><g class="shapelayer"/><g class="imagelayer"/></g><g class="gridlayer"><g class="x"><path class="xgrid crisp" transform="translate(116.42550889472147,0)" d="M0,42.63779527559056v370.0021872265967" style="stroke: rgb(0, 0, 0); stroke-opacity: 0.1; stroke-width: 0.5px;"/><path class="xgrid crisp" transform="translate(194.17550889472147,0)" d="M0,42.63779527559056v370.0021872265967" style="stroke: rgb(0, 0, 0); stroke-opacity: 0.1; stroke-width: 0.5px;"/><path class="xgrid crisp" transform="translate(271.93550889472147,0)" d="M0,42.63779527559056v370.0021872265967" style="stroke: rgb(0, 0, 0); stroke-opacity: 0.1; stroke-width: 0.5px;"/><path class="xgrid crisp" transform="translate(349.68550889472147,0)" d="M0,42.63779527559056v370.0021872265967" style="stroke: rgb(0, 0, 0); stroke-opacity: 0.1; stroke-width: 0.5px;"/><path class="xgrid crisp" transform="translate(427.4455088947215,0)" d="M0,42.63779527559056v370.0021872265967" style="stroke: rgb(0, 0, 0); stroke-opacity: 0.1; stroke-width: 0.5px;"/><path class="xgrid crisp" transform="translate(505.1955088947215,0)" d="M0,42.63779527559056v370.0021872265967" style="stroke: rgb(0, 0, 0); stroke-opacity: 0.1; stroke-width: 0.5px;"/><path class="xgrid crisp" transform="translate(582.9555088947214,0)" d="M0,42.63779527559056v370.0021872265967" style="stroke: rgb(0, 0, 0); stroke-opacity: 0.1; stroke-width: 0.5px;"/><path class="xgrid crisp" transform="translate(660.7055088947214,0)" d="M0,42.63779527559056v370.0021872265967" style="stroke: rgb(0, 0, 0); stroke-opacity: 0.1; stroke-width: 0.5px;"/></g><g class="y"><path class="ygrid crisp" transform="translate(0,411.5077952755906)" d="M100.09550889472148,0h576.9386118401867" style="stroke: rgb(0, 0, 0); stroke-opacity: 0.1; stroke-width: 0.5px;"/><path class="ygrid crisp" transform="translate(0,338.34779527559056)" d="M100.09550889472148,0h576.9386118401867" style="stroke: rgb(0, 0, 0); stroke-opacity: 0.1; stroke-width: 0.5px;"/><path class="ygrid crisp" transform="translate(0,265.1877952755906)" d="M100.09550889472148,0h576.9386118401867" style="stroke: rgb(0, 0, 0); stroke-opacity: 0.1; stroke-width: 0.5px;"/><path class="ygrid crisp" transform="translate(0,192.02779527559056)" d="M100.09550889472148,0h576.9386118401867" style="stroke: rgb(0, 0, 0); stroke-opacity: 0.1; stroke-width: 0.5px;"/><path class="ygrid crisp" transform="translate(0,118.86779527559057)" d="M100.09550889472148,0h576.9386118401867" style="stroke: rgb(0, 0, 0); stroke-opacity: 0.1; stroke-width: 0.5px;"/><path class="ygrid crisp" transform="translate(0,45.697795275590565)" d="M100.09550889472148,0h576.9386118401867" style="stroke: rgb(0, 0, 0); stroke-opacity: 0.1; stroke-width: 0.5px;"/></g></g><g class="zerolinelayer"/><path class="xlines-below"/><path class="ylines-below"/><g class="overlines-below"/><g class="xaxislayer-below"/><g class="yaxislayer-below"/><g class="overaxes-below"/><g class="plot" transform="translate(100.09550889472148,42.63779527559056)" clip-path="url('#clip15ed31xyplot')"><g class="scatterlayer mlayer"><g class="trace scatter traceb557f3" style="stroke-miterlimit: 2; opacity: 1;"><g class="fills"/><g class="errorbars"/><g class="lines"><path class="js-line" d="M16.33,278.1L16.65,333.43L16.87,243.34L17.08,266.46L17.09,266.92L17.14,304.06L17.3,262.21L17.84,265.03L17.85,265.14L18.49,322.81L18.6,258.7L18.6,263.81L18.61,264.38L18.87,313.98L19.36,300.41L19.37,300.25L19.46,271.75L19.68,337.58L20.12,313.13L20.13,313.16L20.38,278.39L20.54,329.89L20.88,318.16L20.89,318.49L20.92,330.2L21.08,287.5L21.64,300.79L21.65,300.89L21.78,325.33L21.89,295.47L22.4,313.42L22.41,313.33L22.81,292.41L22.92,334.43L23.16,296.39L23.17,296.35L23.29,279.96L23.89,332.22L23.92,308.83L23.93,308.26L24.21,293.35L24.59,335.15L24.68,307.58L24.69,307.76L25.13,338.24L25.18,293.86L25.44,312.35L25.45,312.14L26.1,281.21L26.16,334.79L26.2,311.95L26.21,311.52L26.37,329.26L26.96,283.9L26.97,283.49L27.18,331.69L27.72,319.42L27.73,319.6L28.1,340.38L28.48,282.32L28.48,287.84L28.49,288.53L28.75,340.11L29.24,330.25L29.25,329.48L29.34,291.33L29.67,342.33L30,300.16L30.01,300.37L30.21,345.98L30.76,307.21L30.77,306.67L31.07,285.73L31.45,336.15L31.52,325.68L31.53,326.39L31.56,350.1L32.04,280.25L32.28,321L32.29,321.18L32.31,326.52L32.91,287.58L33.04,322.25L33.05,322.31L33.39,271.97L33.72,329.59L33.8,316.14L33.81,316.33L33.88,322.5L34.36,288.48L34.56,291.92L34.57,291.85L34.63,309.67L35.12,262.48L35.32,292.46L35.33,292.44L35.44,313.07L35.93,248.12L36.08,275.58L36.09,275.76L36.36,282.07L36.79,230.36L36.84,244.81L36.85,245.07L37.06,268.92L37.55,199.98L37.6,217.16L37.61,217.12L37.82,249L38.25,182.07L38.36,199.3L38.37,199.56L38.68,239.6L39.01,169.85L39.12,177.59L39.13,177.94L39.22,171.04L39.71,213.76L39.88,190.97L39.89,190.54L40.09,153.43L40.36,216.49L40.64,168.88L40.65,168.99L40.9,144.62L41.33,190.15L41.4,178.82L41.41,178.47L41.81,202.33L41.92,156.74L42.16,186.84L42.17,186.42L42.41,148.07L42.68,197.93L42.92,149.31L42.93,148.7L42.95,132.82L43.27,194.71L43.68,190.61L43.69,191.16L43.76,205.54L43.81,140.81L44.44,173.92L44.45,174.13L44.57,152.76L44.78,199.44L45.2,186.29L45.21,186.95L45.32,151.34L45.96,207.92L45.97,208.09L45.97,209.5L46.08,172.54L46.72,181.03L46.73,181.01L47.05,165.53L47.43,218.71L47.48,194.16L47.49,194.31L47.75,168.12L47.86,216.32L48.24,187.28L48.25,187.39L48.89,176.23L49,211.66L49,203.89L49.01,203.02L49.16,157.95L49.75,228.93L49.76,222.86L49.77,222.43L50.35,184.96L50.45,237.49L50.52,194.76L50.53,194.9L50.67,223.69L51.1,176.89L51.28,189.2L51.29,189.07L51.37,216.08L51.48,170.74L52.04,191.85L52.05,192.26L52.18,223.15L52.34,176.69L52.8,189.78L52.81,189.56L53.48,172.24L53.53,224.39L53.56,190.89L53.57,189.96L53.59,166.07L54.07,218.07L54.32,190.18L54.33,190.7L54.5,218.97L55.08,172.44L55.09,172.33L55.2,227.42L55.75,159.44L55.84,186.15L55.85,186.2L55.96,230.56L56.07,160.31L56.6,212.38L56.61,212.64L56.61,213.95L57.15,155.42L57.36,161.58L57.37,161.32L57.53,200.45L57.64,151.47L58.12,157.54L58.13,157.58L58.34,190.35L58.55,149.27L58.88,163.4L58.89,163.8L59.47,207.34L59.58,151.73L59.64,186.03L59.65,186.1L59.85,201.86L60.34,151.05L60.4,184.09L60.41,184.18L60.87,171.55L60.98,218.95L61.16,181.49L61.17,181.66L61.58,214.6L61.9,156.66L61.92,169.75L61.93,170.25L62.55,226.46L62.68,198.04L62.69,197.47L62.98,178.9L63.31,221.42L63.44,202.61L63.45,202.29L63.52,170.34L63.74,225.75L64.2,213.19L64.21,213.14L64.66,179.8L64.96,239.48L64.97,239.75L65.14,171.6L65.57,249.1L65.72,221.59L65.73,221.77L65.9,181.84L66.11,232.39L66.48,208.25L66.49,208.5L66.71,238.17L67.03,174.91L67.24,211.12L67.25,211.36L67.95,263.51L68,188.3L68,189.01L68.01,189.37L68.38,242.27L68.76,224.9L68.77,224.98L69.03,241.81L69.3,193.87L69.52,225.2L69.53,225.04L69.62,246.94L70.05,191.91L70.28,197.4L70.29,197.71L70.49,228.56L70.7,181.59L71.04,185.35L71.05,185.53L71.19,231.78L71.24,165.44L71.8,190.89L71.81,191.47L71.84,212.03L72.32,174.96L72.56,206.93L72.57,206.93L72.62,191.38L72.62,190.89L73.08,149.84L73.29,207.94L73.37,183.84L73.38,183.57L73.94,146.81L74.1,204.23L74.13,175.83L74.14,175L74.7,133.85L74.89,137.46L74.9,137.44L75.13,178.26L75.45,110.74L75.65,127.4L75.66,127.35L75.94,141.34L76.37,107.53L76.41,114.92L76.42,115.07L76.8,154.87L77.12,84.35L77.17,103.62L77.18,104L77.45,74.2L77.72,132.46L77.93,117.67L77.94,118.12L78.15,78.29L78.26,119.89L78.69,83.7L78.7,83.94L79.02,132.14L79.18,52.85L79.45,78.66L79.46,78.95L79.72,72.5L79.94,129.89L80.21,91.63L80.22,92.34L80.26,127.07L80.8,64.68L80.97,103.39L80.98,103.44L81.12,78.14L81.29,134.77L81.73,104.54L81.74,104.33L81.77,96.29L82.26,138.52L82.49,113.62L82.5,113.43L82.64,90.76L82.8,148.72L83.25,112.99L83.26,112.98L83.28,112.54L83.35,122.74L83.36,122.88L83.88,102.14L84.04,162.59L84.11,149.97L84.12,149.78L84.31,124.81L84.63,165.92L84.87,162.55L84.88,162.99L84.9,176.74L85.34,136.74L85.63,143.36L85.64,142.85L85.66,129.13L85.93,181.92L86.39,144.28L86.4,144.09L86.69,135.28L86.85,199.8L87.15,154.92L87.16,154.19L87.17,141.11L87.71,195.97L87.91,189.65L87.92,189.93L88.2,160.79L88.67,208.09L88.68,208.54L89.01,177.27L89.22,222.56L89.43,211.18L89.44,211.22L89.66,186.51L89.93,229.06L90.19,207.16L90.2,206.85L90.47,250.29L90.63,185.65L90.95,242.33L90.96,241.83L91.11,191.62L91.71,222.66L91.72,222.74L92.19,199.17L92.46,268.91L92.47,258.91L92.48,258.15L93,203.54L93.11,281.24L93.23,256.26L93.24,255.82L93.27,237.55L93.54,291.93L93.99,275.44L94,275.66L94.46,289.79L94.68,224.32L94.75,268.33L94.76,268.5L95.16,262.75L95.49,296.52L95.51,294.43L95.52,294.36L95.59,256.64L96.24,314.76L96.27,298.19L96.28,297.72L96.84,314.78L96.89,253.16L97.03,304.11L97.04,304.45L97.21,284.23L97.65,329.38L97.79,307.52L97.8,307.77L98.4,333.88L98.51,278.14L98.55,287.9L98.56,288.09L98.94,279.51L99.27,333.82L99.31,322.71L99.32,322.5L99.54,290.56L100.02,327.73L100.07,314.62L100.08,314.4L100.24,285.5L100.29,329.74L100.83,303.54L100.84,303.67L101.21,333.51L101.32,290.19L101.59,331.49L101.6,331.31L101.7,338.6L102.02,282.58L102.35,334.21L102.36,334.13L103.05,282.6L103.11,291.23L103.12,291.62L103.53,355.22L103.75,283.13L103.87,300.38L103.88,299.85L103.91,279.44L104.56,334.72L104.63,318.14L104.64,318.3L104.99,288.05L105.37,330.12L105.39,318.28L105.4,317.87L105.48,289.02L105.64,355.36L106.15,325.89L106.16,326.15L106.18,332.55L106.66,300.31L106.91,300.32L106.92,300.1L106.93,295.4L106.99,336.02L107.67,315.18L107.68,315.02L107.96,289.7L108.18,339.82L108.43,313.06L108.44,313.17L109.09,324.5L109.15,297.54L109.19,301.34L109.2,301.41L109.26,335.5L109.85,288.3L109.95,313.46L109.96,313.3L110.23,326.65L110.66,287.89L110.71,320.56L110.72,319.95L110.77,284.54L111.15,348.7L111.47,311.06L111.48,311.29L112.01,272.82L112.12,339.29L112.23,297.97L112.24,297.85L112.71,324.36L112.98,274.2L112.99,277.21L113,277.43L113.36,309.63L113.63,257.23L113.75,283.5L113.76,283.16L114.01,290.54L114.44,229.75L114.51,244.67L114.52,244.83L114.76,266.44L115.2,224.33L115.27,242.23L115.28,242.33L115.3,245.44L115.95,171.61L116.03,193.9L116.04,193.62L116.11,174.11L116.76,225.87L116.79,208.11L116.8,208.01L116.87,220.58L117.41,176.97L117.55,217.55L117.56,217.91L117.57,224.09L117.63,160.64L118.31,185.81L118.32,185.74L118.71,195.93L119.03,154.5L119.07,184.21L119.08,184.81L119.57,151.67L119.73,193.48L119.83,172.71L119.84,172.54L120.27,205.91L120.59,141.06L120.6,140.83L120.65,204.11L121.35,189.83L121.36,189.04L121.41,145.22L121.51,196.97L122.11,175.84L122.12,175.5L122.43,155.5L122.59,201.72L122.87,175.14L122.88,175.27L123.08,194.16L123.35,152.86L123.63,185.04L123.64,184.75L124.21,203.11L124.27,155.03L124.39,184.87L124.4,185.2L124.48,155.44L125.15,212.42L125.16,212.52L125.18,215.82L125.4,174.02L125.91,189.82L125.92,189.86L126.05,213.62L126.37,168.36L126.67,184.54L126.68,184.55L126.71,196.19L126.71,196.78L126.75,220.7L126.91,191.21L127.16,200.69L127.16,200.2L127.24,176.92L127.78,217.54L127.91,194.99L127.92,194.89L128.37,169.1L128.42,221.61L128.67,180.3L128.68,180.34L128.91,225.18L129.43,167.28L129.44,166.95L129.83,160.54L129.94,225.89L130.19,168.38L130.2,168.09L130.21,164.63L130.53,228L130.95,212.89L130.96,213.78L131.12,157.24L131.18,221.77L131.71,210.96L131.72,211.68L132.26,173.32L132.47,225.82L132.48,225.11L133.12,172.54L133.23,188.86L133.24,188.45L133.61,204.08L133.77,158.8L133.99,185.74L134,185.53L134.47,194.82L134.63,142.4L134.75,160.68L134.76,160.77L134.9,182.06L135.51,142.15L135.52,142.09L135.61,138.46L136.2,185.72L136.27,166.95L136.28,167.5L136.96,137.14L137.01,203.35L137.03,188.87L137.04,188.34L137.12,158.21L137.5,203.82L137.79,180.06L137.8,180.1L138.04,193L138.25,140.96L138.55,179.2L138.56,179.38L138.68,205.72L139.28,158.13L139.31,178.17L139.32,178.66L139.44,218.86L139.98,151.71L140.07,182.72L140.08,182.55L140.25,236.16L140.36,169.04L140.83,206.25L140.84,206.87L141.01,172.69L141.28,226.3L141.59,201.14L141.6,201.13L142.25,181.2L142.3,233.31L142.35,215.07L142.36,214.76L142.41,236.97L142.68,180.61L143.11,209.3L143.12,209.56L143.38,242.44L143.76,179.63L143.87,233.31L143.88,232.94L144.03,188.26L144.62,242.39L144.63,238.18L144.64,237.83L144.95,244.36L145.22,193.94L145.39,206.78L145.4,206.49L145.43,194.01L145.7,237.39L146.15,219.02L146.16,218.78L146.57,196.08L146.68,253.24L146.91,230.15L146.92,230.36L147.54,248.37L147.59,188.58L147.67,208.66L147.68,208.7L148.19,245.44L148.4,177.81L148.43,191.25L148.44,191.63L148.73,183.85L148.94,234.81L149.19,212.44L149.2,212.61L149.75,167.11L149.95,216.37L149.96,216.53L149.97,218.74L150.35,167.32L150.71,187.36L150.72,186.99L150.99,195.17L151.32,131.32L151.47,163.35L151.48,163.24L151.64,188.1L151.8,152.16L152.23,166.46L152.24,166.42L152.61,126.44L152.83,177.98L152.99,140.42L153,140.38L153.21,157.4L153.48,99.47L153.75,136.17L153.76,136.09L153.86,149.68L154.13,102.36L154.51,118.96L154.52,118.71L154.61,154.95L154.99,67.98L155.27,117.54L155.28,117.44L155.37,117.7L155.96,77.08L156.03,105.9L156.04,105.66L156.56,74.17L156.61,125.98L156.79,89.3L156.8,89.11L157.15,116.54L157.31,71.12L157.55,91.66L157.56,91.42L157.64,74.54L157.69,117.24L158.31,85.08L158.32,84.37L158.34,66.11L158.99,124.87L159.07,98.88L159.08,98.93L159.15,80.02L159.74,132.91L159.83,106.57L159.84,106.14L160.01,139.66L160.44,95.41L160.59,112.07L160.6,111.91L160.66,85.73L161.2,155.62L161.35,150.63L161.36,151.26L161.47,114.73L162.11,176.27L162.12,176.8L162.12,188.2L162.71,113.78L162.87,139.13L162.88,139.94L162.93,195.84L163.47,139.38L163.63,151.31L163.64,151.35L164.12,145.03L164.33,191.11L164.39,150.4L164.4,150.88L164.49,201.21L164.93,141.68L165.15,168.89L165.16,169.44L165.47,195.56L165.79,164.85L165.91,184.7L165.92,184.6L166.11,170.58L166.49,210.39L166.67,192.82L166.68,193.03L166.76,180.97L166.98,217.39L167.43,203.75L167.44,203.52L167.95,238.42L168.11,192.4L168.19,215.84L168.2,216.04L168.6,187.36L168.71,237.45L168.95,222.48L168.96,222.22L169.52,260.25L169.68,201.14L169.71,219.84L169.72,220.3L170.27,254.56L170.47,247.98L170.48,247.93L170.65,218.42L171.19,279.96L171.23,276.04L171.24,275.96L171.35,276.03L171.46,238.15L171.99,260L172,259.81L172,259.03L172.75,306.64L172.76,307.06L173.35,245.36L173.51,291.87L173.52,291.71L173.94,255.63L174.21,325.42L174.27,308.09L174.28,308.08L174.38,295.59L174.38,295.13L174.43,268.65L174.92,317.4L175.13,292.79L175.14,292.94L175.29,281.54L175.78,321.16L175.89,304.58L175.9,304.41L176.37,317.61L176.64,272.17L176.65,278.82L176.66,279.33L177.18,328.39L177.41,313.35L177.42,313.88L177.45,336.04L177.67,288.44L178.17,307.05L178.18,306.75L178.32,269.52L178.59,335.1L178.93,321.95L178.94,321.75L179.23,323.8L179.56,279.77L179.69,315.81L179.7,315.85L180.15,287.98L180.26,349.55L180.45,326.54L180.46,326.49L180.58,327.49L180.91,292.01L181.21,321.81L181.22,322.19L181.66,348.17L181.93,294.21L181.97,312.69L181.98,313.11L182.37,329.5L182.69,272.48L182.73,316.64L182.74,317.54L182.85,281.96L182.96,347.44L183.49,322.07L183.5,321.98L183.93,343.24L184.09,271.51L184.25,294.28L184.26,294.14L184.69,349.33L185.01,336.49L185.02,335.98L185.23,338.82L185.28,295.02L185.77,319.23L185.78,318.6L185.82,286.13L186.04,352.48L186.53,333.62L186.54,333.27L186.9,266.63L187.29,303.44L187.3,303.75L187.6,270.77L187.87,336.84L188.05,313.24L188.06,313.13L188.31,278.84L188.41,324.01L188.81,299.61L188.82,299.59L188.95,292.93L189.33,324.61L189.57,322.18L189.58,322.56L189.6,334.05L189.82,283.25L190.33,293.84L190.34,293.96L190.63,262.74L190.9,323.84L191.09,273.09L191.1,273.16L191.33,282.11L191.6,238.65L191.85,273.21L191.86,273.49L192.09,287.62L192.46,210.29L192.61,260.16L192.62,260.12L192.9,286.07L193,205.11L193.37,219.15L193.38,219.12L193.65,241.9L194.08,196.2L194.13,209.31L194.14,209.54L194.3,229.39L194.52,174.01L194.89,180.08L194.9,179.93L195,217.98L195.33,162.49L195.65,180.06L195.66,180.05L195.76,181.27L195.77,178.82L195.77,178.66L195.87,213.07L196.24,159.47L196.52,182.2L196.53,182.31L196.89,190.33L197.16,164.52L197.28,168.49L197.29,168.71L197.76,154.07L197.81,202.14L198.04,167.92L198.05,168.18L198.35,156.87L198.51,202.38L198.8,168.3L198.81,168L199.32,139.62L199.43,194.52L199.56,188.09L199.57,188.66L199.75,145.66L199.81,206.33L200.32,183.25L200.33,183.01L200.4,186.39L200.51,162.35L201.08,179.16L201.09,179.15L201.32,145.45L201.75,199.2L201.84,184.21L201.85,184.52L202.02,144.83L202.24,208.02L202.6,176.86L202.61,176.85L202.89,213.27L202.99,166.58L203.38,189.95L203.39,190.06L203.59,213.41L204.02,177.56L204.14,195.54L204.15,195.27L204.56,183.47L204.72,238.49L204.9,197.76L204.91,197.83L205.42,216.84L205.48,178.54L205.66,194.31L205.67,194.82L205.91,177.94L206.23,222.98L206.42,199.44L206.43,200.02L206.56,172.58L206.72,240.82L207.18,179.93L207.19,179.82L207.37,217.9L207.91,170.31L207.94,184.18L207.95,184.51L208.07,214.52L208.5,176.38L208.7,182.65L208.71,182.41L208.82,169.19L209.36,205.13L209.46,185.25L209.47,184.88L209.85,222.84L209.9,154.99L210.22,194.57L210.23,194.91L210.61,216.96L210.82,166.08L210.98,172.72L210.99,172.67L211.15,153.63L211.2,204.42L211.74,188.04L211.75,187.87L212.01,214.69L212.39,142.08L212.5,184.42L212.51,184.25L212.6,208.55L212.98,148.9L213.26,173.82L213.27,173.97L213.36,201.65L213.85,144.38L214.02,163.47L214.03,164.05L214.28,152.49L214.66,199.83L214.78,173.36L214.79,173.45L215.47,144.46L215.52,194.99L215.54,182.58L215.55,182.12L215.74,160.63L215.9,207.61L216.3,198.71L216.31,198.72L216.33,198.92L216.36,188.42L216.36,188.07L216.49,165.64L216.6,223.3L217.11,205.67L217.12,205.76L217.79,230.04L217.87,169.17L217.88,168.86L217.9,161.78L217.95,216.22L218.63,199.49L218.64,199.73L218.81,181.61L219.19,234.75L219.39,215.77L219.4,216.22L219.41,222.39L220,178.61L220.15,202.47L220.16,202.37L220.27,225.25L220.65,186.7L220.91,217.7L220.92,217.6L221.19,187.13L221.41,236.01L221.67,213.23L221.68,213.16L222,236.04L222.11,199.39L222.43,216.94L222.44,217.19L222.86,234.15L223.19,200.9L223.19,202.75L223.2,203.02L223.4,198.63L223.51,237.66L223.95,220.06L223.96,220.19L224.11,199.74L224.65,242.75L224.71,201.2L224.72,201.23L225.35,228.33L225.4,198.55L225.47,217.4L225.48,217.66L225.78,254.36L226.16,190.09L226.23,206.42L226.24,206.64L226.54,239.98L226.59,174.87L226.99,194.09L227,193.66L227.56,219.73L227.75,180.53L227.76,180.1L227.94,168.14L228.37,199.62L228.51,195.49L228.52,195.63L228.53,198.24L229.07,152.98L229.27,187.14L229.28,187.48L229.34,193.99L229.88,136.05L230.03,160.1L230.04,159.78L230.42,162.69L230.69,124.56L230.79,146.51L230.8,146.53L231.02,99.47L231.13,156.39L231.55,126.37L231.56,126.55L231.72,140.5L232.04,93.13L232.31,120.53L232.32,120.33L232.53,139L232.91,81.47L233.07,86.01L233.08,86.36L233.39,64.95L233.56,116.85L233.83,105.31L233.84,104.93L233.93,72.76L234.26,116.89L234.59,95.98L234.6,95.81L234.85,71.85L235.23,109.27L235.35,95.88L235.36,95.73L235.45,124.94L235.66,69.39L236.11,91.81L236.12,91.8L236.15,91.32L236.16,101.87L236.16,102.49L236.2,128.54L236.9,76.12L236.91,86L236.92,86.76L237.23,81.26L237.6,158.7L237.67,120.31L237.68,120.35L237.98,94.24L238.41,158.37L238.43,152.74L238.44,152.48L238.52,102.5L239.06,162.48L239.19,150.99L239.2,151.17L239.71,169.04L239.93,104.83L239.95,129.49L239.96,130.29L240.14,112.19L240.2,187.69L240.71,162.13L240.72,162.38L240.9,180.96L241.11,147.25L241.47,175.51L241.48,175.77L241.49,188.06L241.6,142.01L242.23,171.57L242.24,171.34L242.73,219.65L242.79,148.08L242.99,165.45L243,165.14L243.22,213.85L243.33,153.57L243.75,200.57L243.76,200.81L244.08,218.76L244.41,171.65L244.51,195.1L244.52,195.19L244.59,191.52L244.59,191.32L244.68,176.12L244.84,233.81L245.34,196.53L245.35,196.78L245.54,179.46L245.7,233.91L246.1,211.82L246.11,211.84L246.19,186.55L246.78,253.59L246.86,220.61L246.87,220.87L246.95,193.79L247.16,257.16L247.62,234.95L247.63,235.17L247.81,219.59L248.13,278.75L248.38,246.72L248.39,247.3L248.57,277.05L248.78,240.27L249.14,248.28L249.15,248.13L249.48,233.43L249.65,294.79L249.9,278.06L249.91,278.01L250.13,294.38L250.19,236.49L250.66,273.36L250.67,273.45L250.73,321.54L251.05,248.09L251.42,302.84L251.43,302.77L251.64,257L252.18,314.28L252.18,313.95L252.19,313.62L252.78,257.35L252.83,315L252.94,285.34L252.95,285.45L253.05,332.51L253.7,278.75L253.7,284.71L253.71,285.31L254.02,321.66L254.18,281.26L254.46,312.98L254.47,312.69L254.78,278.37L255.21,323.51L255.22,317.2L255.23,316.87L255.42,296.38L255.8,335L255.98,307.41L255.99,307.35L256.23,339.74L256.34,280.74L256.74,307.77L256.75,307.78L256.8,303.57L256.8,303.44L257.04,311.33L257.09,290.93L257.09,290.51L257.1,286.35L257.75,347.77L257.84,316.93L257.85,316.96L258.34,335.14L258.5,273.67L258.6,308.56L258.61,308.7L258.93,278.51L259.31,332.87L259.36,299.76L259.37,299.2L259.47,343.74L260.01,280.84L260.12,330.24L260.13,329.95L260.34,286.07L260.61,337.72L260.88,333.21L260.89,333.28L260.93,337.12L261.63,296.54L261.64,298.9L261.65,299.08L262.17,286.09L262.34,319.27L262.4,310.92L262.41,310.69L262.5,345.27L262.88,295.46L263.16,321.16L263.17,321.47L263.2,332.64L263.85,282.04L263.92,305.81L263.93,305.94L264.33,286.24L264.39,324.72L264.68,315.79L264.69,316.27L264.98,287.86L265.36,331.91L265.44,317.16L265.45,316.86L265.84,332.8L266.2,286.73L266.21,286.69L266.22,285.9L266.38,321.62L266.96,302.52L266.97,302.57L267.25,329.28L267.57,282.34L267.72,316.94L267.73,317.43L267.73,322.27L268.22,278.64L268.48,305.01L268.49,305.1L268.87,308.35L268.98,256.95L269.24,274.9L269.25,274.59L269.84,291.84L270,232.46L270,233.03L270.01,233.31L270.6,262.09L270.65,198.84L270.76,222.25L270.77,222.16L271.14,244.34L271.51,188.76L271.52,193.53L271.53,193.96L271.89,227.85L272,189.95L272.28,201.42L272.29,201.65L272.86,174.16L272.97,225.94L273.04,194.01L273.05,193.99L273.78,166.24L273.8,168.84L273.81,168.95L273.89,159.34L274.21,195.13L274.56,168.45L274.57,168.25L274.65,198.47L275.19,149.28L275.32,165.17L275.33,165.07L275.83,136.96L276,208.15L276.08,177.97L276.09,178.36L276.7,132.77L276.75,204.93L276.84,161.75L276.85,162.07L276.97,142.76L277.24,188.25L277.6,162.02L277.61,162.38L277.72,153.25L277.83,200.72L278.36,161.51L278.37,161.47L278.37,161.2L278.97,207.1L279.12,185.27L279.13,185.4L279.51,205.59L279.78,157.68L279.88,201.51L279.89,201.3L280.21,166.72L280.42,224.75L280.64,174.37L280.65,174.82L281.02,162.67L281.18,222.75L281.4,189.84L281.41,189.99L281.56,166.77L281.94,219.62L282.16,196.56L282.17,196.56L282.21,196.4L282.22,200.05L282.22,200.31L282.37,177.67L282.91,213.79L282.97,184.03L282.98,184.2L283.45,222.67L283.66,181.08L283.73,209.81L283.74,210.38L283.77,233.21L284.04,175.97L284.49,198.26L284.5,197.98L285.18,230.23L285.23,165.45L285.25,187.51L285.26,188.3L285.61,233.27L285.99,161.46L286.01,204.36L286.02,205.7L286.04,240.59L286.47,154.31L286.77,178.99L286.78,179.05L287.39,229.61L287.53,196.05L287.54,195.71L288.2,168.15L288.29,186.75L288.3,186.77L288.47,201.41L288.63,165.04L289.05,184.54L289.06,184.63L289.44,157.17L289.6,210.09L289.81,181.16L289.82,180.73L290.09,210.56L290.52,143.12L290.57,204.99L290.58,206.04L290.63,145.63L291.33,182.28L291.34,182.19L291.82,142.8L292.09,206.19L292.09,202.1L292.1,201.59L292.74,205.86L292.84,149.69L292.85,153.51L292.86,153.81L293.44,217.82L293.61,202.71L293.62,202.6L293.81,150.5L294.37,188.88L294.38,188.92L294.73,206.19L295,164.36L295.13,200.05L295.14,199.98L295.22,163.47L295.7,206.98L295.89,201.39L295.9,201.98L295.92,218.32L296.03,177.98L296.65,200.59L296.66,200.74L296.95,220.09L297.05,191.26L297.41,212.98L297.42,212.88L297.54,231.68L297.76,177.75L298.17,216.35L298.18,216.28L298.3,242.17L298.57,191.94L298.93,205.38L298.94,204.95L299.43,179.98L299.69,230.46L299.7,231.04L300.24,191.15L300.35,246.38L300.45,211.89L300.46,211.74L300.89,243.7L301.05,195.04L301.21,214.08L301.22,214.47L301.43,242.88L301.97,196.08L301.97,201.65L301.98,202.45L302.02,243.85L302.73,213.51L302.74,213.65L302.94,189.5L303.37,237.51L303.49,230.52L303.5,230.88L303.53,246.28L303.91,185.33L304.25,208.9L304.26,208.74L304.61,193.28L304.72,235.98L305.01,210.81L305.02,210.5L305.1,215.61L305.53,168.9L305.77,190.73L305.78,190.66L306.02,224.23L306.45,169.95L306.53,176.77L306.54,176.61L306.61,189.57L307.29,155.11L307.3,155.09L307.85,200.46L308.02,120.35L308.05,139.96L308.06,140.42L308.34,183.42L308.81,120.95L308.82,120.36L308.88,103.83L309.37,152.45L309.57,120.41L309.58,120.36L309.74,143.91L310.12,86.96L310.33,106.08L310.34,105.99L310.82,124.54L310.88,88.81L311.09,101.33L311.1,102.1L311.15,145.75L311.42,75.09L311.85,103.05L311.86,103.17L311.96,64.04L312.5,112.78L312.61,74.17L312.62,74.37L313.09,116.55L313.37,87.52L313.38,87.56L313.47,80.01L313.9,114.73L314.13,96.2L314.14,96.47L314.6,133.85L314.71,67.21L314.89,109.57L314.9,109.32L315.14,80.9L315.65,138.3L315.66,138.41L315.95,96.06L316.22,149.89L316.41,126.6L316.42,126.83L316.49,93.82L316.87,171.59L317.17,158.44L317.18,158.53L317.36,166.81L317.9,122.03L317.93,132.67L317.94,132.93L318.06,117.38L318.44,179.63L318.69,160.04L318.7,159.91L318.76,131.3L319.25,197.33L319.45,165.07L319.46,165.47L319.52,155.47L320,188.17L320.21,170.18L320.22,169.98L320.81,153.81L320.92,209.12L320.97,174.88L320.98,174.3L321.25,219.53L321.51,173.49L321.73,173.84L321.74,173.92L322.49,235L322.49,231.31L322.5,230.85L322.92,183.59L323.03,234.9L323.25,197.39L323.26,197.62L323.46,191.25L323.84,238.47L324.01,225.59L324.02,225.36L324.32,248.79L324.48,198.51L324.77,218.63L324.78,219.07L324.97,215.55L325.4,263.97L325.53,249.17L325.54,249.16L325.6,233.92L325.6,233.47L325.67,204.66L325.94,266.53L326.35,258.59L326.36,258.96L326.81,224.93L326.97,288.54L327.11,273L327.12,273.15L327.18,235.89L327.87,302.24L327.88,302.68L327.89,307.87L328.05,243.22L328.63,293.29L328.64,293.12L328.7,246.73L328.86,302.64L329.39,286.44L329.4,286.3L329.51,277.15L330.1,325.08L330.15,280.92L330.16,281.35L330.53,263.89L330.59,334.56L330.91,306.34L330.92,306.43L331.23,280.21L331.67,323.06L331.67,322.06L331.68,321.95L331.99,335.18L332.31,281.72L332.43,295.8L332.44,296.24L332.85,331.99L333.07,287.97L333.19,307.91L333.2,308L333.72,283.64L333.93,328.81L333.95,319.32L333.96,318.9L334.47,293.48L334.64,342.77L334.71,313.47L334.72,313.46L334.74,313.07L334.77,323.85L334.77,324.25L335.01,283.32L335.07,340.77L335.52,312.74L335.53,312.81L335.72,285.38L336.15,343.87L336.28,314.73L336.29,314.41L336.47,335.8L336.63,279.91L337.04,323.95L337.05,324.26L337.28,289.29L337.61,347.33L337.8,303.98L337.81,304.2L338.36,333.01L338.42,304.11L338.56,316.09L338.57,316.22L338.85,338.91L339.06,277.89L339.32,308.74L339.33,308.44L339.44,336.12L339.77,288.31L340.08,313.73L340.09,313.64L340.68,331.04L340.74,285.76L340.84,307.61L340.85,307.41L341.49,288.83L341.6,334.63L341.6,332.66L341.61,332.01L341.82,332.34L342.2,289.42L342.36,300.34L342.37,301.07L342.63,280.46L343.01,346.48L343.12,289.26L343.13,289.84L343.44,285.82L343.49,333.84L343.88,307.7L343.89,307.92L344.09,292.05L344.57,328.69L344.64,299.02L344.65,298.98L344.9,281.92L345.16,350.78L345.4,297.05L345.41,297.07L345.6,323.05L346.08,237.59L346.16,266.05L346.17,266.06L346.23,273.79L346.24,273.95L346.79,257.13L346.89,301.63L346.99,275.27L347,275.13L347.06,285.82L347.75,229.39L347.76,228.62L347.92,219.56L347.97,275.13L348.51,222.3L348.52,222.89L348.89,260.44L349.22,186.87L349.27,200.03L349.28,200.52L349.32,226.28L349.59,181.05L350.03,198.67L350.04,198.25L350.51,171.68L350.79,189.45L350.8,189.52L350.94,165L351.1,214.53L351.55,180.91L351.56,180.73L351.86,148.59L351.91,203.58L352.31,180.56L352.32,180.37L352.45,202.07L352.83,146.51L353.07,174.05L353.08,174.31L353.16,139.73L353.43,191.89L353.83,165.26L353.84,164.81L354.29,188.59L354.45,149.07L354.59,170.57L354.6,170.86L354.83,189.04L355.32,143.47L355.35,169.32L355.36,169.93L355.69,190.1L355.8,140.42L356.11,177.26L356.12,177.44L356.5,209.18L356.67,147.25L356.87,194.02L356.88,194.24L356.94,221.01L357.15,155.76L357.63,184.6L357.64,184.92L358.02,208.13L358.23,156.12L358.39,201.02L358.4,201.01L359.04,233.43L359.15,170.38L359.15,171.96L359.16,172.28L359.47,156.52L359.91,226.06L359.91,221.13L359.92,220.58L360.23,226.52L360.5,181.53L360.67,185.92L360.68,186.01L360.82,184.2L361.31,219.27L361.43,210.48L361.44,210.44L361.58,218.49L362.01,189.7L362.19,210.81L362.2,211.11L362.71,235.95L362.82,179.71L362.95,216.51L362.96,216.87L363.09,187.25L363.25,236.16L363.71,189.04L363.72,189.04L363.77,198.96L363.77,199.25L363.9,234.27L364.23,176.02L364.52,190.84L364.53,190.57L365.09,177.41L365.25,244.17L365.28,198.08L365.29,196.8L365.31,167.35L365.41,215.74L366.04,189.48L366.05,189.52L366.39,158.77L366.55,228.76L366.8,179.98L366.81,180.03L367.25,161.87L367.47,216.51L367.56,210.85L367.57,211.34L367.57,215.76L368.01,159.88L368.32,179.2L368.33,178.95L368.71,190.39L368.82,125.29L369.08,148.44L369.09,148.38L369.14,184.52L369.79,136.61L369.84,148.9L369.85,149.59L369.95,135.94L370.49,193.29L370.6,178.42L370.61,178.58L371.08,142.19L371.35,203.1L371.36,193.26L371.37,192.44L371.52,150.46L371.89,214.45L372.12,193.22L372.13,192.73L372.49,211.32L372.6,157.01L372.88,195.94L372.89,195.72L373.46,172.5L373.51,213.62L373.64,191.61L373.65,191.44L374.11,174.8L374.27,204.72L374.4,199.1L374.41,199.34L374.65,229.22L374.7,184.96L375.16,223.71L375.17,224.08L375.46,234.74L375.62,190.16L375.92,205.02L375.93,204.98L376.11,230.03L376.43,192.3L376.68,220.26L376.69,220.88L377.08,245.6L377.24,179.5L377.44,206.08L377.45,205.81L377.73,185.45L377.94,242.52L378.2,198.1L378.21,197.49L378.21,193.83L378.7,242.74L378.96,233.52L378.97,233.66L379.34,192.68L379.72,258.79L379.72,256.93L379.73,256.01L380.21,202.37L380.48,211.85L380.49,212.22L380.64,238.02L380.8,193.24L381.24,215.45L381.25,215.63L381.34,230.54L381.99,185.77L382,193.9L382.01,194.44L382.58,170.95L382.69,222.81L382.76,210.82L382.77,210.49L383.02,173.81L383.34,216.86L383.52,176.14L383.53,175.92L383.77,213.84L384.04,154.36L384.28,165.03L384.29,164.72L384.8,197.97L384.85,145.96L385.04,171.08L385.05,170.82L385.28,126.39L385.5,194.15L385.8,147.53L385.81,147.39L386.2,164.36L386.26,122.04L386.56,138.26L386.57,138.3L387.01,149.48L387.28,104.57L387.32,113.86L387.33,114.06L387.82,142.32L387.98,84.06L388.08,115.14L388.09,114.94L388.79,140.43L388.84,85.71L388.85,84.73L388.9,116.43L389.17,73.2L389.6,88.86L389.61,89.23L389.93,120.49L390.36,71.68L390.36,75.15L390.37,75.85L390.58,63.9L391.06,118.79L391.12,89.76L391.13,89.2L391.17,61.38L391.39,105.64L391.88,101.7L391.89,102.33L392.03,131L392.47,68.37L392.64,91.39L392.65,91.54L392.74,138.46L393.01,89.07L393.4,122.48L393.41,122.15L393.49,108.11L393.98,150.8L394.16,133.14L394.17,133.67L394.25,103.51L394.79,158.99L394.92,149.97L394.93,149.86L395.11,127.98L395.38,175.04L395.68,149.5L395.69,149.73L395.76,176.24L395.98,131.85L396.44,151.77L396.45,151.88L396.95,135.82L397,180.68L397.2,164.51L397.21,164.33L397.38,184.61L397.43,138.23L397.96,168.2L397.97,168.38L398.19,153.28L398.51,204.67L398.72,178.7L398.73,179.09L399.27,159.99L399.43,229.28L399.48,208.2L399.49,207.84L399.65,210.85L400.13,167.63L400.24,201.37L400.25,201.42L400.4,233.32L400.84,177.87L401,219.78L401.01,219.87L401.11,200.3L401.48,236.04L401.76,226.61L401.77,226.47L402.46,240.85L402.51,211.83L402.52,220.35L402.53,220.85L402.78,201.94L402.89,256.73L403.28,217.99L403.29,218.34L403.37,204.42L403.75,278.47L404.04,248.98L404.05,249.07L404.51,282.96L404.62,203.44L404.8,266.58L404.81,266.53L405.16,298.25L405.26,243.08L405.56,272.36L405.57,272.26L405.64,249.95L405.75,286.91L406.32,260.5L406.33,260.62L406.72,309.2L406.99,251.88L407.08,254.56L407.09,254.3L407.53,289.97L407.58,246.42L407.84,268.86L407.85,269.1L408.12,259.29L408.5,324.58L408.6,288.26L408.61,287.72L408.77,255.32L409.36,306.6L409.37,306.92L409.42,319.19L409.53,266.73L410.12,269.33L410.13,269.61L410.45,322.19L410.88,291.72L410.89,291.9L411.15,325.2L411.36,276.93L411.64,301.88L411.65,301.89L411.69,302.17L411.71,296.72L411.71,296.51L412.12,313.23L412.28,279.53L412.46,306.58L412.47,306.71L412.98,328.92L413.04,281.82L413.22,317L413.23,317.11L413.74,325.13L413.85,286.21L413.98,305.51L413.99,305.41L414.5,292.35L414.71,335.63L414.74,322.1L414.75,321.73L415.04,336.99L415.36,272.87L415.5,292L415.51,291.67L415.52,285.24L415.79,359.53L416.26,310.73L416.27,310.96L416.39,321.62L416.55,269.14L417.02,312.15L417.03,312.09L417.63,336.69L417.68,275.79L417.78,301.85L417.79,301.68L417.84,297.57L418.38,331.61L418.54,320.33L418.55,320.5L418.92,294.47L419.09,337.37L419.3,313.01L419.31,313.32L419.52,333.94L419.63,298.42L420.06,306.76L420.07,306.79L420.17,334.76L420.76,289.54L420.82,295.9L420.83,296.33L421.3,329.89L421.52,284.55L421.58,310.04L421.59,310.23L421.79,285.71L422.27,325.22L422.34,298.62L422.35,298.37L422.54,326.96L422.97,272.22L423.1,302.12L423.11,302.63L423.24,288.18L423.73,333.77L423.86,309.22L423.87,309.69L424.32,327.95L424.59,288.03L424.62,301.6L424.63,301.99L424.86,329.47L424.92,279.75L425.38,292.66L425.39,292.24L425.84,275.26L426,320.43L426.14,302.96L426.15,303.25L426.16,307.63L426.65,268.29L426.9,297.11L426.91,297.18L426.97,326.19L427.4,258.19L427.66,281.37L427.67,281.43L428.21,289.9L428.37,250.42L428.42,275.85L428.43,276.3L428.59,222.42L428.64,283.6L429.18,267.6L429.19,267.83L429.24,281.16L429.83,207.72L429.94,246.42L429.95,246.06L430.1,256.76L430.64,207.84L430.7,221.5L430.71,221.3L430.86,245.09L431.24,194.74L431.46,199.66L431.47,199.5L431.83,221.97L432.05,179.29L432.22,205.22L432.23,205.01L432.37,233.91L432.91,172.43L432.98,199.83L432.99,199.76L433.34,222.18L433.45,145.26L433.74,175.64L433.75,175.6L434.1,183.58L434.26,152.08L434.5,161.61L434.51,161.63L434.58,190.99L434.69,154.32L435.26,166.85L435.27,166.46L435.55,141.5L435.88,184.17L436.02,161.08L436.03,160.72L436.15,185.86L436.47,122.09L436.78,152.97L436.79,152.94L437.34,180.27L437.44,138.15L437.54,159.66L437.55,160.01L437.66,180.13L438.09,126.56L438.3,155.04L438.31,155.36L438.79,182.33L438.96,124.31L439.06,159.43L439.07,159.68L439.5,184.24L439.66,137.66L439.82,161.49L439.83,161.21L439.98,119.45L440.58,177.21L440.58,171.27L440.59,170.61L441.06,122.85L441.34,133.54L441.35,133.44L441.87,118.63L441.93,187.52L442.1,161.64L442.11,161.62L442.2,178.74L442.63,102.04L442.86,134.72L442.87,134.95L443.17,100.49L443.44,159.49L443.62,122.76L443.63,123.29L443.82,146.96L444.38,116.66L444.39,116.32L444.63,144.74L444.73,105.9L445.14,137.74L445.15,137.68L445.44,145.23L445.6,109.36L445.9,116.02L445.91,115.79L446.03,162.8L446.08,104.69L446.66,107.06L446.67,106.63L446.68,100.52L447,138.86L447.42,125.09L447.43,125.39L447.76,147.32L448.14,77.65L448.18,109.64L448.19,110.24L448.24,97.69L448.84,153.49L448.94,127.89L448.95,127.79L449.38,151.68L449.49,99.57L449.7,134.87L449.71,134.97L450.03,155.64L450.24,121.57L450.46,140.35L450.47,140.33L450.84,158.72L451.21,111.27L451.22,116.86L451.23,117.33L451.7,101.2L451.92,169.88L451.98,143.84L451.99,143.92L452.08,164.46L452.4,117.97L452.74,142.55L452.75,142.44L452.89,161.49L453.1,134.61L453.5,150.56L453.51,150.81L454.02,123.95L454.24,179.86L454.26,164.95L454.27,164.45L454.56,137.44L454.72,181.06L455.02,150.89L455.03,150.74L455.32,133.19L455.53,177.26L455.78,156.01L455.79,155.59L455.97,118.8L456.18,183.83L456.54,149.4L456.55,148.93L457.15,192.22L457.21,137.35L457.3,153.98L457.31,154.25L457.42,138.67L457.64,191.66L458.06,179.47L458.07,179.71L458.23,189.35L458.4,132.48L458.82,162.12L458.83,162.24L458.94,181.61L459.58,137.57L459.58,137.74L459.59,137.91L459.85,179.35L460.18,113.38L460.34,118.03L460.35,118.4L460.99,161.36L461.04,106.45L461.1,123.92L461.11,123.66L461.31,79.13L461.37,140.76L461.86,91.83L461.87,91.69L462.5,125.68L462.61,70.89L462.62,75.79L462.63,76.05L462.99,54.91L463.09,111.44L463.38,77.74L463.39,77.61L463.85,88.32L463.96,26.08L464.14,76.81L464.15,76.59L464.6,37.6L464.87,78.08L464.9,74.49L464.91,74.38L465.04,31.75L465.31,78.05L465.66,51.21L465.67,51.18L465.9,80.13L466.22,10.47L466.42,49.6L466.43,49.33L466.66,88.28L466.82,20.98L467.18,68.2L467.19,68.94L467.63,80.11L467.79,40.14L467.94,66.58L467.95,66.69L468.44,81.41L468.55,35.37L468.7,73.99L468.71,74.59L469.3,39.11L469.41,111.8L469.46,67.36L469.47,67.87L469.79,56.91L470.06,118.03L470.22,79.37L470.23,79.25L470.44,59.72L470.71,119.11L470.98,96.69L470.99,97.23L471.35,69.6L471.57,153.13L471.74,138.82L471.75,137.95L471.79,98.24L472.38,152.36L472.5,150.02L472.51,150.06L472.7,176.6L472.97,115.57L473.26,145.36L473.27,145.48L473.46,135.83L473.57,191.77L474.02,166.16L474.03,166.54L474.38,199.99L474.7,144.54L474.78,167.38L474.79,166.82L475.19,208.27L475.51,150.9L475.54,159.05L475.55,159.27L476.21,199.59L476.27,153.11L476.3,153.89L476.31,153.91L476.75,220.32L476.86,140.8L477.06,168.77L477.07,168.72L477.67,206.54L477.78,155.98L477.82,195.17L477.83,195.96L478.37,170.83L478.54,216.94L478.58,195.79L478.59,195.4L478.81,173.73L479.13,218.51L479.34,184.02L479.35,183.94L479.56,175.18L479.89,226.79L480.1,195.76L480.11,196.08L480.42,191.57L480.86,232.95L480.86,229.26L480.87,228.79L480.97,182.7L481.24,247.61L481.62,220.48L481.63,220.54L481.99,197.97L482.1,245.39L482.38,220.99L482.39,221.54L482.75,217.75L483.14,260.7L483.15,260.91L483.18,269L483.5,197.29L483.9,253.39L483.91,252.88L484.21,265.49L484.53,227.14L484.66,247.17L484.67,247.12L485.28,221.79L485.39,274.01L485.42,270.69L485.43,270.6L485.5,289.91L485.66,250.41L486.18,264.25L486.19,264.44L486.42,253.21L486.8,300.62L486.94,278.72L486.95,278.88L487.34,310.79L487.39,254.77L487.7,277.49L487.71,277.5L488.15,308.55L488.45,271.39L488.46,271.3L488.47,269.67L489.07,330.55L489.21,279.68L489.22,279.22L489.23,273.29L489.55,321.6L489.97,301.94L489.98,301.95L490.09,274.39L490.69,340.01L490.73,289.34L490.74,288.42L491.12,320.61L491.28,283.14L491.49,286.06L491.5,285.76L491.82,331.65L492.25,287.02L492.26,287.28L492.9,337.47L493.01,312.74L493.02,312.83L493.33,337.82L493.49,290.41L493.77,302.34L493.78,302.32L494.14,277.1L494.46,332.45L494.53,312.04L494.54,312.15L494.68,284.8L495.11,330.37L495.29,315.25L495.3,315.6L495.33,328.65L495.76,268.62L496.05,309.97L496.06,309.64L496.52,341.72L496.62,283.76L496.81,320.79L496.82,320.51L497,268.39L497.38,337.84L497.57,326.56L497.58,327.14L497.6,340.37L498.3,272.84L498.33,301.66L498.34,302.38L499,286.19L499.05,337.47L499.09,310.27L499.1,309.66L499.11,301.2L499.22,337.33L499.85,306.73L499.86,306.71L500.13,341.52L500.51,291.92L500.61,313.48L500.62,313.06L500.94,340.17L501.11,287.38L501.37,302.7L501.38,302.76L501.81,288L501.97,330.84L502.13,301.78L502.14,302.16L502.67,342.81L502.78,284.83L502.89,300.5L502.9,300.68L503.43,265.96L503.65,333.42L503.66,333.51L503.7,337.46L504.29,281.52L504.41,310.2L504.42,309.92L504.83,329.4L504.99,290.83L505.17,313.97L505.18,314.26L505.43,333.32L505.64,277.64L505.93,303.22L505.94,303.3L506.18,328.71L506.24,261.51L506.69,291.86L506.7,291.77L506.88,324.22L507.26,279.9L507.45,292.5L507.46,292.57L507.64,307.45L507.75,272.43L508.21,299.25L508.22,299.47L508.23,303.89L508.83,248.37L508.97,258.82L508.98,258.74L509.15,290.26L509.69,223.36L509.73,254.56L509.74,255.21L509.96,276.46L510.39,216.87L510.49,252.75L510.5,253.1L510.5,255.54L511.2,172.3L511.25,209.79L511.26,210.44L511.42,228.09L512.01,191.74L512.01,191.76L512.02,191.79L512.12,169.73L512.23,219.9L512.77,193.58L512.78,193.28L513.15,145L513.53,184.26L513.54,183.53L514.12,146.67L514.29,153.79L514.3,154.07L514.39,174.94L514.66,122.34L515.05,141.19L515.06,141.4L515.58,123.62L515.79,159.28L515.81,144.35L515.82,143.73L516.23,154.56L516.39,85.21L516.57,117.91L516.58,118.18L516.87,145.52L517.04,94.23L517.33,111.87L517.34,112L517.47,133.83L518.06,67.77L518.09,78.24L518.1,78.53L518.17,56.43L518.28,116.77L518.85,98.84L518.86,98.55L519.25,103.87L519.3,56.69L519.61,60.72L519.62,60.68L520.11,106.15L520.33,42.53L520.37,63.32L520.38,63.73L520.49,80.4L520.81,39.14L521.13,70.82L521.14,70.85L521.19,44.99L521.25,96.16L521.89,68.23L521.9,67.88L522.11,42.72L522.22,94.22L522.65,74.07L522.66,73.65L523.08,29.52L523.24,82.49L523.41,60.59L523.42,60.55L523.95,37.51L524.16,91.43L524.17,82.94L524.18,82.29L524.22,52.26L524.43,109.58L524.93,69.31L524.94,69.78L525.4,50.05L525.46,112.34L525.69,86.29L525.7,85.75L525.73,65.87L525.78,129.34L526.45,94.58L526.46,94.45L526.48,90.21L526.92,135.81L527.21,122.36L527.22,122.95L527.4,97.9L527.83,153.27L527.97,139.75L527.98,139.99L528.27,137.09L528.37,185.09L528.73,170.43L528.74,170.96L528.91,128.86L529.24,197.32L529.49,177.34L529.5,177.79L529.67,144.24L529.99,213.44L530.25,194.15L530.26,194.64L530.75,155.77L530.91,232.88L531.01,198.17L531.02,198.43L531.29,157.98L531.4,216.89L531.77,171.56L531.78,171.29L531.78,171.03L532.26,216.6L532.53,200.39L532.54,200.47L532.64,165.59L533.07,232.12L533.29,225.77L533.3,225.22L533.45,189.1L533.77,229.96L534.05,195.56L534.06,195.17L534.1,176.55L534.31,222.37L534.81,211.44L534.82,211.53L534.91,180.87L535.18,241.66L535.57,222.69L535.58,223.06L535.61,237.3L536.15,176.75L536.33,225.58L536.34,225.34L536.64,183.14L536.74,234.6L537.09,212.31L537.1,211.87L537.28,242.22L537.34,188.34L537.85,211.51L537.86,211.99L538.31,238.2L538.53,177.6L538.61,210.93L538.62,211.11L538.63,214.66L538.74,158.09L539.37,187.78L539.38,187.64L539.44,213.73L539.88,158.18L540.13,175.15L540.14,174.65L540.2,186.75L540.85,134.75L540.89,172.14L540.9,172.86L541.06,196.15L541.33,131.57L541.65,154.59L541.66,154.59L541.71,170.79L542.36,124.56L542.41,165.68L542.42,165.38L542.74,170.82L542.9,106.24L543.17,138.94L543.18,139.03L543.44,148.28L543.76,114.53L543.93,130.18L543.94,130.42L544.03,151.02L544.63,101.55L544.69,121.51L544.7,121.39L545.28,145.43L545.38,82.37L545.45,107.39L545.46,107.2L545.6,131.37L545.98,78.1L546.21,97.98L546.22,97.68L546.3,74.67L546.84,129.6L546.97,96.51L546.98,97.13L547.33,81.64L547.44,127.33L547.73,96.96L547.74,96.29L547.76,78.81L547.87,143.59L548.49,116.75L548.5,116.37L548.52,108.04L549.22,146.89L549.25,117.99L549.26,117.3L549.59,161.89L549.76,98.52L550.01,146.54L550.02,146.49L550.62,195.75L550.67,133.5L550.77,138.15L550.78,137.9L550.78,135.87L550.89,192.7L551.53,152L551.54,151.89L551.65,137.33L551.97,189.94L552.29,167.76L552.3,167.7L552.46,151.17L552.67,192.65L553.05,170.13L553.06,170.13L553.14,166.29L553.14,166.17L553.37,205.65L553.7,154.08L553.89,166.46L553.9,166.36L554.02,160.55L554.62,221.45L554.65,200.81L554.66,200.32L555.05,154.62L555.1,210.59L555.41,184.62L555.42,184.88L555.75,162.18L556.17,224.62L556.18,224.73L556.83,230.36L556.93,202.93L556.94,202.82L557.53,247.97L557.59,198.93L557.69,220.39L557.7,220.6L558.18,202.56L558.29,260.53L558.45,244.06L558.46,244.21L558.99,230.45L559.21,276.33L559.21,272.66L559.22,272.25L559.37,228.3L559.91,278.08L559.97,264.82L559.98,264.79L560.56,281.95L560.61,251.95L560.61,259.63" style="vector-effect: non-scaling-stroke; fill: none; stroke: rgb(0, 154, 250); stroke-opacity: 1; stroke-width: 3px; opacity: 1;"/></g><g class="points"/><g class="text"/></g></g></g><g class="overplot"/><path class="xlines-above crisp" d="M99.09550889472148,413.13998250218725H677.0341207349081" style="fill: none; stroke-width: 1px; stroke: rgb(0, 0, 0); stroke-opacity: 1;"/><path class="ylines-above crisp" d="M99.59550889472148,42.63779527559056V412.63998250218725" style="fill: none; stroke-width: 1px; stroke: rgb(0, 0, 0); stroke-opacity: 1;"/><g class="overlines-above"/><g class="xaxislayer-above"><path class="xtick ticks crisp" d="M0,412.63998250218725v-5" transform="translate(116.42550889472147,0)" style="stroke: rgb(0, 0, 0); stroke-opacity: 1; stroke-width: 1px;"/><path class="xtick ticks crisp" d="M0,412.63998250218725v-5" transform="translate(194.17550889472147,0)" style="stroke: rgb(0, 0, 0); stroke-opacity: 1; stroke-width: 1px;"/><path class="xtick ticks crisp" d="M0,412.63998250218725v-5" transform="translate(271.93550889472147,0)" style="stroke: rgb(0, 0, 0); stroke-opacity: 1; stroke-width: 1px;"/><path class="xtick ticks crisp" d="M0,412.63998250218725v-5" transform="translate(349.68550889472147,0)" style="stroke: rgb(0, 0, 0); stroke-opacity: 1; stroke-width: 1px;"/><path class="xtick ticks crisp" d="M0,412.63998250218725v-5" transform="translate(427.4455088947215,0)" style="stroke: rgb(0, 0, 0); stroke-opacity: 1; stroke-width: 1px;"/><path class="xtick ticks crisp" d="M0,412.63998250218725v-5" transform="translate(505.1955088947215,0)" style="stroke: rgb(0, 0, 0); stroke-opacity: 1; stroke-width: 1px;"/><path class="xtick ticks crisp" d="M0,412.63998250218725v-5" transform="translate(582.9555088947214,0)" style="stroke: rgb(0, 0, 0); stroke-opacity: 1; stroke-width: 1px;"/><path class="xtick ticks crisp" d="M0,412.63998250218725v-5" transform="translate(660.7055088947214,0)" style="stroke: rgb(0, 0, 0); stroke-opacity: 1; stroke-width: 1px;"/><g class="xtick"><text text-anchor="middle" x="0" y="437.63998250218725" transform="translate(116.42550889472147,0)" style="font-family: sans-serif; font-size: 20px; fill: rgb(0, 0, 0); fill-opacity: 1; white-space: pre;">0</text></g><g class="xtick"><text text-anchor="middle" x="0" y="437.63998250218725" transform="translate(194.17550889472147,0)" style="font-family: sans-serif; font-size: 20px; fill: rgb(0, 0, 0); fill-opacity: 1; white-space: pre;">1</text></g><g class="xtick"><text text-anchor="middle" x="0" y="437.63998250218725" transform="translate(271.93550889472147,0)" style="font-family: sans-serif; font-size: 20px; fill: rgb(0, 0, 0); fill-opacity: 1; white-space: pre;">2</text></g><g class="xtick"><text text-anchor="middle" x="0" y="437.63998250218725" transform="translate(349.68550889472147,0)" style="font-family: sans-serif; font-size: 20px; fill: rgb(0, 0, 0); fill-opacity: 1; white-space: pre;">3</text></g><g class="xtick"><text text-anchor="middle" x="0" y="437.63998250218725" transform="translate(427.4455088947215,0)" style="font-family: sans-serif; font-size: 20px; fill: rgb(0, 0, 0); fill-opacity: 1; white-space: pre;">4</text></g><g class="xtick"><text text-anchor="middle" x="0" y="437.63998250218725" transform="translate(505.1955088947215,0)" style="font-family: sans-serif; font-size: 20px; fill: rgb(0, 0, 0); fill-opacity: 1; white-space: pre;">5</text></g><g class="xtick"><text text-anchor="middle" x="0" y="437.63998250218725" transform="translate(582.9555088947214,0)" style="font-family: sans-serif; font-size: 20px; fill: rgb(0, 0, 0); fill-opacity: 1; white-space: pre;">6</text></g><g class="xtick"><text text-anchor="middle" x="0" y="437.63998250218725" transform="translate(660.7055088947214,0)" style="font-family: sans-serif; font-size: 20px; fill: rgb(0, 0, 0); fill-opacity: 1; white-space: pre;">7</text></g></g><g class="yaxislayer-above"><path class="ytick ticks crisp" d="M100.09550889472148,0h5" transform="translate(0,411.5077952755906)" style="stroke: rgb(0, 0, 0); stroke-opacity: 1; stroke-width: 1px;"/><path class="ytick ticks crisp" d="M100.09550889472148,0h5" transform="translate(0,338.34779527559056)" style="stroke: rgb(0, 0, 0); stroke-opacity: 1; stroke-width: 1px;"/><path class="ytick ticks crisp" d="M100.09550889472148,0h5" transform="translate(0,265.1877952755906)" style="stroke: rgb(0, 0, 0); stroke-opacity: 1; stroke-width: 1px;"/><path class="ytick ticks crisp" d="M100.09550889472148,0h5" transform="translate(0,192.02779527559056)" style="stroke: rgb(0, 0, 0); stroke-opacity: 1; stroke-width: 1px;"/><path class="ytick ticks crisp" d="M100.09550889472148,0h5" transform="translate(0,118.86779527559057)" style="stroke: rgb(0, 0, 0); stroke-opacity: 1; stroke-width: 1px;"/><path class="ytick ticks crisp" d="M100.09550889472148,0h5" transform="translate(0,45.697795275590565)" style="stroke: rgb(0, 0, 0); stroke-opacity: 1; stroke-width: 1px;"/><g class="ytick"><text text-anchor="end" x="95.09550889472148" y="7" transform="translate(0,411.5077952755906)" style="font-family: sans-serif; font-size: 20px; fill: rgb(0, 0, 0); fill-opacity: 1; white-space: pre;">0.0</text></g><g class="ytick"><text text-anchor="end" x="95.09550889472148" y="7" transform="translate(0,338.34779527559056)" style="font-family: sans-serif; font-size: 20px; fill: rgb(0, 0, 0); fill-opacity: 1; white-space: pre;">0.5</text></g><g class="ytick"><text text-anchor="end" x="95.09550889472148" y="7" transform="translate(0,265.1877952755906)" style="font-family: sans-serif; font-size: 20px; fill: rgb(0, 0, 0); fill-opacity: 1; white-space: pre;">1.0</text></g><g class="ytick"><text text-anchor="end" x="95.09550889472148" y="7" transform="translate(0,192.02779527559056)" style="font-family: sans-serif; font-size: 20px; fill: rgb(0, 0, 0); fill-opacity: 1; white-space: pre;">1.5</text></g><g class="ytick"><text text-anchor="end" x="95.09550889472148" y="7" transform="translate(0,118.86779527559057)" style="font-family: sans-serif; font-size: 20px; fill: rgb(0, 0, 0); fill-opacity: 1; white-space: pre;">2.0</text></g><g class="ytick"><text text-anchor="end" x="95.09550889472148" y="7" transform="translate(0,45.697795275590565)" style="font-family: sans-serif; font-size: 20px; fill: rgb(0, 0, 0); fill-opacity: 1; white-space: pre;">2.5</text></g></g><g class="overaxes-above"/></g></g><g class="polarlayer"/><g class="ternarylayer"/><g class="geolayer"/><g class="funnelarealayer"/><g class="pielayer"/><g class="treemaplayer"/><g class="sunburstlayer"/><g class="glimages"/><defs id="topdefs-15ed31"><g class="clips"/></defs><g class="layer-above"><g class="imagelayer"/><g class="shapelayer"/></g><g class="infolayer"><g class="g-gtitle"/><g class="g-xtitle"><text class="xtitle" x="388.56481481481484" y="482.63998250218725" text-anchor="middle" style="font-family: sans-serif; font-size: 20px; fill: rgb(0, 0, 0); opacity: 1; font-weight: normal; white-space: pre;">days [c]</text></g><g class="g-ytitle"><text class="ytitle" transform="rotate(-90,50.095508894721476,227.6388888888889)" x="50.095508894721476" y="227.6388888888889" text-anchor="middle" style="font-family: sans-serif; font-size: 20px; fill: rgb(0, 0, 0); opacity: 1; font-weight: normal; white-space: pre;">normed demand H0</text></g></g></svg>